<?xml version="1.0" encoding="utf-8"?>
<!-- Generator: Adobe Illustrator 26.2.1, SVG Export Plug-In . SVG Version: 6.00 Build 0)  -->
<svg version="1.1" id="Layer_1" xmlns="http://www.w3.org/2000/svg" xmlns:xlink="http://www.w3.org/1999/xlink" x="0px" y="0px"
	 viewBox="0 0 20.7 26.5" style="enable-background:new 0 0 20.7 26.5;" xml:space="preserve">
<style type="text/css">
	.st0{fill:#8B91A9;}
</style>
<g id="download_7_" transform="translate(-12.9 -2.437)">
	<path id="Path_18142" class="st0" d="M31.1,11.8c-0.7,1-1.6,2.1-2.4,3c-0.7,0.8-1.9,1-2.8,0.3c-0.1-0.1-0.2-0.2-0.3-0.3
		c-0.1-0.1-0.1-0.1-0.1-0.2h-0.1L25,14.4c-0.1,0-0.2,0-0.2,0l-0.6,0.4c-0.1,0.1-0.1,0.1-0.1,0.2l0.1,0.7c0,0.1,0,0.2-0.1,0.2
		l-0.4,0.2c-0.1,0.1-0.2,0.2-0.1,0.3c0,0,0,0,0,0.1l0.3,0.3c0,0.1,0.1,0.1,0.2,0.1l0.6-0.1h0.1l0.3,0.1c0.1,0.1,0.3,0.2,0.4,0.3
		c0.1,0.1,0.2,0.1,0.3,0c0,0,0,0,0,0c0-0.1,0.1-0.1,0.2-0.1l0.4-0.1c0,0,0.1,0,0.1-0.1l0.1,0c0.1-0.1,0.2-0.1,0.3,0c0,0,0,0,0,0.1
		l0.2,0.6c0,0,0,0,0,0.1l0.3,0.3c0.1,0.1,0.1,0.2,0,0.3l-0.6,0.6c-0.1,0.1-0.2,0.1-0.3,0l-0.6-0.6c0,0,0,0-0.1,0L25,17.9
		c0,0-0.1,0-0.1,0l-1.1-0.1h-0.1l-1.3,0.4c-0.1,0-0.1,0.1-0.1,0.1l-0.4,1.4c0,0.1,0,0.1,0,0.2l0.6,1.4c0,0.1,0.1,0.1,0.2,0.1
		l1.2,0.1c0,0,0.1,0,0.1,0l0.5,0.3c0.1,0,0.1,0.1,0.1,0.2l0.1,1.3c0,0,0,0.1,0,0.1l0.6,1.1c0,0,0,0.1,0.1,0.1l0.7,0.5
		c0.1,0.1,0.2,0.1,0.3,0c0,0,0,0,0,0l0.3-0.4c0,0,0,0,0-0.1l0.5-1.3v-0.1l0.2-1.8c0,0,0-0.1,0-0.1l0.4-0.7c0-0.1,0.1-0.1,0.2-0.1
		l1.2,0.2c0.1,0,0.1,0,0.2-0.1l0.2-0.3c0.1-0.1,0.1-0.2,0-0.3l-0.6-0.8c-0.1-0.1-0.1-0.2,0-0.3c0,0,0.1,0,0.1,0l0.2-0.1
		c0,0,0.4,0,0.5,0h0l0.6,0.1c0.1,0,0.2,0.1,0.2,0.3l-0.1,1.5v0.1l0.5,1.3c-1.4,3-4.4,5-7.7,5c-1.6,0-3.1-0.4-4.5-1.3l0.6-2.7
		c0-0.1,0-0.2,0-0.3l-0.9-1.9c-0.1-0.2-0.2-0.3-0.4-0.3l-2-0.3c-0.3,0-0.5-0.3-0.4-0.6c0-0.1,0.1-0.2,0.1-0.2l0.1-0.2
		c0.1-0.1,0.3-0.2,0.4-0.2l0.9,0.1h0.2l1.3-0.3c0,0,0.1,0,0.1,0l0.8-0.4c0.1-0.1,0.2-0.2,0.3-0.4l0.3-2.3c0-0.2-0.1-0.4-0.3-0.5
		l-0.4-0.3c-0.2-0.1-0.4-0.3-0.3-0.6c0-0.2,0.2-0.4,0.4-0.4l0.6-0.1c0.3,0,0.5-0.3,0.5-0.5l0-0.7l-0.1-1.4c0-0.2-0.1-0.4-0.3-0.4
		l-0.5-0.2c0.7-0.3,1.5-0.6,2.3-0.7C22,10,22,9.9,21.9,9.7c-0.2-0.4-0.4-0.9-0.5-1.3c-5.6,1-9.4,6.4-8.3,12.1s6.4,9.4,12.1,8.3
		c4.9-0.9,8.5-5.2,8.5-10.2C33.6,16.1,32.7,13.7,31.1,11.8z"/>
	<path id="Path_18143" class="st0" d="M26.7,14c0.2,0.3,0.6,0.3,0.9,0.1c0,0,0,0,0.1-0.1c1.3-1.6,2.5-3.2,3.7-4.9
		c0.7-1.3,0.7-2.8,0-4.1c-1.1-2.3-3.9-3.2-6.2-2c-2.2,1.2-3.1,3.9-2,6.2C24.2,10.8,25.4,12.4,26.7,14z M27.2,4.9
		c1.2,0,2.2,1,2.2,2.2s-1,2.2-2.2,2.2C26,9.2,25,8.2,25,7C25,5.8,26,4.9,27.2,4.9z"/>
</g>
</svg>
