<svg xmlns="http://www.w3.org/2000/svg" width="150" height="40" viewBox="0 0 150 40">
  <g id="Group_17947" data-name="Group 17947" transform="translate(-524 -1036)">
    <circle id="Ellipse_1648" data-name="Ellipse 1648" cx="3" cy="3" r="3" transform="translate(524 1036)" fill="#e2e2e2"/>
    <circle id="Ellipse_1649" data-name="Ellipse 1649" cx="3" cy="3" r="3" transform="translate(542 1036)" fill="#e2e2e2"/>
    <circle id="Ellipse_1650" data-name="Ellipse 1650" cx="3" cy="3" r="3" transform="translate(560 1036)" fill="#e2e2e2"/>
    <circle id="Ellipse_1651" data-name="Ellipse 1651" cx="3" cy="3" r="3" transform="translate(578 1036)" fill="#e2e2e2"/>
    <circle id="Ellipse_1652" data-name="Ellipse 1652" cx="3" cy="3" r="3" transform="translate(596 1036)" fill="#e2e2e2"/>
    <circle id="Ellipse_1653" data-name="Ellipse 1653" cx="3" cy="3" r="3" transform="translate(614 1036)" fill="#e2e2e2"/>
    <circle id="Ellipse_1654" data-name="Ellipse 1654" cx="3" cy="3" r="3" transform="translate(632 1036)" fill="#e2e2e2"/>
    <circle id="Ellipse_1655" data-name="Ellipse 1655" cx="3" cy="3" r="3" transform="translate(650 1036)" fill="#e2e2e2"/>
    <circle id="Ellipse_1656" data-name="Ellipse 1656" cx="3" cy="3" r="3" transform="translate(668 1036)" fill="#e2e2e2"/>
    <circle id="Ellipse_1657" data-name="Ellipse 1657" cx="3" cy="3" r="3" transform="translate(524 1053)" fill="#e2e2e2"/>
    <circle id="Ellipse_1658" data-name="Ellipse 1658" cx="3" cy="3" r="3" transform="translate(542 1053)" fill="#e2e2e2"/>
    <circle id="Ellipse_1659" data-name="Ellipse 1659" cx="3" cy="3" r="3" transform="translate(560 1053)" fill="#e2e2e2"/>
    <circle id="Ellipse_1660" data-name="Ellipse 1660" cx="3" cy="3" r="3" transform="translate(578 1053)" fill="#e2e2e2"/>
    <circle id="Ellipse_1661" data-name="Ellipse 1661" cx="3" cy="3" r="3" transform="translate(596 1053)" fill="#e2e2e2"/>
    <circle id="Ellipse_1662" data-name="Ellipse 1662" cx="3" cy="3" r="3" transform="translate(614 1053)" fill="#e2e2e2"/>
    <circle id="Ellipse_1663" data-name="Ellipse 1663" cx="3" cy="3" r="3" transform="translate(632 1053)" fill="#e2e2e2"/>
    <circle id="Ellipse_1664" data-name="Ellipse 1664" cx="3" cy="3" r="3" transform="translate(650 1053)" fill="#e2e2e2"/>
    <circle id="Ellipse_1667" data-name="Ellipse 1667" cx="3" cy="3" r="3" transform="translate(524 1070)" fill="#e2e2e2"/>
    <circle id="Ellipse_1668" data-name="Ellipse 1668" cx="3" cy="3" r="3" transform="translate(542 1070)" fill="#e2e2e2"/>
    <circle id="Ellipse_1669" data-name="Ellipse 1669" cx="3" cy="3" r="3" transform="translate(560 1070)" fill="#e2e2e2"/>
    <circle id="Ellipse_1670" data-name="Ellipse 1670" cx="3" cy="3" r="3" transform="translate(578 1070)" fill="#e2e2e2"/>
    <circle id="Ellipse_1671" data-name="Ellipse 1671" cx="3" cy="3" r="3" transform="translate(596 1070)" fill="#e2e2e2"/>
    <circle id="Ellipse_1672" data-name="Ellipse 1672" cx="3" cy="3" r="3" transform="translate(614 1070)" fill="#e2e2e2"/>
    <circle id="Ellipse_1673" data-name="Ellipse 1673" cx="3" cy="3" r="3" transform="translate(632 1070)" fill="#e2e2e2"/>
    <circle id="Ellipse_1674" data-name="Ellipse 1674" cx="3" cy="3" r="3" transform="translate(650 1070)" fill="#e2e2e2"/>
    <circle id="Ellipse_1675" data-name="Ellipse 1675" cx="3" cy="3" r="3" transform="translate(668 1070)" fill="#e2e2e2"/>
  </g>
</svg>
