<svg xmlns="http://www.w3.org/2000/svg" width="22" height="24.2" viewBox="0 0 22 24.2">
  <path id="calendar" d="M13,20.8a1.1,1.1,0,1,0-1.1-1.1A1.1,1.1,0,0,0,13,20.8Zm5.5,0a1.1,1.1,0,1,0-1.1-1.1A1.1,1.1,0,0,0,18.5,20.8Zm0-4.4a1.1,1.1,0,1,0-1.1-1.1A1.1,1.1,0,0,0,18.5,16.4Zm-5.5,0a1.1,1.1,0,1,0-1.1-1.1A1.1,1.1,0,0,0,13,16.4ZM20.7,3.2H19.6V2.1a1.1,1.1,0,1,0-2.2,0V3.2H8.6V2.1a1.1,1.1,0,1,0-2.2,0V3.2H5.3A3.3,3.3,0,0,0,2,6.5V21.9a3.3,3.3,0,0,0,3.3,3.3H20.7A3.3,3.3,0,0,0,24,21.9V6.5A3.3,3.3,0,0,0,20.7,3.2Zm1.1,18.7A1.1,1.1,0,0,1,20.7,23H5.3a1.1,1.1,0,0,1-1.1-1.1V12H21.8Zm0-12.1H4.2V6.5A1.1,1.1,0,0,1,5.3,5.4H6.4V6.5a1.1,1.1,0,1,0,2.2,0V5.4h8.8V6.5a1.1,1.1,0,1,0,2.2,0V5.4h1.1a1.1,1.1,0,0,1,1.1,1.1ZM7.5,16.4a1.1,1.1,0,1,0-1.1-1.1A1.1,1.1,0,0,0,7.5,16.4Zm0,4.4a1.1,1.1,0,1,0-1.1-1.1A1.1,1.1,0,0,0,7.5,20.8Z" transform="translate(-2 -1)" fill="#623EDA"/>
</svg>
