<svg xmlns="http://www.w3.org/2000/svg" width="150" height="40" viewBox="0 0 150 40">
  <g id="Group_17752" data-name="Group 17752" opacity="0.35">
    <circle id="Ellipse_1648" data-name="Ellipse 1648" cx="3" cy="3" r="3" fill="#623eda"/>
    <circle id="Ellipse_1649" data-name="Ellipse 1649" cx="3" cy="3" r="3" transform="translate(18)" fill="#623eda"/>
    <circle id="Ellipse_1650" data-name="Ellipse 1650" cx="3" cy="3" r="3" transform="translate(36)" fill="#623eda"/>
    <circle id="Ellipse_1651" data-name="Ellipse 1651" cx="3" cy="3" r="3" transform="translate(54)" fill="#623eda"/>
    <circle id="Ellipse_1652" data-name="Ellipse 1652" cx="3" cy="3" r="3" transform="translate(72)" fill="#623eda"/>
    <circle id="Ellipse_1653" data-name="Ellipse 1653" cx="3" cy="3" r="3" transform="translate(90)" fill="#623eda"/>
    <circle id="Ellipse_1654" data-name="Ellipse 1654" cx="3" cy="3" r="3" transform="translate(108)" fill="#623eda"/>
    <circle id="Ellipse_1655" data-name="Ellipse 1655" cx="3" cy="3" r="3" transform="translate(126)" fill="#623eda"/>
    <circle id="Ellipse_1656" data-name="Ellipse 1656" cx="3" cy="3" r="3" transform="translate(144)" fill="#623eda"/>
    <circle id="Ellipse_1657" data-name="Ellipse 1657" cx="3" cy="3" r="3" transform="translate(0 17)" fill="#623eda"/>
    <circle id="Ellipse_1658" data-name="Ellipse 1658" cx="3" cy="3" r="3" transform="translate(18 17)" fill="#623eda"/>
    <circle id="Ellipse_1659" data-name="Ellipse 1659" cx="3" cy="3" r="3" transform="translate(36 17)" fill="#623eda"/>
    <circle id="Ellipse_1660" data-name="Ellipse 1660" cx="3" cy="3" r="3" transform="translate(54 17)" fill="#623eda"/>
    <circle id="Ellipse_1661" data-name="Ellipse 1661" cx="3" cy="3" r="3" transform="translate(72 17)" fill="#623eda"/>
    <circle id="Ellipse_1662" data-name="Ellipse 1662" cx="3" cy="3" r="3" transform="translate(90 17)" fill="#623eda"/>
    <circle id="Ellipse_1663" data-name="Ellipse 1663" cx="3" cy="3" r="3" transform="translate(108 17)" fill="#623eda"/>
    <circle id="Ellipse_1667" data-name="Ellipse 1667" cx="3" cy="3" r="3" transform="translate(0 34)" fill="#623eda"/>
    <circle id="Ellipse_1668" data-name="Ellipse 1668" cx="3" cy="3" r="3" transform="translate(18 34)" fill="#623eda"/>
    <circle id="Ellipse_1669" data-name="Ellipse 1669" cx="3" cy="3" r="3" transform="translate(36 34)" fill="#623eda"/>
    <circle id="Ellipse_1670" data-name="Ellipse 1670" cx="3" cy="3" r="3" transform="translate(54 34)" fill="#623eda"/>
    <circle id="Ellipse_1671" data-name="Ellipse 1671" cx="3" cy="3" r="3" transform="translate(72 34)" fill="#623eda"/>
    <circle id="Ellipse_1672" data-name="Ellipse 1672" cx="3" cy="3" r="3" transform="translate(90 34)" fill="#623eda"/>
    <circle id="Ellipse_1673" data-name="Ellipse 1673" cx="3" cy="3" r="3" transform="translate(108 34)" fill="#623eda"/>
    <circle id="Ellipse_1674" data-name="Ellipse 1674" cx="3" cy="3" r="3" transform="translate(126 34)" fill="#623eda"/>
    <circle id="Ellipse_1675" data-name="Ellipse 1675" cx="3" cy="3" r="3" transform="translate(144 34)" fill="#623eda"/>
  </g>
</svg>
