<svg xmlns="http://www.w3.org/2000/svg" width="25.52" height="36.533" viewBox="0 0 25.52 36.533">
  <g id="_7123032_pin_map_google_icon" data-name="7123032_pin_map_google_icon" transform="translate(-41.4 -26.9)">
    <path id="Path_25117" data-name="Path 25117" d="M62.9,27.508a12.649,12.649,0,0,0-13.6,3.949l6.038,5.051Z" transform="translate(-4.9)" fill="#1a73e8"/>
    <path id="Path_25118" data-name="Path 25118" d="M44.4,38.9a12.722,12.722,0,0,0-3,8.2,14.791,14.791,0,0,0,1.253,6.076l7.747-9.19Z" transform="translate(0 -7.443)" fill="#ea4335"/>
    <path id="Path_25119" data-name="Path 25119" d="M68.922,35.691a4.846,4.846,0,0,1,4.861,4.861A4.785,4.785,0,0,1,72.643,43.7s3.836-4.6,7.6-9.038A12.816,12.816,0,0,0,72.8,28.4l-7.6,9.038a4.785,4.785,0,0,1,3.722-1.747" transform="translate(-14.762 -0.93)" fill="#4285f4"/>
    <path id="Path_25120" data-name="Path 25120" d="M56.269,60.275a4.846,4.846,0,0,1-4.861-4.861A4.758,4.758,0,0,1,52.547,52.3L44.8,61.49c1.291,2.924,3.494,5.279,5.772,8.241l9.418-11.2a4.843,4.843,0,0,1-3.722,1.747" transform="translate(-2.109 -15.754)" fill="#fbbc04"/>
    <path id="Path_25121" data-name="Path 25121" d="M69.228,68.279c4.253-6.646,9.228-9.684,9.228-17.393A12.845,12.845,0,0,0,77.013,45L60,65.2c.722.949,1.443,1.937,2.165,3.076,2.582,3.987,1.861,6.38,3.532,6.38s.949-2.392,3.532-6.38" transform="translate(-11.537 -11.226)" fill="#34a853"/>
  </g>
</svg>
