<?xml version="1.0" encoding="utf-8"?>
<!-- Generator: Adobe Illustrator 26.2.0, SVG Export Plug-In . SVG Version: 6.00 Build 0)  -->
<svg version="1.1" id="Layer_1" xmlns="http://www.w3.org/2000/svg" xmlns:xlink="http://www.w3.org/1999/xlink" x="0px" y="0px"
	 viewBox="0 0 28 26" style="enable-background:new 0 0 28 26;" xml:space="preserve">
<style type="text/css">
	.st0{fill:#2C3652;}
</style>
<g id="download_30_" transform="translate(-79.067 -123.479)">
	<path id="Path_16000" class="st0" d="M88.2,140c-0.1,0.1-0.2,0.2-0.3,0.4c-0.2,0.2-0.3,0.5-0.4,0.7c-0.5,0.9-0.7,2-0.8,3l0,0
		c0,0.2,0,0.4,0,0.7v3.3h-2.5c-1.3,0-2.6,0-3.9,0c-0.7,0-1.2-0.5-1.2-1.2c0-0.3,0-0.6,0-1c-0.1-0.9,0-1.9,0.3-2.8
		c0.5-1.3,1.5-2.3,2.8-2.8c0.8-0.2,1.6-0.3,2.4-0.3H88C88.1,140,88.1,140,88.2,140z"/>
	<path id="Path_16001" class="st0" d="M89.9,131.5c-1.3-2.2-4.1-2.9-6.2-1.6c-1.1,0.7-1.9,1.8-2.1,3.1c0,0.2-0.1,0.5-0.1,0.7v0
		c0,2.5,2,4.5,4.6,4.5c1.3,0,2.6-0.6,3.5-1.6c0.6-0.7,1-1.6,1.1-2.6C90.6,133.2,90.4,132.3,89.9,131.5z"/>
	<path id="Path_16002" class="st0" d="M102.6,126.3c-0.7-1-1.8-1.8-2.9-2.2c-2.5-0.9-5.2-0.1-6.9,1.9c-0.8,1-1.3,2.2-1.4,3.5
		c-0.2,2.6,1.2,5,3.6,6.1c1.2,0.5,2.6,0.7,3.9,0.4c2.5-0.5,4.4-2.5,4.9-5.1c0.1-0.3,0.1-0.7,0.1-1v0
		C103.7,128.6,103.3,127.3,102.6,126.3z"/>
	<path id="Path_16003" class="st0" d="M107.1,147.8v-3.4c0-1.5-0.5-2.9-1.5-4c-0.9-1.1-2.1-1.8-3.5-2.1c-0.7-0.1-1.4-0.2-2.1-0.1
		h-5.3c-0.8,0-1.7,0.1-2.5,0.3c-1,0.3-1.9,0.9-2.6,1.7c-0.1,0.1-0.2,0.3-0.3,0.4s-0.2,0.3-0.3,0.4c-0.1,0.2-0.2,0.4-0.3,0.6
		c-0.4,0.8-0.6,1.6-0.6,2.5c0,0.2,0,0.5,0,0.7v2.8c0,0.1,0,0.2,0,0.3s0,0.2,0,0.3c0,0.5,0.4,0.9,1,0.9c0,0,0,0,0,0c1,0,1.9,0,2.9,0
		h11.2c1,0,2,0,3,0c0.4,0,0.8-0.3,1-0.7C107.1,148.3,107.1,148.1,107.1,147.8z"/>
</g>
</svg>
