<?xml version="1.0" encoding="utf-8"?>
<!-- Generator: Adobe Illustrator 26.2.0, SVG Export Plug-In . SVG Version: 6.00 Build 0)  -->
<svg version="1.1" id="Layer_1" xmlns="http://www.w3.org/2000/svg" xmlns:xlink="http://www.w3.org/1999/xlink" x="0px" y="0px"
	 viewBox="0 0 28 32" style="enable-background:new 0 0 28 32;" xml:space="preserve">
<style type="text/css">
	.st0{fill:#2C3652;}
</style>
<g id="download_38_" transform="translate(-4)">
	<g id="Group_6772" transform="translate(4)">
		<path id="Path_16011" class="st0" d="M2,6v24c0,0.3,0.1,0.5,0.3,0.7l1,1c0.4,0.4,1,0.4,1.4,0L6,30.4l1.3,1.3c0.4,0.4,1,0.4,1.4,0
			l1.3-1.3l1.3,1.3c0.4,0.4,1,0.4,1.4,0l1.3-1.3l1.3,1.3c0.4,0.4,1,0.4,1.4,0l1.3-1.3l1.3,1.3c0.4,0.4,1,0.4,1.4,0l1.3-1.3l1.3,1.3
			c0.4,0.4,1,0.4,1.4,0l1-1c0.2-0.2,0.3-0.4,0.3-0.7V6H2z M15,25c0,0.6-0.4,1-1,1s-1-0.4-1-1h-1c-0.6,0-1-0.4-1-1s0.4-1,1-1h3
			c0.6,0,1-0.4,1-1s-0.4-1-1-1h-2c-1.7,0-3-1.3-3-3s1.3-3,3-3c0-0.6,0.4-1,1-1s1,0.4,1,1h1c0.6,0,1,0.4,1,1s-0.4,1-1,1h-3
			c-0.6,0-1,0.4-1,1s0.4,1,1,1h2c1.7,0,3,1.3,3,3S16.7,25,15,25z M20,11H8c-0.6,0-1-0.4-1-1c0-0.6,0.4-1,1-1h12c0.6,0,1,0.4,1,1
			C21,10.6,20.6,11,20,11z"/>
		<path id="Path_16012" class="st0" d="M27,0H1C0.4,0,0,0.4,0,1v3c0,0.6,0.4,1,1,1h26c0.6,0,1-0.4,1-1V1C28,0.4,27.6,0,27,0z"/>
	</g>
</g>
</svg>
