<svg id="Group_15751" data-name="Group 15751" xmlns="http://www.w3.org/2000/svg" xmlns:xlink="http://www.w3.org/1999/xlink" width="296.595" height="224.697" viewBox="0 0 296.595 224.697">
  <defs>
    <clipPath id="clip-path">
      <rect id="Rectangle_6506" data-name="Rectangle 6506" width="296.595" height="224.697" fill="none"/>
    </clipPath>
    <clipPath id="clip-path-3">
      <rect id="Rectangle_6482" data-name="Rectangle 6482" width="200.524" height="11.607" fill="none"/>
    </clipPath>
    <clipPath id="clip-path-4">
      <rect id="Rectangle_6483" data-name="Rectangle 6483" width="128.478" height="94.159" fill="none"/>
    </clipPath>
    <clipPath id="clip-path-5">
      <rect id="Rectangle_6484" data-name="Rectangle 6484" width="128.479" height="94.159" fill="none"/>
    </clipPath>
    <clipPath id="clip-path-6">
      <rect id="Rectangle_6485" data-name="Rectangle 6485" width="150.778" height="97.221" fill="none"/>
    </clipPath>
    <clipPath id="clip-path-7">
      <rect id="Rectangle_6486" data-name="Rectangle 6486" width="9.24" height="18.195" fill="none"/>
    </clipPath>
    <clipPath id="clip-path-8">
      <rect id="Rectangle_6487" data-name="Rectangle 6487" width="9.24" height="10.451" fill="none"/>
    </clipPath>
    <clipPath id="clip-path-10">
      <rect id="Rectangle_6489" data-name="Rectangle 6489" width="46.933" height="46.933" fill="none"/>
    </clipPath>
    <clipPath id="clip-path-11">
      <rect id="Rectangle_6490" data-name="Rectangle 6490" width="42.803" height="42.802" fill="none"/>
    </clipPath>
    <clipPath id="clip-path-12">
      <rect id="Rectangle_6491" data-name="Rectangle 6491" width="20.9" height="20.823" fill="none"/>
    </clipPath>
    <clipPath id="clip-path-13">
      <rect id="Rectangle_6492" data-name="Rectangle 6492" width="53.171" height="29.768" fill="none"/>
    </clipPath>
    <clipPath id="clip-path-14">
      <rect id="Rectangle_6493" data-name="Rectangle 6493" width="33.791" height="14.285" fill="none"/>
    </clipPath>
    <clipPath id="clip-path-15">
      <rect id="Rectangle_6494" data-name="Rectangle 6494" width="8.156" height="8.156" fill="none"/>
    </clipPath>
    <clipPath id="clip-path-16">
      <rect id="Rectangle_6495" data-name="Rectangle 6495" width="8.157" height="8.156" fill="none"/>
    </clipPath>
    <clipPath id="clip-path-18">
      <rect id="Rectangle_6497" data-name="Rectangle 6497" width="15.882" height="15.882" fill="none"/>
    </clipPath>
    <clipPath id="clip-path-19">
      <rect id="Rectangle_6498" data-name="Rectangle 6498" width="12.806" height="12.807" fill="none"/>
    </clipPath>
    <clipPath id="clip-path-20">
      <rect id="Rectangle_6499" data-name="Rectangle 6499" width="8.896" height="8.896" fill="none"/>
    </clipPath>
    <clipPath id="clip-path-21">
      <rect id="Rectangle_6500" data-name="Rectangle 6500" width="142.842" height="49.709" fill="none"/>
    </clipPath>
    <clipPath id="clip-path-22">
      <rect id="Rectangle_6501" data-name="Rectangle 6501" width="63.779" height="35.707" fill="none"/>
    </clipPath>
    <clipPath id="clip-path-23">
      <rect id="Rectangle_6502" data-name="Rectangle 6502" width="10.169" height="13.846" fill="none"/>
    </clipPath>
  </defs>
  <g id="Group_15750" data-name="Group 15750" clip-path="url(#clip-path)">
    <g id="Group_15699" data-name="Group 15699">
      <g id="Group_15698" data-name="Group 15698" clip-path="url(#clip-path)">
        <path id="Path_24540" data-name="Path 24540" d="M288.081,136.989A136.4,136.4,0,0,1,256.313,224.7H45.872a136.986,136.986,0,1,1,242.209-87.709" transform="translate(-3.834 0)" fill="#ceeded"/>
        <path id="Path_24541" data-name="Path 24541" d="M93.651,153.315h-44.3a5.774,5.774,0,0,1-5.774-5.774v-2.409a5.775,5.775,0,0,1,5.774-5.774h44.3a5.774,5.774,0,0,1,5.774,5.774v2.409a5.774,5.774,0,0,1-5.774,5.774" transform="translate(-11.846 -37.886)" fill="#d3ede8"/>
        <path id="Path_24542" data-name="Path 24542" d="M87.881,139.852H78.152a5.774,5.774,0,0,1-5.774-5.774v-2.409a5.774,5.774,0,0,1,5.774-5.774h9.729a5.774,5.774,0,0,1,5.774,5.774v2.409a5.774,5.774,0,0,1-5.774,5.774" transform="translate(-19.677 -34.226)" fill="#d3ede8"/>
        <path id="Path_24543" data-name="Path 24543" d="M294.177,203.236h44.3a5.774,5.774,0,0,0,5.774-5.774v-2.409a5.775,5.775,0,0,0-5.774-5.774h-44.3a5.774,5.774,0,0,0-5.774,5.774v2.409a5.774,5.774,0,0,0,5.774,5.774" transform="translate(-78.406 -51.458)" fill="#d3ede8"/>
        <path id="Path_24544" data-name="Path 24544" d="M312.857,189.773h9.729A5.774,5.774,0,0,0,328.36,184V181.59a5.774,5.774,0,0,0-5.774-5.774h-9.729a5.774,5.774,0,0,0-5.774,5.774V184a5.774,5.774,0,0,0,5.774,5.774" transform="translate(-83.484 -47.798)" fill="#d3ede8"/>
        <g id="Group_15682" data-name="Group 15682" transform="translate(46.997 212.961)" style="mix-blend-mode: multiply;isolation: isolate">
          <g id="Group_15681" data-name="Group 15681">
            <g id="Group_15680" data-name="Group 15680" clip-path="url(#clip-path-3)">
              <path id="Path_24545" data-name="Path 24545" d="M260.265,304.081H69.346a4.8,4.8,0,0,1-4.8-4.8v-2a4.8,4.8,0,0,1,4.8-4.8H260.265a4.8,4.8,0,0,1,4.8,4.8v2a4.8,4.8,0,0,1-4.8,4.8" transform="translate(-64.544 -292.474)" fill="#a4d8d6"/>
            </g>
          </g>
        </g>
        <path id="Path_24546" data-name="Path 24546" d="M237.482,260.2H110.7a12,12,0,0,1-12-12V162.986H249.48v85.221a12,12,0,0,1-12,12" transform="translate(-26.835 -44.31)" fill="#f49600"/>
        <path id="Path_24547" data-name="Path 24547" d="M249.479,135.077H98.707L166.3,63.691a10.738,10.738,0,0,1,15.595,0Z" transform="translate(-26.835 -16.403)" fill="#f49600"/>
        <path id="Path_24548" data-name="Path 24548" d="M228.658,178.158H110.127a4.974,4.974,0,0,1-4.974-4.974V88.973A4.974,4.974,0,0,1,110.127,84H228.658a4.974,4.974,0,0,1,4.974,4.974v84.211a4.974,4.974,0,0,1-4.974,4.974" transform="translate(-28.587 -22.836)" fill="#ededed"/>
        <path id="Path_24549" data-name="Path 24549" d="M82.751,90.809H125.79a8.045,8.045,0,0,0,8.045-8.045V79.408a8.045,8.045,0,0,0-8.045-8.045H82.751a8.045,8.045,0,0,0-8.045,8.045v3.355a8.045,8.045,0,0,0,8.045,8.045" transform="translate(-20.31 -19.401)" fill="#13d2c2"/>
        <path id="Path_24550" data-name="Path 24550" d="M108.777,72.052h13.555a8.045,8.045,0,0,0,8.045-8.045V60.651a8.045,8.045,0,0,0-8.045-8.045H108.777a8.045,8.045,0,0,0-8.045,8.045v3.355a8.045,8.045,0,0,0,8.045,8.045" transform="translate(-27.385 -14.302)" fill="#13d2c2"/>
        <g id="Group_15685" data-name="Group 15685" transform="translate(91.892 63.692)" opacity="0.095">
          <g id="Group_15684" data-name="Group 15684">
            <g id="Group_15683" data-name="Group 15683" clip-path="url(#clip-path-4)">
              <path id="Path_24551" data-name="Path 24551" d="M249.707,181.632H131.176a4.974,4.974,0,0,1-4.974-4.974V92.447a4.974,4.974,0,0,1,4.974-4.974H249.707a4.974,4.974,0,0,1,4.974,4.974v84.211a4.974,4.974,0,0,1-4.974,4.974" transform="translate(-126.202 -87.473)" fill="#020202"/>
            </g>
          </g>
        </g>
        <path id="Path_24552" data-name="Path 24552" d="M245.175,186.618H126.644a4.974,4.974,0,0,1-4.974-4.974V97.433a4.974,4.974,0,0,1,4.974-4.974H245.175a4.974,4.974,0,0,1,4.974,4.974v84.211a4.974,4.974,0,0,1-4.974,4.974" transform="translate(-33.077 -25.136)" fill="#f7f7f7"/>
        <g id="Group_15688" data-name="Group 15688" transform="translate(83.019 80.229)" opacity="0.095">
          <g id="Group_15687" data-name="Group 15687">
            <g id="Group_15686" data-name="Group 15686" clip-path="url(#clip-path-5)">
              <path id="Path_24553" data-name="Path 24553" d="M237.52,204.343H118.99a4.974,4.974,0,0,1-4.975-4.974V115.158a4.974,4.974,0,0,1,4.975-4.974H237.52a4.974,4.974,0,0,1,4.974,4.974v84.211a4.974,4.974,0,0,1-4.974,4.974" transform="translate(-114.015 -110.184)" fill="#020202"/>
            </g>
          </g>
        </g>
        <path id="Path_24554" data-name="Path 24554" d="M233.291,209.782H114.76a4.974,4.974,0,0,1-4.974-4.974V120.6a4.974,4.974,0,0,1,4.974-4.974H233.291a4.974,4.974,0,0,1,4.974,4.974v84.211a4.974,4.974,0,0,1-4.974,4.974" transform="translate(-29.847 -31.434)" fill="#fff"/>
        <path id="Path_24555" data-name="Path 24555" d="M226.465,173.453H134.343a1.092,1.092,0,0,1-1.092-1.092v-.456a1.093,1.093,0,0,1,1.092-1.092h92.122a1.093,1.093,0,0,1,1.092,1.092v.456a1.092,1.092,0,0,1-1.092,1.092" transform="translate(-36.226 -46.438)" fill="#b5bbc1"/>
        <path id="Path_24556" data-name="Path 24556" d="M226.465,185.538H134.343a1.093,1.093,0,0,1-1.092-1.092v-.456a1.093,1.093,0,0,1,1.092-1.092h92.122a1.093,1.093,0,0,1,1.092,1.092v.456a1.093,1.093,0,0,1-1.092,1.092" transform="translate(-36.226 -49.723)" fill="#b5bbc1"/>
        <path id="Path_24557" data-name="Path 24557" d="M226.465,197.624H134.343a1.093,1.093,0,0,1-1.092-1.092v-.456a1.093,1.093,0,0,1,1.092-1.092h92.122a1.093,1.093,0,0,1,1.092,1.092v.456a1.093,1.093,0,0,1-1.092,1.092" transform="translate(-36.226 -53.009)" fill="#b5bbc1"/>
        <path id="Path_24558" data-name="Path 24558" d="M226.465,209.709H134.343a1.093,1.093,0,0,1-1.092-1.092v-.456a1.093,1.093,0,0,1,1.092-1.092h92.122a1.093,1.093,0,0,1,1.092,1.092v.456a1.093,1.093,0,0,1-1.092,1.092" transform="translate(-36.226 -56.294)" fill="#b5bbc1"/>
        <path id="Path_24559" data-name="Path 24559" d="M226.465,221.8H134.343a1.093,1.093,0,0,1-1.092-1.092v-.456a1.093,1.093,0,0,1,1.092-1.092h92.122a1.093,1.093,0,0,1,1.092,1.092v.456a1.093,1.093,0,0,1-1.092,1.092" transform="translate(-36.226 -59.58)" fill="#b5bbc1"/>
        <path id="Path_24560" data-name="Path 24560" d="M249.481,162.986v82.719a14.5,14.5,0,0,1-14.5,14.5H113.205a14.5,14.5,0,0,1-14.5-14.5V162.986l75.388,48.778Z" transform="translate(-26.834 -44.31)" fill="#fdad13"/>
        <g id="Group_15691" data-name="Group 15691" transform="translate(71.869 118.676)" opacity="0.332" style="mix-blend-mode: multiply;isolation: isolate">
          <g id="Group_15690" data-name="Group 15690">
            <g id="Group_15689" data-name="Group 15689" clip-path="url(#clip-path-6)">
              <path id="Path_24561" data-name="Path 24561" d="M228.942,176.274v48.9a14.489,14.489,0,0,1-14.494,14.494H98.7v6.037a14.5,14.5,0,0,0,14.5,14.5H234.979a14.5,14.5,0,0,0,14.5-14.5V162.986Z" transform="translate(-98.703 -162.986)" fill="#fdad13"/>
            </g>
          </g>
        </g>
        <g id="Group_15694" data-name="Group 15694" transform="translate(80.819 168.491)" style="mix-blend-mode: screen;isolation: isolate">
          <g id="Group_15693" data-name="Group 15693">
            <g id="Group_15692" data-name="Group 15692" clip-path="url(#clip-path-7)">
              <path id="Path_24562" data-name="Path 24562" d="M116.411,249.595h-1.595a3.823,3.823,0,0,1-3.823-3.823V235.223a3.823,3.823,0,0,1,3.823-3.823h1.595a3.823,3.823,0,0,1,3.823,3.823v10.549a3.822,3.822,0,0,1-3.823,3.823" transform="translate(-110.994 -231.4)" fill="#fdad13"/>
            </g>
          </g>
        </g>
        <g id="Group_15697" data-name="Group 15697" transform="translate(80.819 154.724)" style="mix-blend-mode: screen;isolation: isolate">
          <g id="Group_15696" data-name="Group 15696">
            <g id="Group_15695" data-name="Group 15695" clip-path="url(#clip-path-8)">
              <path id="Path_24563" data-name="Path 24563" d="M116.411,222.944h-1.595a3.823,3.823,0,0,1-3.823-3.823v-2.806a3.823,3.823,0,0,1,3.823-3.823h1.595a3.822,3.822,0,0,1,3.823,3.823v2.806a3.822,3.822,0,0,1-3.823,3.823" transform="translate(-110.994 -212.493)" fill="#fdad13"/>
            </g>
          </g>
        </g>
      </g>
    </g>
    <text id="_" data-name="@" transform="translate(95.925 112.821)" fill="#b5bbc1" font-size="21" font-family="Rubik-Bold, Rubik" font-weight="700"><tspan x="0" y="0">@</tspan></text>
    <g id="Group_15749" data-name="Group 15749">
      <g id="Group_15748" data-name="Group 15748" clip-path="url(#clip-path)">
        <path id="Path_24564" data-name="Path 24564" d="M211.649,147.62H167.78a1.092,1.092,0,0,1-1.092-1.092v-.456a1.093,1.093,0,0,1,1.092-1.092h43.869a1.093,1.093,0,0,1,1.092,1.092v.456a1.092,1.092,0,0,1-1.092,1.092" transform="translate(-45.316 -39.415)" fill="#b5bbc1"/>
        <path id="Path_24565" data-name="Path 24565" d="M234.757,159.706H167.781a1.092,1.092,0,0,1-1.092-1.092v-.456a1.092,1.092,0,0,1,1.092-1.092h66.976a1.093,1.093,0,0,1,1.092,1.092v.456a1.093,1.093,0,0,1-1.092,1.092" transform="translate(-45.316 -42.7)" fill="#b5bbc1"/>
        <g id="Group_15702" data-name="Group 15702" transform="translate(201.085 151.068)" opacity="0.149">
          <g id="Group_15701" data-name="Group 15701">
            <g id="Group_15700" data-name="Group 15700" clip-path="url(#clip-path-10)">
              <path id="Path_24566" data-name="Path 24566" d="M323.1,230.939a23.466,23.466,0,1,1-23.466-23.466A23.466,23.466,0,0,1,323.1,230.939" transform="translate(-276.163 -207.472)" fill="#020202"/>
            </g>
          </g>
        </g>
        <path id="Path_24567" data-name="Path 24567" d="M318.866,225.7A23.466,23.466,0,1,1,295.4,202.236,23.466,23.466,0,0,1,318.866,225.7" transform="translate(-73.928 -54.98)" fill="#fe693c"/>
        <g id="Group_15705" data-name="Group 15705" transform="translate(202.135 151.386)" opacity="0.314" style="mix-blend-mode: multiply;isolation: isolate">
          <g id="Group_15704" data-name="Group 15704">
            <g id="Group_15703" data-name="Group 15703" clip-path="url(#clip-path-11)">
              <path id="Path_24568" data-name="Path 24568" d="M320.408,227.241a23.458,23.458,0,0,1-42.8,13.279,23.462,23.462,0,0,0,32.613-32.613,23.393,23.393,0,0,1,10.19,19.333" transform="translate(-277.605 -207.908)" fill="#fe693c"/>
            </g>
          </g>
        </g>
        <path id="Path_24569" data-name="Path 24569" d="M309.093,223.008a6.144,6.144,0,0,0-7.909-.658,6.206,6.206,0,0,0-.772.658c-.092.092-.177.184-.261.276-.085-.092-.17-.184-.262-.276a6.209,6.209,0,0,0-.772-.658,6.138,6.138,0,0,0-8.56,8.567l1.415,1.415,8.178,8.178,8.178-8.178,1.416-1.415a6.132,6.132,0,0,0-.652-7.909" transform="translate(-78.679 -60.139)" fill="#fff"/>
        <g id="Group_15708" data-name="Group 15708" transform="translate(201.066 151.252)" style="mix-blend-mode: screen;isolation: isolate">
          <g id="Group_15707" data-name="Group 15707">
            <g id="Group_15706" data-name="Group 15706" clip-path="url(#clip-path-12)">
              <path id="Path_24570" data-name="Path 24570" d="M278.338,228.547H278.3a2.2,2.2,0,0,1-2.164-2.227c.086-6.346,4.1-18.4,18.67-18.6h.031a2.2,2.2,0,0,1,.03,4.4c-13.9.187-14.32,13.689-14.33,14.263a2.2,2.2,0,0,1-2.2,2.16" transform="translate(-276.137 -207.724)" fill="#fe693c"/>
            </g>
          </g>
        </g>
        <g id="Group_15711" data-name="Group 15711" transform="translate(2.81 151.807)" style="mix-blend-mode: multiply;isolation: isolate">
          <g id="Group_15710" data-name="Group 15710">
            <g id="Group_15709" data-name="Group 15709" clip-path="url(#clip-path-13)">
              <path id="Path_24571" data-name="Path 24571" d="M11.094,242.84H49.8a7.234,7.234,0,0,0,7.235-7.234v-3.018a7.234,7.234,0,0,0-7.235-7.234h-38.7a7.235,7.235,0,0,0-7.235,7.234v3.018a7.235,7.235,0,0,0,7.235,7.234" transform="translate(-3.859 -213.072)" fill="#ceeded"/>
              <path id="Path_24572" data-name="Path 24572" d="M25.278,225.972H37.467a7.235,7.235,0,0,0,7.235-7.235V215.72a7.235,7.235,0,0,0-7.235-7.234H25.278a7.235,7.235,0,0,0-7.235,7.234v3.017a7.235,7.235,0,0,0,7.235,7.235" transform="translate(-7.716 -208.486)" fill="#ceeded"/>
            </g>
          </g>
        </g>
        <path id="Path_24573" data-name="Path 24573" d="M7.235,239.409h38.7a7.234,7.234,0,0,0,7.234-7.234v-3.018a7.234,7.234,0,0,0-7.234-7.234H7.235A7.235,7.235,0,0,0,0,229.157v3.018a7.235,7.235,0,0,0,7.235,7.234" transform="translate(0 -60.332)" fill="#13d2c2"/>
        <path id="Path_24574" data-name="Path 24574" d="M21.419,222.542H33.608a7.235,7.235,0,0,0,7.235-7.235V212.29a7.235,7.235,0,0,0-7.235-7.234H21.419a7.234,7.234,0,0,0-7.234,7.234v3.017a7.234,7.234,0,0,0,7.234,7.235" transform="translate(-3.856 -55.747)" fill="#13d2c2"/>
        <path id="Path_24575" data-name="Path 24575" d="M102.257,123.566q-1.2.814-2.409,1.636" transform="translate(-27.145 -33.593)" fill="none" stroke="#0284c4" stroke-miterlimit="10" stroke-width="1"/>
        <path id="Path_24576" data-name="Path 24576" d="M86.219,112.812c-5.546,4.056-10.727,8.555-14.427,14.288-5.263,8.152-6.793,19.529-1.033,27.339,4.923,6.675,13.719,9.151,21.959,10.1,19.121,2.194,38.6-1.564,56.517-8.588s34.419-17.227,50.207-28.234c7.268-5.066,14.5-10.361,20.59-16.835,6.83-7.253,9.929-16.527,13.992-25.542,1.364-3.028,2.583-6.988.221-9.322a5.971,5.971,0,0,0-5.071-1.293,10.316,10.316,0,0,0-6.627,16.569c3.052,3.9,8.644,5.1,13.488,4.085s9.086-3.885,12.976-6.949a111.5,111.5,0,0,0,21.638-22.661" transform="translate(-18.238 -17.879)" fill="none" stroke="#0284c4" stroke-miterlimit="10" stroke-width="1" stroke-dasharray="7.931 7.931"/>
        <path id="Path_24577" data-name="Path 24577" d="M348.919,61.6q.817-1.206,1.6-2.433" transform="translate(-94.858 -16.086)" fill="none" stroke="#0284c4" stroke-miterlimit="10" stroke-width="1"/>
        <path id="Path_24578" data-name="Path 24578" d="M316.471,94.021l16.548-15.48L323.7,75.953Z" transform="translate(-86.037 -20.649)" fill="#06637f"/>
        <path id="Path_24579" data-name="Path 24579" d="M316.472,57.932l-.109,22.712,7.726-17.667,45.982-36.228L316.077,56.594Z" transform="translate(-85.929 -7.272)" fill="#0775a0"/>
        <path id="Path_24580" data-name="Path 24580" d="M297.953,51.543l13.626,6.25,53.426-31.043-66.973,23.17a.876.876,0,0,0-.079,1.624" transform="translate(-80.863 -7.272)" fill="#0284c4"/>
        <path id="Path_24581" data-name="Path 24581" d="M373.063,26.749,327.081,62.977l17.647,8.54a1.242,1.242,0,0,0,1.6-.476Z" transform="translate(-88.921 -7.272)" fill="#0284c4"/>
        <g id="Group_15714" data-name="Group 15714" transform="translate(225.732 29.857)" style="mix-blend-mode: screen;isolation: isolate">
          <g id="Group_15713" data-name="Group 15713">
            <g id="Group_15712" data-name="Group 15712" clip-path="url(#clip-path-14)">
              <line id="Line_1239" data-name="Line 1239" y1="12.1" x2="31.606" transform="translate(1.092 1.092)" fill="none" stroke="#0284c4" stroke-linecap="round" stroke-miterlimit="10" stroke-width="3"/>
            </g>
          </g>
        </g>
        <g id="Group_15717" data-name="Group 15717" transform="translate(37.801 95.731)" opacity="0.497">
          <g id="Group_15716" data-name="Group 15716">
            <g id="Group_15715" data-name="Group 15715" clip-path="url(#clip-path-15)">
              <path id="Path_24582" data-name="Path 24582" d="M60.071,135.551a4.078,4.078,0,1,1-4.078-4.078,4.078,4.078,0,0,1,4.078,4.078" transform="translate(-51.915 -131.474)" fill="#fff"/>
            </g>
          </g>
        </g>
        <g id="Group_15720" data-name="Group 15720" transform="translate(118.834 40.511)" opacity="0.497">
          <g id="Group_15719" data-name="Group 15719">
            <g id="Group_15718" data-name="Group 15718" clip-path="url(#clip-path-16)">
              <path id="Path_24583" data-name="Path 24583" d="M171.359,59.715a4.078,4.078,0,1,1-4.078-4.078,4.079,4.079,0,0,1,4.078,4.078" transform="translate(-163.202 -55.637)" fill="#fff"/>
            </g>
          </g>
        </g>
        <g id="Group_15723" data-name="Group 15723" transform="translate(54.301 187.764)" opacity="0.497">
          <g id="Group_15722" data-name="Group 15722">
            <g id="Group_15721" data-name="Group 15721" clip-path="url(#clip-path-15)">
              <path id="Path_24584" data-name="Path 24584" d="M82.731,261.947a4.078,4.078,0,1,1-4.078-4.078,4.078,4.078,0,0,1,4.078,4.078" transform="translate(-74.575 -257.868)" fill="#fff"/>
            </g>
          </g>
        </g>
        <g id="Group_15726" data-name="Group 15726" transform="translate(19.706 105.667)" opacity="0.497">
          <g id="Group_15725" data-name="Group 15725">
            <g id="Group_15724" data-name="Group 15724" clip-path="url(#clip-path-18)">
              <path id="Path_24585" data-name="Path 24585" d="M42.946,153.061a7.941,7.941,0,1,1-7.941-7.941,7.941,7.941,0,0,1,7.941,7.941" transform="translate(-27.064 -145.12)" fill="#fff"/>
            </g>
          </g>
        </g>
        <g id="Group_15729" data-name="Group 15729" transform="translate(251.802 148.271)" opacity="0.497">
          <g id="Group_15728" data-name="Group 15728">
            <g id="Group_15727" data-name="Group 15727" clip-path="url(#clip-path-19)">
              <path id="Path_24586" data-name="Path 24586" d="M358.623,210.035a6.4,6.4,0,1,1-6.4-6.4,6.4,6.4,0,0,1,6.4,6.4" transform="translate(-345.817 -203.631)" fill="#fff"/>
            </g>
          </g>
        </g>
        <g id="Group_15732" data-name="Group 15732" transform="translate(253.904 166.36)" opacity="0.497">
          <g id="Group_15731" data-name="Group 15731">
            <g id="Group_15730" data-name="Group 15730" clip-path="url(#clip-path-20)">
              <path id="Path_24587" data-name="Path 24587" d="M357.6,232.921a4.448,4.448,0,1,1-4.448-4.448,4.448,4.448,0,0,1,4.448,4.448" transform="translate(-348.703 -228.473)" fill="#fff"/>
            </g>
          </g>
        </g>
        <g id="Group_15735" data-name="Group 15735" transform="translate(74.078 127.167)" opacity="0.332" style="mix-blend-mode: multiply;isolation: isolate">
          <g id="Group_15734" data-name="Group 15734">
            <g id="Group_15733" data-name="Group 15733" clip-path="url(#clip-path-21)">
              <path id="Path_24588" data-name="Path 24588" d="M102.736,175.647,175.042,223.9l69.079-43.559" transform="translate(-102.008 -174.919)" fill="none" stroke="#fdad13" stroke-linecap="round" stroke-linejoin="round" stroke-width="2"/>
            </g>
          </g>
        </g>
        <g id="Group_15738" data-name="Group 15738" transform="translate(232.815 101.135)" style="mix-blend-mode: multiply;isolation: isolate">
          <g id="Group_15737" data-name="Group 15737">
            <g id="Group_15736" data-name="Group 15736" clip-path="url(#clip-path-22)">
              <path id="Path_24589" data-name="Path 24589" d="M374.843,180.1H328.419a8.678,8.678,0,0,1-8.678-8.678v-3.62a8.677,8.677,0,0,1,8.678-8.677h46.424a8.677,8.677,0,0,1,8.678,8.677v3.62a8.678,8.678,0,0,1-8.678,8.678" transform="translate(-319.741 -144.396)" fill="#ceeded"/>
              <path id="Path_24590" data-name="Path 24590" d="M358.643,159.87H344.022a8.678,8.678,0,0,1-8.678-8.678v-3.62a8.677,8.677,0,0,1,8.678-8.677h14.621a8.677,8.677,0,0,1,8.678,8.677v3.62a8.678,8.678,0,0,1-8.678,8.678" transform="translate(-323.983 -138.895)" fill="#ceeded"/>
            </g>
          </g>
        </g>
        <path id="Path_24591" data-name="Path 24591" d="M368.327,174.959H321.9a8.678,8.678,0,0,1-8.678-8.678v-3.62a8.677,8.677,0,0,1,8.678-8.677h46.424A8.677,8.677,0,0,1,377,162.661v3.62a8.678,8.678,0,0,1-8.678,8.678" transform="translate(-85.154 -41.862)" fill="#13d2c2"/>
        <path id="Path_24592" data-name="Path 24592" d="M352.127,154.726H337.506a8.678,8.678,0,0,1-8.678-8.678v-3.62a8.677,8.677,0,0,1,8.678-8.677h14.621a8.677,8.677,0,0,1,8.678,8.677v3.62a8.678,8.678,0,0,1-8.678,8.678" transform="translate(-89.396 -36.362)" fill="#13d2c2"/>
        <g id="Group_15741" data-name="Group 15741" transform="translate(242.165 99.233)" style="mix-blend-mode: screen;isolation: isolate">
          <g id="Group_15740" data-name="Group 15740">
            <g id="Group_15739" data-name="Group 15739" clip-path="url(#clip-path-23)">
              <path id="Path_24593" data-name="Path 24593" d="M335.136,149.216s-3.419-9.393,6.7-10.933" transform="translate(-333.125 -136.827)" fill="none" stroke="#13d2c2" stroke-linecap="round" stroke-miterlimit="10" stroke-width="4"/>
            </g>
          </g>
        </g>
        <g id="Group_15744" data-name="Group 15744" transform="translate(76.286 40.713)" style="mix-blend-mode: screen;isolation: isolate">
          <g id="Group_15743" data-name="Group 15743">
            <g id="Group_15742" data-name="Group 15742" clip-path="url(#clip-path-23)">
              <path id="Path_24594" data-name="Path 24594" d="M107.324,68.847s-3.419-9.393,6.7-10.933" transform="translate(-105.313 -56.458)" fill="none" stroke="#13d2c2" stroke-linecap="round" stroke-miterlimit="10" stroke-width="4"/>
            </g>
          </g>
        </g>
        <g id="Group_15747" data-name="Group 15747" transform="translate(14.1 150.712)" style="mix-blend-mode: screen;isolation: isolate">
          <g id="Group_15746" data-name="Group 15746">
            <g id="Group_15745" data-name="Group 15745" clip-path="url(#clip-path-23)">
              <path id="Path_24595" data-name="Path 24595" d="M21.92,219.916s-3.419-9.393,6.7-10.933" transform="translate(-19.908 -207.527)" fill="none" stroke="#13d2c2" stroke-linecap="round" stroke-miterlimit="10" stroke-width="4"/>
            </g>
          </g>
        </g>
      </g>
    </g>
  </g>
</svg>
