<?xml version="1.0" encoding="utf-8"?>
<!-- Generator: Adobe Illustrator 26.2.1, SVG Export Plug-In . SVG Version: 6.00 Build 0)  -->
<svg version="1.1" id="Layer_1" xmlns="http://www.w3.org/2000/svg" xmlns:xlink="http://www.w3.org/1999/xlink" x="0px" y="0px"
	 viewBox="0 0 26.6 25.4" style="enable-background:new 0 0 26.6 25.4;" xml:space="preserve">
<style type="text/css">
	.st0{fill:#2C3652;}
</style>
<g id="school_1_" transform="translate(0 -24)">
	<path id="Path_23523" class="st0" d="M14.5,35.2h-0.8v-1.7c0-0.2-0.2-0.4-0.4-0.4c-0.2,0-0.4,0.2-0.4,0.4c0,0,0,0,0,0v2.1
		c0,0.2,0.2,0.4,0.4,0.4c0,0,0,0,0,0h1.2c0.2,0,0.4-0.2,0.4-0.4C14.9,35.4,14.8,35.2,14.5,35.2L14.5,35.2z"/>
	<path id="Path_23524" class="st0" d="M26.2,34h-7.5v-1.9c0.5,0.4,1.2,0.4,1.7,0l0.1-0.1c0.5-0.5,0.5-1.3,0-1.8l-5.8-5.8
		c-0.2-0.2-0.6-0.4-0.9-0.4h-1c-0.3,0-0.7,0.1-0.9,0.4l-5.8,5.8c-0.5,0.5-0.5,1.3,0,1.8L6.2,32c0.5,0.5,1.2,0.5,1.7,0V34H0.4
		C0.2,34,0,34.2,0,34.4c0,0,0,0,0,0v1.7c0,0.2,0.2,0.4,0.4,0.4c0,0,0,0,0,0h0.8v12.5c0,0.2,0.2,0.4,0.4,0.4c0,0,0,0,0,0h23.3
		c0.2,0,0.4-0.2,0.4-0.4c0,0,0,0,0,0V36.5h0.8c0.2,0,0.4-0.2,0.4-0.4c0,0,0,0,0,0v-1.7C26.6,34.2,26.4,34,26.2,34
		C26.2,34,26.2,34,26.2,34z M15,42.7h-3.3c-0.2,0-0.4,0.2-0.4,0.4c0,0,0,0,0,0v5.4h-0.8v-6.7h5.8v6.7h-0.8v-5.4
		C15.4,42.9,15.2,42.7,15,42.7C15,42.7,15,42.7,15,42.7z M6.6,38.1v2.5H3.3v-2.5H6.6z M3.3,42.3h3.3v2.5H3.3V42.3z M20,44.8v-2.5
		h3.3v2.5H20z M23.3,40.6H20v-2.5h3.3V40.6z M13.3,38.1c-1.6,0-2.9-1.3-2.9-2.9c0-1.6,1.3-2.9,2.9-2.9s2.9,1.3,2.9,2.9
		C16.2,36.8,14.9,38.1,13.3,38.1z M6.8,31.4L6.8,31.4c-0.2-0.2-0.2-0.5-0.1-0.7l5.8-5.8c0.1-0.1,0.2-0.1,0.3-0.1h1
		c0.1,0,0.2,0,0.3,0.1l5.8,5.8c0.2,0.2,0.2,0.4,0,0.6l-0.1,0.1c-0.2,0.2-0.4,0.2-0.6,0l-5.6-5.6c-0.2-0.2-0.4-0.2-0.6,0c0,0,0,0,0,0
		l-5.6,5.6C7.2,31.6,6.9,31.6,6.8,31.4L6.8,31.4z M0.8,34.8h7.1v0.8H0.8V34.8z M2.1,47.7h5.8v0.8H2.1V47.7z M18.7,48.5v-0.8h5.8v0.8
		H18.7z M25.8,35.6h-7.1v-0.8h7.1L25.8,35.6z"/>
</g>
</svg>
