<?xml version="1.0" encoding="utf-8"?>
<!-- Generator: Adobe Illustrator 26.2.1, SVG Export Plug-In . SVG Version: 6.00 Build 0)  -->
<svg version="1.1" id="Layer_1" xmlns="http://www.w3.org/2000/svg" xmlns:xlink="http://www.w3.org/1999/xlink" x="0px" y="0px"
	 viewBox="0 0 55 55" style="enable-background:new 0 0 55 55;" xml:space="preserve">
<style type="text/css">
	.st0{fill:#FFFFFF;}
	.st1{fill:none;stroke:#E2E8F3;}
	.st2{fill:none;}
	.st3{fill:#2AABE3;}
	.st4{fill:#F2CEA5;}
	.st5{fill:#FFDDBB;}
</style>
<g id="Group_16549" transform="translate(-1656 -127)">
	<g id="Ellipse_1799" transform="translate(1656 127)">
		<circle class="st0" cx="27.5" cy="27.5" r="27.5"/>
		<circle class="st1" cx="27.5" cy="27.5" r="27"/>
	</g>
	<g id="Group_6307" transform="translate(1657.969 127)">
		<path id="Path_15506" class="st2" d="M25.5,51.1C11.4,51.1,0,39.6,0,25.5S11.4,0,25.5,0C39.6,0,51,11.4,51.1,25.5
			C51.1,39.6,39.6,51.1,25.5,51.1C25.5,51.1,25.5,51.1,25.5,51.1z M16.4,32.2c0.3,1.1,0.1,1.5-1,2c-0.9,0.4-1.8,0.8-2.6,1.3
			c-1.9,1-3.6,2.4-5,4.1c-0.2,0.2-0.3,0.4,0,0.7C8,40.5,8.2,40.7,8.4,41c1.8,1.9,3.9,3.6,6.2,4.8c4,2.2,8.6,3.1,13.2,2.7
			c3.1-0.3,6.1-1.2,8.8-2.7c2.6-1.4,4.9-3.3,6.8-5.6c0.2-0.1,0.2-0.3,0.1-0.5c0,0,0,0-0.1-0.1c-1.8-2.1-4-3.8-6.5-4.9
			c-2.7-1.3-5.7-2-8.8-2.2c-0.4-0.1-0.9-0.1-1.3-0.1c-0.7,0.1-1.5,0.1-2.3,0.1C23,32.4,21.4,32,20,31.3c-4.6-2.2-7.5-6.8-7.5-11.9
			c-0.3-4.7,2-9.3,6-11.8c3.1-2.3,7.2-2.7,10.7-1.2c6.2,2.6,9.5,9.3,7.9,15.8c-0.7,3.2-2.6,6-5.1,7.9c-0.1,0.1-0.3,0.1-0.3,0.3
			c1.4,0.3,2.7,0.7,4.1,1.2c3.4,1.2,6.4,3.2,8.9,5.8c0.3,0.4,0.3,0.4,0.6-0.1c2.5-4.1,3.6-8.8,3.2-13.6c-0.2-4-1.5-7.9-3.8-11.2
			C38.6,3.6,27,0.1,16.9,4.1c-4.7,1.8-8.7,5.2-11.3,9.6c-2.7,4.6-3.8,10-3,15.2c0.4,3,1.5,5.9,3.1,8.5c0.2,0.3,0.3,0.3,0.5,0
			c1.3-1.5,2.9-2.7,4.6-3.8c1.2-0.7,2.4-1.3,3.7-1.9C15.2,31.5,16,31.6,16.4,32.2L16.4,32.2z M14.9,19.1c0,3.1,1.2,6.1,3.5,8.3
			c3.9,3.6,10.1,3.4,13.7-0.5c1.6-1.8,2.6-4,2.9-6.4c0.5-3.3-0.5-6.6-2.7-9.2c-3.6-4-9.8-4.4-13.8-0.8c-0.1,0.1-0.3,0.2-0.4,0.4
			C16,13.1,14.9,16.1,14.9,19.1L14.9,19.1z"/>
		<g id="Group_16548" transform="translate(-3.804 -3.033)">
			<path id="Path_15508" class="st3" d="M19,37.8c0.3-0.2,0.6-0.1,1.1-0.3c0.3-0.1,0.5-0.1,0.8-0.2c0.3-0.1,0.7-0.1,1.1-0.1
				c0.2,0,0.4,0,0.7,0c1.7,0.1,3.5,0,5.5,0.1c0.9,0,1.8,0,2.7-0.1c0.5,0,1.1,0,1.6,0.1C36,37.5,39.7,38.4,43,40c3,1.4,5.7,3.4,7.9,6
				c0.2,0.1,0.2,0.4,0.1,0.6c0,0,0,0-0.1,0.1c-2.3,2.8-5.1,5.1-8.2,6.8c-3.3,1.8-7,3-10.7,3.3c-5.6,0.6-11.2-0.6-16.1-3.2
				c-2.8-1.5-5.3-3.5-7.5-5.9c-0.3-0.3-0.5-0.7-0.8-0.9c-0.3-0.3-0.2-0.5,0-0.8c1.6-2.1,3.7-3.8,5.9-5.1c1.1-0.7,2.2-1.4,3.3-2
				C17.6,38.3,18.2,38,19,37.8z"/>
			<path id="Path_15509" class="st4" d="M16.5,21.4c-0.1-3.7,1.3-7.3,3.9-9.9c4.6-4.6,12-4.5,16.6,0.1c0.2,0.2,0.3,0.3,0.4,0.5
				c2.6,3,3.8,7,3.2,11c-0.3,2.9-1.5,5.6-3.4,7.7c-4.4,4.7-11.7,5-16.5,0.6C18,28.8,16.4,25.1,16.5,21.4z"/>
			<path id="Subtraction_11" class="st5" d="M28.6,34.4c-0.7,0-1.4-0.1-2.1-0.2c-0.7-0.1-1.4-0.3-2.1-0.6c-1.4-0.5-2.6-1.3-3.7-2.3
				c-0.7-0.7-1.3-1.4-1.9-2.2c-0.5-0.8-1-1.6-1.3-2.4c-0.3-0.8-0.6-1.7-0.8-2.6c-0.2-0.9-0.3-1.8-0.3-2.8c0-0.9,0.1-1.9,0.3-2.8
				c0.2-0.9,0.4-1.8,0.7-2.6c0.3-0.8,0.7-1.6,1.2-2.4c0.5-0.8,1.1-1.5,1.7-2.1c0.6-0.6,1.2-1.1,1.8-1.5c0.6-0.4,1.3-0.8,2-1.1
				c0.7-0.3,1.4-0.5,2.2-0.6c1.7-0.3,3.4-0.3,5,0.1c-2.1,0.5-4,1.6-5.5,3.1c-2.6,2.7-3.9,6.2-3.9,9.9c-0.1,3.8,1.5,7.4,4.2,10
				c1.4,1.3,3.2,2.3,5.1,2.8C30.5,34.3,29.5,34.4,28.6,34.4L28.6,34.4z"/>
		</g>
	</g>
</g>
</svg>
