<?xml version="1.0" encoding="utf-8"?>
<!-- Generator: Adobe Illustrator 26.2.0, SVG Export Plug-In . SVG Version: 6.00 Build 0)  -->
<svg version="1.1" id="Layer_1" xmlns="http://www.w3.org/2000/svg" xmlns:xlink="http://www.w3.org/1999/xlink" x="0px" y="0px"
	 viewBox="0 0 28 28" style="enable-background:new 0 0 28 28;" xml:space="preserve">
<style type="text/css">
	.st0{fill:#8B91A9;}
</style>
<path id="download_32_" class="st0" d="M21.7,10.3c0.2,1.2,0.3,2.5,0.3,3.7c0,1.2-0.1,2.5-0.3,3.7H25c0.8-2.4,0.8-5,0-7.4L21.7,10.3
	z M19.8,10.3h-4.9v7.4h4.9c0.2-1.2,0.3-2.5,0.3-3.7C20.1,12.8,20,11.5,19.8,10.3z M19.2,24.3c2.1-1.1,3.8-2.7,4.9-4.8h-2.9
	C20.9,21.2,20.2,22.8,19.2,24.3L19.2,24.3z M15.3,25.5c1.7-0.8,3.2-3,4.1-6h-4.5v6C15,25.5,15.2,25.5,15.3,25.5z M19.2,3.7
	c1,1.5,1.7,3.1,2.1,4.8h2.9C23,6.4,21.3,4.7,19.2,3.7z M15.3,2.5c-0.1,0-0.3,0-0.4,0v6h4.5C18.5,5.5,17,3.3,15.3,2.5z M6.3,10.3H3
	c-0.8,2.4-0.8,5,0,7.4h3.3C5.9,15.2,5.9,12.8,6.3,10.3z M8.2,10.3c-0.4,2.4-0.4,5,0,7.4h4.9v-7.4H8.2z M8.8,24.3
	c-1-1.5-1.6-3.1-2.1-4.8H3.8C5,21.6,6.7,23.3,8.8,24.3L8.8,24.3z M12.7,25.5c0.1,0,0.3,0,0.4,0v-6H8.6C9.5,22.5,11,24.7,12.7,25.5
	L12.7,25.5z M8.8,3.7C6.7,4.7,5,6.4,3.8,8.5h2.9C7.1,6.8,7.8,5.2,8.8,3.7z M12.7,2.5c-1.7,0.8-3.2,3-4.1,6h4.5v-6
	C13,2.5,12.8,2.5,12.7,2.5z M28,14c0,7.7-6.3,14-14,14S0,21.7,0,14S6.3,0,14,0S28,6.3,28,14L28,14z"/>
</svg>
