<?xml version="1.0" encoding="utf-8"?>
<!-- Generator: Adobe Illustrator 26.2.1, SVG Export Plug-In . SVG Version: 6.00 Build 0)  -->
<svg version="1.1" id="Layer_1" xmlns="http://www.w3.org/2000/svg" xmlns:xlink="http://www.w3.org/1999/xlink" x="0px" y="0px"
	 viewBox="0 0 22.8 12.4" style="enable-background:new 0 0 22.8 12.4;" xml:space="preserve">
<style type="text/css">
	.st0{fill:#8B91A9;}
</style>
<g id="Group_16478" transform="translate(-1415 -283)">
	<path id="Path_15744" class="st0" d="M1431.6,286.4c1,3.8,0.4,6.3-2,7.9c-2.2,1.5-5.1,1.4-7.1-0.3c-1.8-1.4-3-4.4-1.3-8
		c-1,0.7-2,1.4-3,2.2c-0.7,0.6-1.4,1.3-2.1,2c-0.2,0.2-0.8,0.2-0.9,0.1c-0.1-0.3-0.2-0.7-0.2-1c0,0,0.1-0.1,0.1-0.1
		c2.2-2.6,5.2-4.6,8.4-5.7c2.4-0.8,5.1-0.5,7.3,0.8c2.9,1.6,5.3,4,6.9,6.9c0.1,0.3,0.1,0.7-0.2,1c-0.4,0.4-0.8,0.1-1.1-0.3
		c-0.7-1-1.4-2-2.2-2.9C1433.4,288,1432.5,287.2,1431.6,286.4z M1430.6,289.8c0.2-2.4-1.6-4.5-4-4.7c-2.4-0.2-4.5,1.6-4.7,4
		c-0.2,2.4,1.6,4.5,4,4.7c0,0,0,0,0,0C1428.3,294,1430.4,292.2,1430.6,289.8L1430.6,289.8z"/>
	<ellipse id="Ellipse_1784" class="st0" cx="1426.5" cy="288" rx="4.5" ry="3"/>
</g>
</svg>
