<?xml version="1.0" encoding="utf-8"?>
<!-- Generator: Adobe Illustrator 26.2.1, SVG Export Plug-In . SVG Version: 6.00 Build 0)  -->
<svg version="1.1" id="Layer_1" xmlns="http://www.w3.org/2000/svg" xmlns:xlink="http://www.w3.org/1999/xlink" x="0px" y="0px" viewBox="0 0 17 17" style="enable-background:new 0 0 17 17;" xml:space="preserve">
	<style type="text/css">
	.st0{fill:#FFFFFF;}
	.st1{fill:#3246D3;}
	.st2{font-family:'Poppins-SemiBold';}
	.st3{font-size:12px;}
</style>
	<g>
		<g id="Path_23325">
			<path class="st0" d="M8.5,16.2c-4.3,0-7.8-3.5-7.8-7.8s3.5-7.8,7.8-7.8s7.8,3.5,7.8,7.8S12.8,16.2,8.5,16.2z" />
			<path class="st1" d="M8.5,1.5c-3.9,0-7,3.1-7,7s3.1,7,7,7s7-3.1,7-7S12.4,1.5,8.5,1.5 M8.5,0C13.2,0,17,3.8,17,8.5S13.2,17,8.5,17
			S0,13.2,0,8.5S3.8,0,8.5,0z" />
		</g>
		<text transform="matrix(1 0 0 1 6.73 13)" class="st1 st2 st3">i</text>
	</g>
</svg>