<svg xmlns="http://www.w3.org/2000/svg" width="43.647" height="49.383" viewBox="0 0 43.647 49.383">
  <g id="Group_16548" data-name="Group 16548" transform="translate(-7.394 -7.53)">
    <path id="Path_15508" data-name="Path 15508" d="M399.805,436.056c.332-.2.647-.144,1.056-.323.345-.065.492-.132.776-.164a3.41,3.41,0,0,1,1.071-.118,4.615,4.615,0,0,1,.673,0c1.738.058,3.537.007,5.455.109a17.092,17.092,0,0,0,2.736-.109,10.736,10.736,0,0,1,1.636.118,28.092,28.092,0,0,1,10.642,2.657,22.065,22.065,0,0,1,7.887,6,.427.427,0,0,1,0,.664,28.484,28.484,0,0,1-8.2,6.847,27.014,27.014,0,0,1-10.718,3.291,27.653,27.653,0,0,1-16.067-3.242,28.7,28.7,0,0,1-7.482-5.86c-.282-.305-.517-.657-.812-.948-.318-.313-.227-.543.021-.844a21.31,21.31,0,0,1,5.941-5.126,31.9,31.9,0,0,1,3.335-2.046A10.749,10.749,0,0,1,399.805,436.056Z" transform="translate(-380.853 -398.261)" fill="#2aabe3"/>
    <path id="Path_15509" data-name="Path 15509" d="M477.465,162.929A13.83,13.83,0,0,1,481.32,153a11.731,11.731,0,0,1,17.035.524,13.923,13.923,0,0,1,3.249,11,13.1,13.1,0,0,1-3.437,7.722,11.694,11.694,0,0,1-16.472.635A13.377,13.377,0,0,1,477.465,162.929Z" transform="translate(-460.996 -141.553)" fill="#f2cea5"/>
    <path id="Subtraction_11" data-name="Subtraction 11" d="M12.139,26.38a11.87,11.87,0,0,1-2.124-.192,11.682,11.682,0,0,1-2.068-.577A11.362,11.362,0,0,1,4.23,23.293a13.41,13.41,0,0,1-1.9-2.189,12.692,12.692,0,0,1-1.3-2.413,13.684,13.684,0,0,1-.76-2.6A16.279,16.279,0,0,1,0,13.34a18.691,18.691,0,0,1,.262-2.827,14.464,14.464,0,0,1,.7-2.6A12.727,12.727,0,0,1,2.145,5.548,13.177,13.177,0,0,1,3.855,3.409a11.263,11.263,0,0,1,1.816-1.5A11.414,11.414,0,0,1,7.7.849,11.751,11.751,0,0,1,9.88.212,12.018,12.018,0,0,1,14.9.325,11.4,11.4,0,0,0,9.4,3.41a13.857,13.857,0,0,0-3.855,9.93,13.384,13.384,0,0,0,4.229,9.953,11.487,11.487,0,0,0,5.138,2.759,11.879,11.879,0,0,1-2.775.329Z" transform="translate(16.469 8.033)" fill="#fdb" stroke="rgba(0,0,0,0)" stroke-miterlimit="10" stroke-width="1"/>
  </g>
</svg>
