<?xml version="1.0" encoding="utf-8"?>
<!-- Generator: Adobe Illustrator 26.0.2, SVG Export Plug-In . SVG Version: 6.00 Build 0)  -->
<svg version="1.1" id="Layer_1" xmlns="http://www.w3.org/2000/svg" xmlns:xlink="http://www.w3.org/1999/xlink" x="0px" y="0px"
	 viewBox="0 0 24 24" style="enable-background:new 0 0 24 24;" xml:space="preserve">
<style type="text/css">
	.st0{fill:#8B91A9;}
</style>
<g id="download_6_">
	<path id="Path_18141" class="st0" d="M22.43,11.01c0.53-0.2,1.03-0.42,1.55-0.66c-0.13-1-0.39-1.98-0.77-2.91
		c-0.55,0.04-1.12,0.11-1.68,0.2c-0.28-0.6-0.61-1.18-0.99-1.72c0.35-0.43,0.69-0.88,1.01-1.35c-0.61-0.8-1.33-1.51-2.12-2.12
		c-0.47,0.32-0.92,0.66-1.35,1.01c-0.54-0.39-1.12-0.72-1.72-0.99c0.09-0.55,0.16-1.12,0.2-1.67c-0.93-0.38-1.91-0.64-2.91-0.77
		c-0.24,0.51-0.46,1.02-0.66,1.55c-0.66-0.06-1.32-0.06-1.98,0c-0.2-0.53-0.42-1.03-0.66-1.55c-1,0.13-1.98,0.39-2.91,0.77
		c0.04,0.55,0.11,1.12,0.2,1.68c-0.6,0.28-1.18,0.61-1.72,0.99C5.49,3.11,5.04,2.77,4.57,2.45C3.77,3.06,3.06,3.78,2.45,4.57
		c0.32,0.47,0.66,0.92,1.01,1.35C3.07,6.46,2.74,7.04,2.46,7.64c-0.55-0.09-1.12-0.16-1.67-0.2c-0.38,0.93-0.64,1.91-0.77,2.91
		c0.51,0.24,1.02,0.46,1.55,0.66c-0.06,0.66-0.06,1.32,0,1.98c-0.53,0.2-1.03,0.42-1.55,0.66c0.13,1,0.39,1.98,0.77,2.91
		c0.55-0.04,1.12-0.11,1.68-0.2c0.28,0.6,0.61,1.18,0.99,1.72c-0.35,0.43-0.69,0.88-1.01,1.35c0.61,0.8,1.33,1.51,2.12,2.12
		c0.47-0.32,0.92-0.66,1.35-1.01c0.54,0.39,1.12,0.72,1.72,0.99c-0.09,0.55-0.16,1.12-0.2,1.67c0.93,0.38,1.91,0.64,2.91,0.77
		c0.24-0.51,0.46-1.02,0.66-1.55c0.66,0.06,1.32,0.06,1.98,0c0.2,0.53,0.42,1.03,0.66,1.55c1-0.13,1.98-0.39,2.91-0.77
		c-0.04-0.55-0.11-1.12-0.2-1.68c0.6-0.28,1.18-0.61,1.72-0.99c0.43,0.35,0.88,0.69,1.35,1.01c0.8-0.61,1.51-1.33,2.12-2.12
		c-0.32-0.47-0.66-0.92-1.01-1.35c0.39-0.54,0.72-1.12,0.99-1.72c0.55,0.09,1.12,0.16,1.67,0.2c0.38-0.93,0.64-1.91,0.77-2.91
		c-0.51-0.24-1.02-0.46-1.55-0.66C22.5,12.33,22.49,11.67,22.43,11.01z M16.42,18.56v-3.39c-0.13-1.78-1.62-3.15-3.4-3.12
		l-0.96,1.17l0.97,4.46l-1.08,1.1l-1.08-1.1l0.97-4.46l-0.97-1.18c-1.78-0.02-3.27,1.35-3.4,3.12v3.28C3.9,15.93,3.05,11,5.57,7.43
		s7.45-4.41,11.01-1.9s4.41,7.45,1.9,11.01C17.92,17.34,17.22,18.02,16.42,18.56L16.42,18.56z M14.59,9.02
		c0,1.46-1.18,2.64-2.64,2.64c-1.46,0-2.64-1.18-2.64-2.64c0-1.46,1.18-2.64,2.64-2.64l0,0C13.41,6.38,14.59,7.56,14.59,9.02z"/>
</g>
</svg>
