<?xml version="1.0" encoding="utf-8"?>
<!-- Generator: Adobe Illustrator 26.2.0, SVG Export Plug-In . SVG Version: 6.00 Build 0)  -->
<svg version="1.1" id="Layer_1" xmlns="http://www.w3.org/2000/svg" xmlns:xlink="http://www.w3.org/1999/xlink" x="0px" y="0px"
	 viewBox="0 0 33 33" style="enable-background:new 0 0 33 33;" xml:space="preserve">
<style type="text/css">
	.st0{fill:#2C3652;}
</style>
<g id="download_33_" transform="translate(-1 -1)">
	<path id="Path_16004" class="st0" d="M9.8,23.2H11l-0.6-1.5L9.8,23.2z"/>
	<path id="Path_16005" class="st0" d="M14,16.8V14H2.6c-0.8,0-1.4,0.6-1.4,1.4v14.2c0,0.8,0.6,1.4,1.4,1.4c0,0,0,0,0,0h2.1v2.8L9,31
		h9.2c0.8,0,1.4-0.6,1.4-1.4v-9.9h-2.8C15.2,19.6,14,18.4,14,16.8L14,16.8z M11.9,25.5l-0.4-1H9.3l-0.4,1C8.8,25.9,8.4,26.1,8,26
		S7.5,25.4,7.6,25l0,0l2.1-5.7c0.1-0.4,0.5-0.6,0.9-0.4c0.2,0.1,0.4,0.2,0.4,0.4l2.1,5.7c0.1,0.4,0,0.8-0.4,0.9
		C12.4,26.1,12,25.9,11.9,25.5L11.9,25.5L11.9,25.5z"/>
	<path id="Path_16006" class="st0" d="M32.4,1.2H16.8c-0.8,0-1.4,0.6-1.4,1.4v14.2c0,0.8,0.6,1.4,1.4,1.4c0,0,0,0,0,0H26l4.2,2.8
		v-2.8h2.1c0.8,0,1.4-0.6,1.4-1.4V2.6C33.8,1.8,33.2,1.2,32.4,1.2z M27.4,7.6c-0.2,0,0.1,1.4-1.8,3.4c0.4,0.3,0.9,0.6,1.4,0.9
		c0.3,0.2,0.4,0.6,0.2,1c-0.2,0.3-0.6,0.4-0.9,0.3c-0.6-0.3-1.3-0.7-1.8-1.2c-0.6,0.5-1.2,0.9-1.8,1.2c-0.4,0.2-0.8,0-0.9-0.4
		c-0.1-0.3,0-0.7,0.3-0.9c0.5-0.3,1-0.6,1.4-0.9c-0.3-0.3-0.5-0.6-0.7-0.9c-0.2-0.3-0.1-0.8,0.3-1C23.4,9,23.8,9,24,9.3
		c0.2,0.2,0.4,0.5,0.6,0.7c0.7-0.7,1.1-1.5,1.3-2.4h-4.2c-0.4,0-0.7-0.3-0.7-0.7s0.3-0.7,0.7-0.7h2.1V5.5c0-0.4,0.3-0.7,0.7-0.7
		s0.7,0.3,0.7,0.7v0.7h2.1c0.4,0,0.7,0.3,0.7,0.7S27.8,7.6,27.4,7.6L27.4,7.6z"/>
</g>
</svg>
