<?xml version="1.0" encoding="utf-8"?>
<!-- Generator: Adobe Illustrator 26.2.0, SVG Export Plug-In . SVG Version: 6.00 Build 0)  -->
<svg version="1.1" id="Layer_1" xmlns="http://www.w3.org/2000/svg" xmlns:xlink="http://www.w3.org/1999/xlink" x="0px" y="0px"
	 viewBox="0 0 28 29" style="enable-background:new 0 0 28 29;" xml:space="preserve">
<style type="text/css">
	.st0{fill:#2C3652;}
</style>
<g id="download_39_" transform="translate(-1.995 -4)">
	<path id="Path_16013" class="st0" d="M2.5,12.7h27.1c0.3,0,0.5-0.2,0.5-0.5c0-0.2-0.1-0.3-0.2-0.4L16.2,4.3c-0.1-0.1-0.3-0.1-0.4,0
		L2.2,11.8c-0.2,0.1-0.3,0.4-0.2,0.6C2.1,12.6,2.3,12.7,2.5,12.7L2.5,12.7z M16,7.1c0.8,0,1.4,0.6,1.4,1.4c0,0.8-0.6,1.4-1.4,1.4
		s-1.4-0.6-1.4-1.4l0,0C14.6,7.7,15.2,7.1,16,7.1z"/>
	<path id="Path_16014" class="st0" d="M29.5,29.9h-0.9v-1.4c0-0.3-0.2-0.5-0.5-0.5H3.9c-0.3,0-0.5,0.2-0.5,0.5v1.4H2.5
		c-0.3,0-0.5,0.2-0.5,0.5v1.9c0,0.3,0.2,0.5,0.5,0.5h27.1c0.3,0,0.5-0.2,0.5-0.5v-1.9C30,30.1,29.8,29.9,29.5,29.9z"/>
	<path id="Path_16015" class="st0" d="M18.2,26.3l-0.8-10.2l0.4-1h-3.6l0.4,1l-0.8,10.2H18.2z"/>
	<path id="Path_16016" class="st0" d="M22.6,15.1l0.4,1l-0.8,10.2h4.4l-0.8-10.2l0.4-1H22.6z"/>
	<path id="Path_16017" class="st0" d="M9.8,26.3L9,16.1l0.4-1H5.8l0.4,1L5.4,26.3H9.8z"/>
</g>
</svg>
