<?xml version="1.0" encoding="utf-8"?>
<!-- Generator: Adobe Illustrator 26.2.0, SVG Export Plug-In . SVG Version: 6.00 Build 0)  -->
<svg version="1.1" id="Layer_1" xmlns="http://www.w3.org/2000/svg" xmlns:xlink="http://www.w3.org/1999/xlink" x="0px" y="0px"
	 viewBox="0 0 22 39" style="enable-background:new 0 0 22 39;" xml:space="preserve">
<style type="text/css">
	.st0{fill:#2C3652;}
</style>
<path id="download_35_" class="st0" d="M17.7,0.5H4.3c-2.2,0-4,1.8-4,4v30c0,2.2,1.8,4,4,4h13.5c2.2,0,4-1.8,4-4v-30
	C21.8,2.3,20,0.5,17.7,0.5z M9,1.8h4c0.5,0.1,0.9,0.5,0.8,1c0.1,0.5-0.3,0.9-0.8,1H9c-0.5-0.1-0.9-0.5-0.8-1C8.1,2.3,8.5,1.8,9,1.8z
	 M11,37.1c-1.1,0-2.1-0.9-2.1-2.1c0-1.1,0.9-2.1,2.1-2.1c1.1,0,2.1,0.9,2.1,2.1c0,0,0,0,0,0C13.1,36.1,12.1,37.1,11,37.1z
	 M19.5,31.7H2.4V4.8h17.1V31.7z"/>
</svg>
