<?xml version="1.0" encoding="utf-8"?>
<!-- Generator: Adobe Illustrator 26.2.0, SVG Export Plug-In . SVG Version: 6.00 Build 0)  -->
<svg version="1.1" id="Layer_1" xmlns="http://www.w3.org/2000/svg" xmlns:xlink="http://www.w3.org/1999/xlink" x="0px" y="0px"
	 viewBox="0 0 21 20" style="enable-background:new 0 0 21 20;" xml:space="preserve">
<style type="text/css">
	.st0{fill:none;stroke:#8B91A9;}
	.st1{fill:#8B91A9;}
</style>
<g id="Group_16826" transform="translate(-497.85 -217.367)">
	<path id="Path_15968" class="st0" d="M507.1,226.6c-2.4-0.8-4.8-1.6-7.3-2.4c-0.1-0.1-0.3-0.1-0.4-0.1c-0.5,0-0.9,0.5-0.8,1
		c0,0,0,0,0,0c0,2.6,0,5.1,0,7.7c0,0.5,0.3,0.9,0.7,1l6.3,2.1c0.5,0.2,1.1,0.4,1.7,0.5c0,0,0-0.1,0-0.1c0-3.2,0-6.4,0-9.5
		C507.3,226.7,507.3,226.6,507.1,226.6z"/>
	<path id="Path_15969" class="st0" d="M518.1,224.9c-0.1-0.5-0.6-0.8-1.2-0.7c-0.1,0-0.1,0-0.2,0.1c-2.4,0.8-4.7,1.6-7.1,2.4
		c-0.2,0-0.3,0.2-0.3,0.4c0,2.9,0,5.8,0,8.7c0,0.3,0,0.6,0,0.9c0.1,0,0.1,0,0.2-0.1c2.6-0.9,5.2-1.7,7.9-2.6c0.4-0.1,0.7-0.5,0.7-1
		c0-2.6,0-5.2,0-7.8C518.1,225,518.1,224.9,518.1,224.9z"/>
	<path id="Path_15970" class="st1" d="M512.4,222.7c0.6,0.2,1.2,0.4,1.8,0.4c0.4,0,0.8-0.1,1.1-0.1c0.6-0.1,1.1-0.3,1.5-0.7
		c0.3-0.3,0.3-0.8,0.1-1.1c0,0,0,0-0.1-0.1c-0.2-0.2-0.5-0.4-0.9-0.6c-1-0.4-2.1-0.4-3.2-0.2c-0.5,0.1-0.9,0.3-1.3,0.7
		c-0.3,0.3-0.4,0.8-0.1,1.1c0,0,0.1,0.1,0.1,0.1C511.8,222.4,512.1,222.6,512.4,222.7z"/>
	<path id="Path_15971" class="st1" d="M499.9,222.3c0.2,0.1,0.3,0.3,0.5,0.4c0.6,0.3,1.3,0.4,2,0.5c0.4-0.1,0.9-0.1,1.3-0.2
		c0.5-0.1,1-0.3,1.3-0.7c0.3-0.3,0.4-0.8,0.1-1.1c0,0,0,0-0.1-0.1c-0.2-0.2-0.4-0.3-0.6-0.4c-1.1-0.5-2.3-0.6-3.4-0.3
		c-0.5,0.1-0.9,0.3-1.3,0.6c-0.4,0.3-0.4,0.8-0.1,1.1C499.8,222.2,499.8,222.2,499.9,222.3z"/>
	<path id="Path_15972" class="st1" d="M511,224.2c0.3-0.3,0.4-0.8,0.1-1.1c0,0-0.1-0.1-0.1-0.1c-0.2-0.2-0.5-0.4-0.8-0.5
		c-0.6-0.2-1.2-0.4-1.9-0.4c-0.4,0-0.8,0.1-1.1,0.1c-0.6,0.1-1.1,0.3-1.5,0.7c-0.3,0.3-0.4,0.8-0.1,1.1c0,0,0.1,0.1,0.1,0.1
		c0.2,0.2,0.5,0.4,0.8,0.5c1,0.4,2.1,0.4,3.2,0.1C510.2,224.8,510.6,224.5,511,224.2z"/>
	<path id="Path_15973" class="st1" d="M506.1,220.6c0.8,0.4,1.6,0.6,2.4,0.5c0.5-0.1,0.9-0.1,1.4-0.3c0.4-0.1,0.7-0.3,1-0.6
		c0.4-0.3,0.4-0.7,0.2-1.1c-0.1-0.1-0.1-0.1-0.2-0.2c-0.2-0.2-0.4-0.3-0.6-0.4c-1.3-0.6-2.7-0.6-4,0c-0.3,0.1-0.5,0.3-0.7,0.5
		c-0.3,0.3-0.3,0.8-0.1,1.1c0,0,0,0,0.1,0.1C505.8,220.4,506,220.5,506.1,220.6z"/>
</g>
</svg>
