<?xml version="1.0" encoding="utf-8"?>
<!-- Generator: Adobe Illustrator 26.0.2, SVG Export Plug-In . SVG Version: 6.00 Build 0)  -->
<svg version="1.1" id="Layer_1" xmlns="http://www.w3.org/2000/svg" xmlns:xlink="http://www.w3.org/1999/xlink" x="0px" y="0px"
	 viewBox="0 0 24 24" style="enable-background:new 0 0 24 24;" xml:space="preserve">
<style type="text/css">
	.st0{fill:#8B91A9;}
</style>
<g id="download_4_" transform="translate(-1 -1)">
	<path id="Path_18133" class="st0" d="M12.99,1.29c-2.53,0-4.58,2.06-4.58,4.59c0,0.01,0,0.01,0,0.02C8.42,6.87,8.73,7.82,9.3,8.61
		c-0.15-1.29,0.38-2.56,1.39-3.37c0.49-0.8,1.37-1.29,2.31-1.28c0.95,0,1.83,0.49,2.34,1.28c1.01,0.81,1.54,2.08,1.39,3.37
		c1.5-2.06,1.04-4.95-1.03-6.44C14.91,1.59,13.97,1.29,12.99,1.29z"/>
	<circle id="Ellipse_1607" class="st0" cx="12.99" cy="6.74" r="2.05"/>
	<path id="Path_18134" class="st0" d="M12.99,24.71c2.55,0,4.61-2.07,4.61-4.61c0-0.97-0.31-1.92-0.88-2.71
		c0.15,1.28-0.37,2.54-1.39,3.33c-0.51,0.8-1.39,1.29-2.34,1.28c-0.95,0-1.83-0.49-2.34-1.28c-1-0.8-1.53-2.06-1.39-3.33
		c-1.5,2.06-1.04,4.95,1.03,6.44C11.07,24.41,12.02,24.71,12.99,24.71L12.99,24.71z"/>
	<circle id="Ellipse_1608" class="st0" cx="12.99" cy="19.26" r="2.05"/>
	<path id="Path_18135" class="st0" d="M20.09,8.42c-0.97,0-1.92,0.31-2.71,0.88c1.29-0.15,2.56,0.38,3.37,1.39
		c0.8,0.51,1.29,1.39,1.28,2.34c0,0.94-0.48,1.81-1.28,2.31c-0.81,1.01-2.08,1.54-3.37,1.39c2.05,1.5,4.93,1.06,6.43-0.99
		c1.5-2.05,1.06-4.93-0.99-6.43C22.03,8.73,21.08,8.42,20.09,8.42z"/>
	<circle id="Ellipse_1609" class="st0" cx="19.25" cy="13" r="2.05"/>
	<path id="Path_18136" class="st0" d="M5.89,17.61c0.97,0,1.92-0.31,2.71-0.88c-1.29,0.15-2.56-0.38-3.37-1.39
		c-1.29-0.83-1.67-2.55-0.84-3.84c0.22-0.34,0.5-0.63,0.84-0.84c0.79-1.01,2.05-1.54,3.33-1.39c-2.07-1.47-4.94-0.99-6.42,1.08
		s-0.99,4.94,1.08,6.42C4,17.31,4.94,17.61,5.89,17.61z"/>
	<circle id="Ellipse_1610" class="st0" cx="6.73" cy="13" r="2.05"/>
</g>
</svg>
