<?xml version="1.0" encoding="utf-8"?>
<!-- Generator: Adobe Illustrator 26.2.0, SVG Export Plug-In . SVG Version: 6.00 Build 0)  -->
<svg version="1.1" id="Layer_1" xmlns="http://www.w3.org/2000/svg" xmlns:xlink="http://www.w3.org/1999/xlink" x="0px" y="0px"
	 viewBox="0 0 34 34" style="enable-background:new 0 0 34 34;" xml:space="preserve">
<style type="text/css">
	.st0{fill:#2C3652;}
</style>
<g>
	<path class="st0" d="M14.8,0.1c-8,0-14.5,6.5-14.5,14.5s6.5,14.5,14.5,14.5s14.5-6.5,14.5-14.5S22.8,0.1,14.8,0.1z M14.8,24.9
		c-5.7,0-10.3-4.6-10.3-10.3S9.2,4.3,14.8,4.3s10.3,4.6,10.3,10.3S20.5,24.9,14.8,24.9z"/>
	<path class="st0" d="M29.6,33.3l-7.9-7c-0.9-0.8-1-2.3-0.2-3.2l0.3-0.4c0.8-0.9,2.3-1,3.2-0.2l7.9,7c0.9,0.8,1,2.3,0.2,3.2
		l-0.3,0.4C31.9,34.1,30.5,34.1,29.6,33.3z"/>
</g>
</svg>
