<svg xmlns="http://www.w3.org/2000/svg" width="846.539" height="290.066" viewBox="0 0 846.539 290.066">
  <g id="Group_12824" data-name="Group 12824" transform="translate(-848.3 -742.43)">
    <g id="Group_12823" data-name="Group 12823" transform="translate(848.3 742.43)">
      <path id="Path_18306" data-name="Path 18306" d="M1139.366,918.786v200.877l-241.668.85c.607-8.781-39.172-124.6,11.816-190.761,72.355-93.923,134.188-17.967,215.81-11.371A134.175,134.175,0,0,0,1139.366,918.786Z" transform="translate(-870.315 -830.447)" fill="#e2ebfd"/>
      <path id="Path_18307" data-name="Path 18307" d="M2122.043,1027.762c-.324,2.509-26.507-.4-26.87,2.064l-163.365.566h-365.05V830.77a129.518,129.518,0,0,0,14.042-1.133c16.025-2.186,32.819-7.688,50.624-18.048,184.286-106.873,334.336-77.858,418.588,5.585a250.9,250.9,0,0,1,72.031,210.589Z" transform="translate(-1297.707 -742.43)" fill="#fff"/>
      <path id="Path_18308" data-name="Path 18308" d="M2124.066,1419.968a252.074,252.074,0,0,1-2.023,33.021c-.324,2.508-26.507-.405-26.87,2.064l-163.365.566h-365.05v-.162l365.05-1.255,163.365-.567c.363-2.469,26.546.446,26.87-2.064A252.029,252.029,0,0,0,2124.066,1419.968Z" transform="translate(-1297.707 -1166.241)" fill="#e2ebfd" opacity="0.6"/>
      <path id="Path_18309" data-name="Path 18309" d="M2075.679,982.293v152.66H1604.256V1002.109h36.137V965.854h36.137v48.981h29.255v-10.945h50.962v18.5h22.179V980.84H1838.3V909.582h46.944v38.005h10.706V915.751h46.944v49.04h42.547V934.7h45.5v30.094h8.484v17.5Z" transform="translate(-1321.162 -846.987)" fill="#dde8fd"/>
      <g id="Group_12800" data-name="Group 12800" transform="translate(169.245 101.223)">
        <path id="Rectangle_5834" data-name="Rectangle 5834" d="M12.474,0H36.446A12.473,12.473,0,0,1,48.919,12.473V34.985A12.474,12.474,0,0,1,36.445,47.459H12.473A12.473,12.473,0,0,1,0,34.986V12.474A12.474,12.474,0,0,1,12.474,0Z" fill="#93b3f4"/>
        <path id="Rectangle_5835" data-name="Rectangle 5835" d="M11.392,0h21.9A11.392,11.392,0,0,1,44.68,11.392V31.954A11.393,11.393,0,0,1,33.288,43.347h-21.9A11.392,11.392,0,0,1,0,31.955V11.392A11.392,11.392,0,0,1,11.392,0Z" transform="translate(2.119 2.056)" fill="#e2ebfd"/>
        <g id="Group_12796" data-name="Group 12796" transform="translate(5.775 5.374)">
          <g id="Group_12794" data-name="Group 12794" transform="translate(17.671)">
            <path id="Path_18310" data-name="Path 18310" d="M1362.852,1028.094a1.013,1.013,0,1,1,1.013,1.013A1.013,1.013,0,0,1,1362.852,1028.094Z" transform="translate(-1362.852 -1027.081)" fill="#93b3f4"/>
            <path id="Path_18311" data-name="Path 18311" d="M1384.472,1032.741a1.014,1.014,0,1,1,.394,1.378A1.014,1.014,0,0,1,1384.472,1032.741Z" transform="translate(-1376.296 -1030.295)" fill="#93b3f4"/>
            <path id="Path_18312" data-name="Path 18312" d="M1402.617,1048.2a1.013,1.013,0,1,1-.3,1.4A1.013,1.013,0,0,1,1402.617,1048.2Z" transform="translate(-1387.435 -1040.192)" fill="#93b3f4"/>
            <path id="Path_18313" data-name="Path 18313" d="M1410.965,1071.476a1.013,1.013,0,1,1-1.013,1.013A1.014,1.014,0,0,1,1410.965,1071.476Z" transform="translate(-1392.314 -1054.851)" fill="#93b3f4"/>
            <path id="Path_18314" data-name="Path 18314" d="M1405.037,1097.674a1.013,1.013,0,1,1-1.433,0A1.014,1.014,0,0,1,1405.037,1097.674Z" transform="translate(-1388.157 -1071.052)" fill="#93b3f4"/>
            <path id="Path_18315" data-name="Path 18315" d="M1388.045,1114.711a1.013,1.013,0,1,1-1.433,0A1.013,1.013,0,0,1,1388.045,1114.711Z" transform="translate(-1377.529 -1081.709)" fill="#93b3f4"/>
            <path id="Path_18316" data-name="Path 18316" d="M1362.852,1122.3a1.013,1.013,0,1,1,1.013,1.013A1.013,1.013,0,0,1,1362.852,1122.3Z" transform="translate(-1362.852 -1086.005)" fill="#93b3f4"/>
          </g>
          <g id="Group_12795" data-name="Group 12795" transform="translate(0 1.924)">
            <path id="Path_18317" data-name="Path 18317" d="M1343.17,1032.741a1.013,1.013,0,1,0-.393,1.378A1.014,1.014,0,0,0,1343.17,1032.741Z" transform="translate(-1331.682 -1032.219)" fill="#93b3f4"/>
            <path id="Path_18318" data-name="Path 18318" d="M1325.026,1048.2a1.013,1.013,0,1,0,.3,1.4A1.014,1.014,0,0,0,1325.026,1048.2Z" transform="translate(-1320.543 -1042.116)" fill="#93b3f4"/>
            <path id="Path_18319" data-name="Path 18319" d="M1316.678,1071.476a1.013,1.013,0,1,0,1.013,1.013A1.013,1.013,0,0,0,1316.678,1071.476Z" transform="translate(-1315.665 -1056.775)" fill="#93b3f4"/>
            <path id="Path_18320" data-name="Path 18320" d="M1322.606,1097.674a1.013,1.013,0,1,0,1.433,0A1.013,1.013,0,0,0,1322.606,1097.674Z" transform="translate(-1319.821 -1072.977)" fill="#93b3f4"/>
            <path id="Path_18321" data-name="Path 18321" d="M1339.6,1114.711a1.013,1.013,0,1,0,1.433,0A1.013,1.013,0,0,0,1339.6,1114.711Z" transform="translate(-1330.45 -1083.633)" fill="#93b3f4"/>
          </g>
        </g>
        <g id="Group_12799" data-name="Group 12799" transform="translate(24.186 10.353)">
          <path id="Path_18322" data-name="Path 18322" d="M1364.828,1072.489a1.013,1.013,0,1,1,1.013,1.013A1.013,1.013,0,0,1,1364.828,1072.489Z" transform="translate(-1364.828 -1059.83)" fill="#93b3f4"/>
          <g id="Group_12797" data-name="Group 12797" transform="translate(0.875)">
            <rect id="Rectangle_5836" data-name="Rectangle 5836" width="0.277" height="12.659" fill="#93b3f4"/>
          </g>
          <g id="Group_12798" data-name="Group 12798" transform="translate(0.63 7.046)">
            <rect id="Rectangle_5837" data-name="Rectangle 5837" width="8.532" height="0.83" transform="matrix(0.786, -0.618, 0.618, 0.786, 0, 5.27)" fill="#93b3f4"/>
          </g>
        </g>
      </g>
      <path id="Path_18323" data-name="Path 18323" d="M1557.336,975.3v199.707h-28.09V976.018A128.434,128.434,0,0,0,1557.336,975.3Z" transform="translate(-1274.243 -888.094)" fill="#d3e0fc"/>
      <path id="Path_18324" data-name="Path 18324" d="M2885.291,975.2v178.985H2857.2V942.015A248.639,248.639,0,0,1,2885.291,975.2Z" transform="translate(-2104.9 -867.274)" fill="#d3e0fc"/>
      <path id="Rectangle_5838" data-name="Rectangle 5838" d="M1.82,0h842.9a1.819,1.819,0,0,1,1.819,1.819v0a1.819,1.819,0,0,1-1.819,1.819H1.82A1.82,1.82,0,0,1,0,1.82v0A1.82,1.82,0,0,1,1.82,0Z" transform="translate(0 286.142)" fill="#3246d3"/>
      <g id="Group_12811" data-name="Group 12811" transform="translate(301.619 151.919)">
        <path id="Path_18325" data-name="Path 18325" d="M1658.232,1320.352h-4.505l5.517,69.825H1670.2Z" transform="translate(-1653.727 -1255.848)" fill="#3a49cd"/>
        <g id="Group_12810" data-name="Group 12810" transform="translate(0)">
          <path id="Path_18326" data-name="Path 18326" d="M1885.7,1231.078l-.967.2a8.012,8.012,0,0,1-9.412-6.248l-1.021-5.055a8.011,8.011,0,0,1,6.247-9.412l.967-.195a8.011,8.011,0,0,1,9.412,6.248l1.022,5.055A8.012,8.012,0,0,1,1885.7,1231.078Z" transform="translate(-1791.599 -1186.95)" fill="#060632"/>
          <path id="Path_18327" data-name="Path 18327" d="M1653.727,1309.489s24.6-11.549,58.313-3.866l-53.807,3.866Z" transform="translate(-1653.727 -1244.985)" fill="#3a49cd"/>
          <path id="Path_18328" data-name="Path 18328" d="M1677.727,1381.444l-11.97-70.491s37.7-12.66,66.944,0L1750.1,1381Z" transform="translate(-1661.252 -1246.45)" fill="#bed2fa"/>
          <g id="Group_12802" data-name="Group 12802" transform="translate(219.528 100.909)">
            <path id="Path_18329" data-name="Path 18329" d="M2307.294,1429.824c-.669,7.648-4.988,10.009-6.886,9.806s-13.006-4.443-13.247-2.888,6.443,6.64,11.124,6.878c0,0-8.839,9.749-14.713,6.935s-6.375-7.273-10.037-8.945-6.787-1.668-5.276.039,8.14,3.362,10.233,7.068c.495.874.977,1.682,1.346,2.393l-12.369-.025c-3.922-1.949-7.226-4.636-7.472-7.535-.019-.221-.036-.432-.052-.634l-.381-4.458s-6.352-7.409-3.05-13.556a9.406,9.406,0,0,1,2.516-2.92s5.92-3.584,10.747-3.292c0,0-3.741,6.272-4.793,10-.372,1.313-.408,2.311.167,2.608.63.326,1.446-.62,2.29-2.137,2.116-3.8,4.408-11.19,4.408-11.19s3.559-.346,7.61-.4c1.817-.023,3.733.012,5.47.164a14.718,14.718,0,0,1,4.724,1.011s-.242.2-.647.537c-.6.506-1.573,1.327-2.649,2.279-3.194,2.825-7.345,6.809-5.794,7.168,1.256.291,5.2-2.052,8.708-4.377,3.267-2.162,6.156-4.312,6.156-4.312S2307.962,1422.176,2307.294,1429.824Z" transform="translate(-2249.712 -1417.565)" fill="#6d89cf"/>
            <g id="Group_12801" data-name="Group 12801" transform="translate(0 12.406)">
              <path id="Path_18330" data-name="Path 18330" d="M2295.158,1450.754s-34.052-1.313-41.572,8.426a24.629,24.629,0,0,1-6.781,9.517l-.8,2.173s5.9-6.221,8.012-6.6C2254.02,1464.272,2250.718,1452.207,2295.158,1450.754Z" transform="translate(-2243.737 -1450.695)" fill="#6d89cf"/>
              <path id="Path_18331" data-name="Path 18331" d="M2244.443,1497.278c-.292.32-.729.756-1.355,1.333l-.013.013c-.217.2-.428.417-.634.648a12.576,12.576,0,0,0-.907,1.14l-1.591,0a19.086,19.086,0,0,1,3.069-3.075l0,0C2243.139,1497.256,2246.073,1495.483,2244.443,1497.278Z" transform="translate(-2239.942 -1479.333)" fill="#6d89cf"/>
            </g>
          </g>
          <g id="Group_12804" data-name="Group 12804" transform="translate(141.814 73.553)">
            <path id="Path_18332" data-name="Path 18332" d="M2082.809,1380.093s13.739-7.694,7.327-18.135c0,0-5.128-6.411-10.624-8.06,0,0,2.931,15.57,0,15.937s-2.015-17.585-2.015-17.585-14.471-6.961-20.15-6.411c0,0,8.976,15.2,6.045,14.837s-13.005-15.753-13.005-15.753-14.838-2.748-17.219,6.045,1.465,13.189,3.664,13.738,16.3.366,15.937,2.2-9.892,4.763-15.2,3.114c0,0,5.862,14.471,13.555,13.738s10.075-5.5,14.837-5.862,8.243.916,5.862,2.2-10.441.42-14.288,3.69-6.961,5.285.184,6.751,19.965.55,22.53-4.946Z" transform="translate(-2032.417 -1344.516)" fill="#6d89cf"/>
            <g id="Group_12803" data-name="Group 12803" transform="translate(7.529 9.199)">
              <path id="Path_18333" data-name="Path 18333" d="M2052.522,1369.08s38.467,12.456,42.863,26.378a29.229,29.229,0,0,0,3.665,13.372v2.747s-4.03-9.342-6.229-10.624C2092.821,1400.953,2101.43,1388.863,2052.522,1369.08Z" transform="translate(-2052.522 -1369.08)" fill="#6d89cf"/>
              <path id="Path_18334" data-name="Path 18334" d="M2177.258,1484.232l-2.2,0a28.674,28.674,0,0,0-1.522-9.469h0c-.136-.341-.282-.667-.441-.979l0-.01c-.456-.893-.764-1.552-.959-2.028v0c-1.125-2.757,1.563.629,1.563.629A25.785,25.785,0,0,1,2177.258,1484.232Z" transform="translate(-2127.167 -1432.618)" fill="#6d89cf"/>
            </g>
          </g>
          <g id="Group_12806" data-name="Group 12806" transform="translate(202.157 51.623)">
            <path id="Path_18335" data-name="Path 18335" d="M2205.46,1332.851s-18.109-10.141-9.658-23.9c0,0,6.76-8.451,14-10.624,0,0-3.863,20.524,0,21.007s2.656-23.18,2.656-23.18,19.075-9.175,26.561-8.451c0,0-11.832,20.041-7.968,19.559s17.144-20.766,17.144-20.766,19.558-3.622,22.7,7.968-1.931,17.385-4.829,18.11-21.49.483-21.008,2.9,13.039,6.278,20.041,4.1c0,0-7.726,19.076-17.868,18.109s-13.28-7.244-19.559-7.727-10.866,1.207-7.727,2.9,13.763.554,18.834,4.865,9.176,6.966-.241,8.9-26.32.724-29.7-6.519Z" transform="translate(-2193.555 -1285.955)" fill="#93b3f4"/>
            <g id="Group_12805" data-name="Group 12805" transform="translate(2.341 12.126)">
              <path id="Path_18336" data-name="Path 18336" d="M2273.781,1318.335s-50.707,16.42-56.5,34.771a38.524,38.524,0,0,1-4.829,17.627v3.622s5.312-12.315,8.21-14.005C2220.66,1360.349,2209.311,1344.413,2273.781,1318.335Z" transform="translate(-2207.715 -1318.335)" fill="#6d89cf"/>
              <path id="Path_18337" data-name="Path 18337" d="M2206.6,1453.654s0,0,0,.006c-.257.631-.664,1.5-1.267,2.681a.021.021,0,0,1,0,.007c-.209.409-.4.84-.58,1.287v0c-1.736,4.35-2.08,10.354-2.015,15.085l-2.91-.006a34.045,34.045,0,0,1,4.718-18.231l0,0C2204.62,1454.389,2208.066,1450.067,2206.6,1453.654Z" transform="translate(-2199.806 -1402.09)" fill="#6d89cf"/>
            </g>
          </g>
          <path id="Path_18338" data-name="Path 18338" d="M1856.06,1373.089h-68.88a73.443,73.443,0,0,1-2.693-7.851,133.633,133.633,0,0,1-4.045-21.852c-.01-.094-.021-.191-.032-.285a255.054,255.054,0,0,1-1.209-32.661c.107-4.3.278-6.948.288-7.076v0c.146-.063.3-.122.442-.181,3.653-1.533,7.156-2.853,10.513-4l.028-.007q4.234-1.444,8.154-2.509a119.111,119.111,0,0,1,12.825-2.8,93.82,93.82,0,0,1,12.661-1.168c.171-.007.338-.007.508-.01q1.5-.026,2.9.007c9.429.2,15.7,2.078,18.876,3.329.441.174.82.338,1.137.483l.125.052c.358.16.636.3.83.393a.42.42,0,0,1,.076.042c.094.049.185.1.271.153l4.967,52.2Z" transform="translate(-1732.159 -1238.539)" fill="#0b0754"/>
          <path id="Path_18339" data-name="Path 18339" d="M2013.293,1365.041c-6.9,3.2-47.949,5.893-51.892,4.758-2.022-.584-10.485-8.038-19-17.208l-.008-.006c-8.057-8.673-16.18-18.883-18.92-26.23a44.955,44.955,0,0,1-.791-28.5s10.474-.044,14.744,2.534,28.683,47.545,31.946,48.731,41.936,3.4,46.363,5.5C2015.736,1354.623,2020.188,1361.838,2013.293,1365.041Z" transform="translate(-1820.752 -1241.775)" fill="#0b0754"/>
          <path id="Path_18340" data-name="Path 18340" d="M1857.093,1273.11l-.01,2.542s.7,7.949-9.082,9.124-17.209-3.073-16.953-9.208c.874-4.751,1.837-8.014,1.9-11.944a27.618,27.618,0,0,0-.355-4.76l18.967-.408,5.588.9Z" transform="translate(-1764.64 -1217.131)" fill="#fda6a4"/>
          <path id="Path_18341" data-name="Path 18341" d="M1859.73,1260.041l-.052,13.75a16.035,16.035,0,0,1-6.834,1.519c-8.717.013-17.394-14.016-17.669-15.765Z" transform="translate(-1767.226 -1217.812)" fill="#fc9290"/>
          <path id="Path_18342" data-name="Path 18342" d="M1853.191,1211.758s-24.285,4.945-27.132-10.226-7.9-24.75,7.487-28.548,19.492,1.423,21.674,6.256S1859.434,1210.081,1853.191,1211.758Z" transform="translate(-1759.569 -1162.85)" fill="#fda6a4"/>
          <path id="Path_18343" data-name="Path 18343" d="M1848.729,1153.214a50.93,50.93,0,0,1-14.771-3.973c-6.489-2.809-14.667.308-17.32,1.712a3.956,3.956,0,0,1,.646-1.6,3.565,3.565,0,0,0-1.365,2.029c-.122.091-.177.153-.146.174a4.571,4.571,0,0,0-2.22.147s.608-.088.825.3a.361.361,0,0,0,.1.107c-10.109,4.9-11.019,20.893-7.757,24.587,3.923,4.445,8.635,14.461,8.635,14.461a8.592,8.592,0,0,0,.991-6.286c-.718-3.915,2.665-3.921,6.935-5.708s.7-6.766,4.436-9.8,17.445-1.273,17.263-3.587C1850.063,1163.921,1848.729,1153.735,1848.729,1153.214Z" transform="translate(-1748.371 -1148.105)" fill="#9e332e"/>
          <path id="Path_18344" data-name="Path 18344" d="M1789.343,1452.378a73.427,73.427,0,0,1-2.693-7.851,133.672,133.672,0,0,1-4.045-21.852c-.01-.094-.021-.191-.032-.285.052.024.138.166.195.1,2.682-3.258,10-6.822,18.869,6.156,1.769,2.586,9.527,20.707,10.764,23.734Z" transform="translate(-1734.322 -1317.828)" fill="#030231"/>
          <path id="Path_18345" data-name="Path 18345" d="M1819.762,1492.929a7.376,7.376,0,0,1,.935-4.483s1.137-.737,2.645-1.6c2.249-1.269,5.324-2.8,6.718-2.558.25.046.587.118.987.216,3.305.792,11.01,3.166,12.175,4.557.959,1.143,2.266,2.6,3.166,3.865Z" transform="translate(-1757.542 -1358.379)" fill="#fda6a4"/>
          <path id="Path_18346" data-name="Path 18346" d="M1724.862,1386.228h-64.9a3.935,3.935,0,0,1,.049-2.183c1.936-4.89,5.714-12.94,10.065-21.576,3.2-6.354,6.708-13.027,10.021-18.994,4.6-8.286,8.811-15.216,11.285-18.059a29.31,29.31,0,0,1,6.983-5.658,49.193,49.193,0,0,1,6.513-3.253v0c.146-.063.3-.122.442-.181a57.4,57.4,0,0,1,8.1-2.635s.049,2.051.052,5.2c.014,9.148-.337,27.583-3.257,32.08a60.216,60.216,0,0,1-4.223,5.37c-.056.063-.108.125-.163.188-1.025,1.2-2.162,2.5-3.354,3.827-6.774,7.587-15.352,16.5-16.4,17.583-.073.073-.108.111-.108.111h.125l18.2.254,5.582.077,11.574.159a4.382,4.382,0,0,1,1.9,1.613A11.719,11.719,0,0,1,1724.862,1386.228Z" transform="translate(-1657.547 -1251.678)" fill="#0b0754"/>
          <path id="Path_18347" data-name="Path 18347" d="M2049.464,1454.3c-6.9,3.2-47.949,5.893-51.892,4.758-2.022-.584-10.485-8.038-19-17.208.42.056,4.314-6.434,22.067,9.1,0,0,4.649,2.069,17.3.911S2046.844,1450.275,2049.464,1454.3Z" transform="translate(-1856.923 -1331.037)" fill="#030231"/>
          <g id="Group_12807" data-name="Group 12807" transform="translate(105.29 83.319)">
            <path id="Path_18348" data-name="Path 18348" d="M1981.813,1500.821h-46.926a3.741,3.741,0,0,1,3.741-3.741h43.185Z" transform="translate(-1934.887 -1449.713)" fill="#a83f3f"/>
            <path id="Path_18349" data-name="Path 18349" d="M2029.981,1370.6h72.55l-17.4,51.106h-73.021Z" transform="translate(-1983.19 -1370.596)" fill="#a83f3f"/>
            <path id="Path_18350" data-name="Path 18350" d="M2105.383,1370.595l-17.4,51.107h-73.021l17.873-51.107Z" transform="translate(-1984.974 -1370.595)" fill="#b05050"/>
            <path id="Path_18351" data-name="Path 18351" d="M2140,1431.665a4.717,4.717,0,0,1-4.351,3.536,2.723,2.723,0,0,1-2.72-3.536,4.716,4.716,0,0,1,4.352-3.535A2.722,2.722,0,0,1,2140,1431.665Z" transform="translate(-2058.709 -1406.584)" fill="#ed6966"/>
            <path id="Path_18352" data-name="Path 18352" d="M2170.614,1370.595l-17.4,51.107h-33.968l40.686-51.107Z" transform="translate(-2050.205 -1370.595)" fill="#a83f3f"/>
          </g>
          <path id="Path_18353" data-name="Path 18353" d="M1830.819,1231.078l-.966.2a8.012,8.012,0,0,1-9.412-6.248l-1.021-5.055a8.012,8.012,0,0,1,6.248-9.412l.967-.195a8.012,8.012,0,0,1,9.412,6.248l1.021,5.055A8.012,8.012,0,0,1,1830.819,1231.078Z" transform="translate(-1757.271 -1186.95)" fill="#060632"/>
          <g id="Group_12808" data-name="Group 12808" transform="translate(65.303)">
            <path id="Path_18354" data-name="Path 18354" d="M1828.828,1174.028c-.647-1.169-1.6-10.578.989-18.07a12,12,0,0,1,5.807-7.079,6.213,6.213,0,0,1,2.991-.773l2.549.043c-8.392,3.553-10.338,22.563-9.685,24.59a.752.752,0,0,0-.065-.141Z" transform="translate(-1828.11 -1148.105)" fill="#060632"/>
          </g>
          <g id="Group_12809" data-name="Group 12809" transform="translate(69.36 33.681)">
            <path id="Path_18355" data-name="Path 18355" d="M1860.1,1250.075c-14.105,0-21.087-11.146-21.156-11.259l1.261-.771-.63.385.63-.386c.065.106,6.64,10.553,19.9,10.553h.267l.016,1.478Z" transform="translate(-1838.941 -1238.044)" fill="#060632"/>
          </g>
          <path id="Path_18356" data-name="Path 18356" d="M1834.434,1235.355l-.482.1a3.992,3.992,0,0,1-4.69-3.113l-.509-2.519a3.992,3.992,0,0,1,3.113-4.689l.481-.1a3.992,3.992,0,0,1,4.69,3.113l.509,2.519A3.992,3.992,0,0,1,1834.434,1235.355Z" transform="translate(-1763.16 -1196.176)" fill="#0b0754"/>
          <path id="Path_18357" data-name="Path 18357" d="M1895.835,1267.368h-1.33a1.236,1.236,0,0,1-1.232-1.232h0a1.235,1.235,0,0,1,1.232-1.231h1.33a1.235,1.235,0,0,1,1.231,1.231h0A1.235,1.235,0,0,1,1895.835,1267.368Z" transform="translate(-1803.567 -1221.165)" fill="#060632"/>
        </g>
      </g>
      <g id="Group_12816" data-name="Group 12816" transform="translate(67.825 145.398)">
        <path id="Path_18358" data-name="Path 18358" d="M1097.941,1161.728s-11.835,6.05-3.211,19.048c0,0-10.167,1.175-12.725-1.748a8.282,8.282,0,0,0,.835,1.9s-9.85-1.291-13.38-5.024,7.476-53.392,33.712-43.23c0,0,23.326,2.127,16.706,28.42s2.077,27.753,2.077,27.753a12.561,12.561,0,0,1-3.787.59s-1.6-.938-1.776-1.937a6.154,6.154,0,0,0,.447,2.084s-9.537-.687-13.629-5.017S1095.68,1167,1097.941,1161.728Z" transform="translate(-1054.063 -1131.077)" fill="#9e332e"/>
        <path id="Path_18359" data-name="Path 18359" d="M1174.249,1213.207l-.947.131a7.767,7.767,0,0,1-8.735-6.607l-.687-4.952a7.768,7.768,0,0,1,6.607-8.736l.947-.131a7.767,7.767,0,0,1,8.735,6.607l.687,4.952A7.767,7.767,0,0,1,1174.249,1213.207Z" transform="translate(-1113.478 -1169.566)" fill="#93b3f4"/>
        <path id="Path_18360" data-name="Path 18360" d="M1118.723,1282.633c-3.531,2.726-5.765,12.567-11.459,14.191-21.343,6.092-32.8-19.252-36.547-31.624a18.6,18.6,0,0,1,7.2-2.622c1.552-.264,3.187-.469,4.543-.606,2.331-1.981,5.556-9.768,5.753-21.613l1.03.22,17.259,3.791s-.5,5.451-.625,10.584c-.091,4.017-.221,4.978.089,5.455,1.342.221,2.924,3.653,2.924,3.653a.046.046,0,0,0,.01.015A109.764,109.764,0,0,1,1118.723,1282.633Z" transform="translate(-1055.25 -1199.29)" fill="#fda6a4"/>
        <path id="Path_18361" data-name="Path 18361" d="M1137.455,1244.748s-.507,5.446-.625,10.584c-9.693-.474-14.637-9.426-16.636-14.373Z" transform="translate(-1086.199 -1199.666)" fill="#fc9290"/>
        <g id="Group_12812" data-name="Group 12812" transform="translate(0 60.956)">
          <path id="Path_18362" data-name="Path 18362" d="M1168.453,1367.1s-10.149.372-21.171.41c-1.3.007-2.624.007-3.937,0-8.975-.038-17.8-.352-21.55-1.32-3.667-.944-17.773-10.505-29.062-22.087a.011.011,0,0,1,0-.007c-.875,2.086-1.536,3.681-1.553,3.807a58.6,58.6,0,0,1-1.556,7.707,93.565,93.565,0,0,1-6.971,17.831l-6.045-.01-47.191-.069s8.914-13.73,6.52-48.9c-.061-.89,8.217-29.27,8.217-29.27s6.431-1.125,13.864-1.724c.7.639,2.145,19.309,11.442,20.39,1.512.175,11.213,14.992,11.213,14.992l2.938-15.136-3.475-20.082a105.728,105.728,0,0,1,10.614,3.257,11.712,11.712,0,0,1,5.918,5.257c6.5,11.87,27.577,50.156,29.729,51.05,2.015.834,9.609,2.353,17.644,3.82h.007c10.751,1.963,22.292,3.828,22.292,3.828Z" transform="translate(-1029.415 -1293.465)" fill="#bed2fa"/>
          <path id="Path_18363" data-name="Path 18363" d="M1174.924,1507.036l-3.38.01.011-.014Z" transform="translate(-1118.319 -1427.054)" fill="#bed2fa"/>
        </g>
        <path id="Path_18364" data-name="Path 18364" d="M1136.456,1199.73s-22.95-.45-22.449-14.737-2.125-23.968,12.549-24.285,17.328,5.235,18.322,10.044S1142.438,1199.479,1136.456,1199.73Z" transform="translate(-1082.323 -1149.459)" fill="#fda6a4"/>
        <path id="Path_18365" data-name="Path 18365" d="M1253.042,1434.125c-1.3.007-2.624.007-3.937,0-8.975-.037-17.8-.352-21.55-1.32-3.667-.944-17.773-10.505-29.062-22.087a.012.012,0,0,1,0-.007s2.381-9.116,3.407-10.642,5.076,13.3,14.538,19.337,24.269,10.262,31.459,8.552C1252.738,1426.805,1253.234,1431.159,1253.042,1434.125Z" transform="translate(-1135.174 -1299.123)" fill="#93b3f4"/>
        <path id="Path_18366" data-name="Path 18366" d="M1161.931,1242.827s.146,1.711,3.91,1.981c0,0,3.16.227,3.291-1.612A9.271,9.271,0,0,0,1161.931,1242.827Z" transform="translate(-1112.306 -1200.508)" fill="#fff"/>
        <g id="Group_12813" data-name="Group 12813" transform="translate(34.598 31.164)">
          <path id="Path_18367" data-name="Path 18367" d="M1138.073,1230.843c-13.04-4.12-16.238-16.463-16.269-16.587l1.391-.345-.7.172.695-.173c.03.118,3.056,11.7,15.311,15.567l.247.077-.417,1.371Z" transform="translate(-1121.804 -1213.91)" fill="#060632"/>
        </g>
        <path id="Path_18368" data-name="Path 18368" d="M1165.745,1257.162l-1.23-.388a1.2,1.2,0,0,1-.778-1.5h0a1.2,1.2,0,0,1,1.5-.778l1.229.388a1.2,1.2,0,0,1,.779,1.5h0A1.2,1.2,0,0,1,1165.745,1257.162Z" transform="translate(-1113.401 -1208.099)" fill="#93b3f4"/>
        <path id="Path_18369" data-name="Path 18369" d="M1133.308,1151.742s-5.876,17.4-14.689,20.357-11.737-.543-11.737-.543a25.492,25.492,0,0,0,7.24-15.618S1128.362,1144.626,1133.308,1151.742Z" transform="translate(-1077.872 -1142.389)" fill="#9e332e"/>
        <path id="Path_18370" data-name="Path 18370" d="M1148.146,1159.513s11.966-.671,15.541,2.735c2.579,2.458,2.518,3.74,2.719,7.015,0,0,5.232-8.072-.151-13.721C1160.546,1149.552,1148.146,1159.513,1148.146,1159.513Z" transform="translate(-1103.683 -1145.037)" fill="#9e332e"/>
        <path id="Path_18371" data-name="Path 18371" d="M1152.785,1153.707s-3,16.652-13.951,22.7c0,0,10.609-10.859,10.8-21.723S1152.785,1153.707,1152.785,1153.707Z" transform="translate(-1097.858 -1142.512)" fill="#9e332e"/>
        <path id="Path_18372" data-name="Path 18372" d="M1069.461,1175.9c3.528,3.733,13.378,5.027,13.378,5.027a8.192,8.192,0,0,1-.833-1.9c5.063,4.1,17.5,1.124,17.5,1.124-9.918-2.191-6.706-16.5-3.333-17.113a310.082,310.082,0,0,1,7.69-30.268c-.439-.072-.688-.095-.688-.095C1076.938,1122.511,1065.933,1172.173,1069.461,1175.9Z" transform="translate(-1054.063 -1131.076)" fill="#9e332e"/>
        <g id="Group_12815" data-name="Group 12815" transform="translate(26.497)">
          <path id="Path_18373" data-name="Path 18373" d="M1110.615,1209.287l-.947.131a7.767,7.767,0,0,1-8.735-6.606l-.687-4.953a7.767,7.767,0,0,1,6.607-8.735l.947-.132a7.767,7.767,0,0,1,8.735,6.607l.687,4.952A7.768,7.768,0,0,1,1110.615,1209.287Z" transform="translate(-1100.172 -1167.113)" fill="#93b3f4"/>
          <g id="Group_12814" data-name="Group 12814" transform="translate(4.149)">
            <path id="Path_18374" data-name="Path 18374" d="M1111.348,1154.8c-.563-1.056,1.412-9.259,4.317-15.621,1.4-3.076,4.947-7.192,7.475-8.253a5.442,5.442,0,0,1,3.117,0,23.688,23.688,0,0,1,2.736,1.1c-8.312,2.591-15.534,20.008-15.01,21.81a.61.61,0,0,0-.055-.127Z" transform="translate(-1111.251 -1130.692)" fill="#93b3f4"/>
          </g>
          <path id="Path_18375" data-name="Path 18375" d="M1114.279,1213.205l-.472.066a3.871,3.871,0,0,1-4.353-3.292l-.342-2.468a3.87,3.87,0,0,1,3.292-4.352l.472-.066a3.871,3.871,0,0,1,4.352,3.292l.342,2.468A3.87,3.87,0,0,1,1114.279,1213.205Z" transform="translate(-1105.741 -1175.958)" fill="#6d89cf"/>
        </g>
        <path id="Path_18376" data-name="Path 18376" d="M1271.672,1467.558s9.841-.566,10.8-.051c1.553.837,6.84,4.241,7.668,5.231a55.18,55.18,0,0,1,3,4.958s-.939.261-1.363-.12-3.635-3.793-3.635-3.793l3.3,5.011a2.793,2.793,0,0,1-1.593-.548c-.452-.5-3.534-3.632-3.534-3.632l-1.051-.207a11.374,11.374,0,0,1,1.65,1.633,10.135,10.135,0,0,1,.965,1.612,7.7,7.7,0,0,1-1.233-.3c-.293-.14-3.056-2.559-3.056-2.559l1.465,2a3.851,3.851,0,0,1-1.312-.268c-.324-.219-2.477-2.2-2.859-2.2a12.873,12.873,0,0,1-4.31-.736c-1.18-.626-4.885-2.059-4.885-2.059Z" transform="translate(-1180.951 -1341.24)" fill="#fda6a4"/>
        <path id="Path_18377" data-name="Path 18377" d="M1095.907,1286.151s-6.581,1.919-8.082,3.43c0,0,6.88,17.588,16.8,25.8l2.651-1.881v4.276l9.931,6.5S1095.4,1291.471,1095.907,1286.151Z" transform="translate(-1065.951 -1227.934)" fill="#93b3f4"/>
        <path id="Path_18378" data-name="Path 18378" d="M1105.791,1408a93.619,93.619,0,0,1-6.971,17.831l3.369,0-3.38.01h-31.352s3.638-.007,3.631-.024c-.085-.318,5.3-14.923-3.631-20.909-8.948-6-12.193-20.741-12.193-20.741l28.474-6.955s11.732,17.119,15.071,20.383c2.564,2.506,8.538,2.694,8.538,2.694Z" transform="translate(-1045.585 -1284.895)" fill="#93b3f4"/>
        <path id="Path_18379" data-name="Path 18379" d="M1164.585,1289.053s3.029,23.932.538,35.219c0,0,4.065-7.469,4.635-8.837l-.684-4.1,2.622.912s-2.313-19.079-4.406-22.424-2.864-3.669-2.864-3.669Z" transform="translate(-1113.867 -1227.934)" fill="#93b3f4"/>
        <path id="Path_18380" data-name="Path 18380" d="M1356.737,1473.248s-12.7.469-25.107.41c-3.079-4.775.691-10.5.691-10.5h.007c10.751,1.963,22.292,3.828,22.292,3.828Z" transform="translate(-1217.698 -1338.656)" fill="#fda6a4"/>
        <path id="Path_18381" data-name="Path 18381" d="M1325.529,1500.821H1278.6a3.741,3.741,0,0,1,3.74-3.741h43.185Z" transform="translate(-1185.287 -1359.874)" fill="#3662c1"/>
        <path id="Path_18382" data-name="Path 18382" d="M1446.246,1370.595l-17.4,51.108h-73.021l17.873-51.108Z" transform="translate(-1233.589 -1280.755)" fill="#93b3f4"/>
        <path id="Path_18383" data-name="Path 18383" d="M1448.029,1370.595l-17.241,50.635-.16.473h-71.954l17.874-51.108Z" transform="translate(-1235.371 -1280.755)" fill="#93b3f4"/>
        <path id="Path_18384" data-name="Path 18384" d="M1483.72,1431.665a4.717,4.717,0,0,1-4.352,3.536,2.723,2.723,0,0,1-2.719-3.536,4.717,4.717,0,0,1,4.352-3.535A2.722,2.722,0,0,1,1483.72,1431.665Z" transform="translate(-1309.108 -1316.744)" fill="#efa2a2"/>
        <path id="Path_18385" data-name="Path 18385" d="M1513.263,1370.595l-17.241,50.635h-33.06l40.31-50.635Z" transform="translate(-1300.606 -1280.755)" fill="#3662c1"/>
        <path id="Path_18386" data-name="Path 18386" d="M1209.051,1459.235s-24.157,2.111-37.507,1.516v-13.118c8.746,2.415,37.5,7.628,37.5,7.628Z" transform="translate(-1118.319 -1328.943)" fill="#fda6a4"/>
        <path id="Path_18387" data-name="Path 18387" d="M1055.6,1295.31s-13.815.314-18.09,4.932,4.243,30.718,4.243,30.718,25.75,31.538,38.632,33.761c0,0,5.63.769,8.258.811,0,0-2.577-7.5,2.215-12.209,0,0-5.516-1.544-5.744-2.228S1055.6,1295.31,1055.6,1295.31Z" transform="translate(-1033.729 -1233.663)" fill="#bed2fa"/>
      </g>
      <g id="Group_12822" data-name="Group 12822" transform="translate(603.246 146.147)">
        <g id="Group_12820" data-name="Group 12820">
          <path id="Path_18388" data-name="Path 18388" d="M2530.185,1134.378s-13.991-5.206-22.734,5.014c-5.012,5.86-37.062,66.96-36.68,72.31a12.2,12.2,0,0,0,3.439,8.024s-1.337-4.681-.334-7.117c0,0-.644,8.239,4.442,11.75,2.65,1.829,68.629-1.752,74.363-9.743,12.465-17.374-14.758-26.364-14.089-45.133C2538.979,1158.6,2549.672,1135.476,2530.185,1134.378Z" transform="translate(-2466.426 -1132.918)" fill="#0b0754"/>
          <path id="Path_18389" data-name="Path 18389" d="M2646.319,1206.711l-.937.189a7.767,7.767,0,0,1-9.125-6.057l-.99-4.9a7.767,7.767,0,0,1,6.057-9.125l.938-.189a7.766,7.766,0,0,1,9.125,6.057l.99,4.9A7.767,7.767,0,0,1,2646.319,1206.711Z" transform="translate(-2569.226 -1166.334)" fill="#93b3f4"/>
          <path id="Path_18390" data-name="Path 18390" d="M2722.686,1376.5H2678.91c-7.425-11.786-13.952-27.7-15.474-40.1-.725-5.88-.321-10.966,1.644-14.442,6.116-10.8-3.584-23.481-3.584-23.481s13.354,3.78,16.457,14.79c3.164,11.216,11.655,48.523,11.655,48.523l32.5,6.685A15.237,15.237,0,0,1,2722.686,1376.5Z" transform="translate(-2585.729 -1236.396)" fill="#93b3f4"/>
          <path id="Path_18391" data-name="Path 18391" d="M2725.926,1436.524H2682.15c-7.424-11.786-13.952-27.7-15.474-40.1l6.494-1.988s8.215,37.5,12.992,38.075S2725.926,1436.524,2725.926,1436.524Z" transform="translate(-2588.969 -1296.42)" fill="#6d89cf"/>
          <path id="Path_18392" data-name="Path 18392" d="M2596.932,1278.54a40.139,40.139,0,0,1-13.271,7.508c-20.928,7.392-31.215-9.839-35.717-21.957a18.593,18.593,0,0,1,7.028-3.059c1.533-.359,3.152-.665,4.5-.885,2.2-2.121,4.945-10.091,4.414-21.926l1.042.157,17.459,2.721s-.167,5.472.027,10.6c.156,4.015.541,7.825,1.4,8.671,1.354.137,2.168.235,2.168.235a.065.065,0,0,0,.011.015A109.705,109.705,0,0,1,2596.932,1278.54Z" transform="translate(-2514.701 -1198.703)" fill="#fda6a4"/>
          <path id="Path_18393" data-name="Path 18393" d="M2610.749,1241.371s-.171,5.467.027,10.6c-9.7.123-15.188-8.509-17.488-13.324Z" transform="translate(-2543.064 -1198.97)" fill="#fc9290"/>
          <path id="Path_18394" data-name="Path 18394" d="M2587.434,1331.277c-.048.375-4.714,15.546-4.762,15.927-1.619,12.7-4.551,26.251-4.551,26.251l-6.411-.011-42.305-.083s5.1-15.4-8.358-39.01q-.662-1.161-1.384-2.347c-1.917-3.149,10.18-36.818,10.18-36.818s5.3-.936,12.728-1.535c.7.642,5.863,19.524,15.2,20.1,12.193.751,7.571-20.289,7.571-20.289a42.424,42.424,0,0,1,13.133,4.416S2587.692,1329.2,2587.434,1331.277Z" transform="translate(-2496.881 -1233.256)" fill="#93b3f4"/>
          <path id="Path_18395" data-name="Path 18395" d="M2608.559,1194.94s-22.934.962-23.312-13.329-3.6-23.792,11.031-25.01,17.618,4.159,18.9,8.9S2614.515,1194.322,2608.559,1194.94Z" transform="translate(-2537.684 -1147.538)" fill="#fda6a4"/>
          <path id="Path_18396" data-name="Path 18396" d="M2635.113,1237.58s.252,1.7,4.024,1.737c0,0,3.168.033,3.186-1.811A9.272,9.272,0,0,0,2635.113,1237.58Z" transform="translate(-2569.226 -1197.838)" fill="#fff"/>
          <g id="Group_12817" data-name="Group 12817" transform="translate(50.224 29.447)">
            <path id="Path_18397" data-name="Path 18397" d="M2610.546,1227.313c-13.268-3.311-17.219-15.434-17.258-15.556l1.367-.43-.684.215.683-.216c.037.115,3.77,11.485,16.239,14.6l.251.061-.332,1.394Z" transform="translate(-2593.288 -1211.326)" fill="#060632"/>
          </g>
          <path id="Path_18398" data-name="Path 18398" d="M2639.867,1251.9l-1.251-.312a1.2,1.2,0,0,1-.869-1.448h0a1.2,1.2,0,0,1,1.447-.87l1.251.312a1.2,1.2,0,0,1,.869,1.447h0A1.2,1.2,0,0,1,2639.867,1251.9Z" transform="translate(-2570.851 -1205.589)" fill="#3a65c2"/>
          <path id="Path_18399" data-name="Path 18399" d="M2595.22,1132.864s14.767-2.305,20.876,9.989c4.65,9.358.772,15.2-1.05,16.992,0,0-2.412-13.441-6.926-14.588a4.877,4.877,0,0,0-4.893,1.419c-1.984,2.306-4.854,12.592-8.149,14.168,0,0-10.233,2.527-10.735-1.044s-.222-14.687,2.357-16.478S2595.22,1132.864,2595.22,1132.864Z" transform="translate(-2537.339 -1132.692)" fill="#0b0754"/>
          <g id="Group_12819" data-name="Group 12819" transform="translate(42.012 0.135)">
            <path id="Path_18400" data-name="Path 18400" d="M2582.564,1206.711l-.937.189a7.767,7.767,0,0,1-9.125-6.057l-.99-4.9a7.767,7.767,0,0,1,6.057-9.125l.938-.189a7.767,7.767,0,0,1,9.125,6.057l.99,4.9A7.767,7.767,0,0,1,2582.564,1206.711Z" transform="translate(-2571.359 -1166.469)" fill="#93b3f4"/>
            <g id="Group_12818" data-name="Group 12818" transform="translate(3.213)">
              <path id="Path_18401" data-name="Path 18401" d="M2580.634,1155.644c-.627-1.019-1.549-9.219.958-15.748a10.824,10.824,0,0,1,5.63-6.169,6.562,6.562,0,0,1,2.9-.674l2.471.037c-8.136,3.1-10.022,19.664-9.389,21.431a.626.626,0,0,0-.063-.123Z" transform="translate(-2579.938 -1133.052)" fill="#93b3f4"/>
            </g>
            <path id="Rectangle_5839" data-name="Rectangle 5839" d="M4.1,0h0a4.1,4.1,0,0,1,4.1,4.1V6.112a4.1,4.1,0,0,1-4.1,4.1h0A4.1,4.1,0,0,1,0,6.112V4.1A4.1,4.1,0,0,1,4.1,0Z" transform="translate(2.73 26.296) rotate(-11.425)" fill="#6d89cf"/>
          </g>
          <path id="Path_18402" data-name="Path 18402" d="M2532.061,1431.2s5.1-15.4-8.358-39.01l5.015-6.264s8.878,25.146,19.973,32.479c11.073,7.316,24.1,5.789,25.675,12.878Z" transform="translate(-2499.537 -1291.092)" fill="#6d89cf"/>
          <path id="Path_18403" data-name="Path 18403" d="M2492.134,1298.066s-9.129.8-15.242,11.6-17.719,51.157-17.719,66.579h48.859a15.213,15.213,0,0,0-.573-8.019l-30.236-5.834s18.2-27.025,18.391-38.678S2492.134,1298.066,2492.134,1298.066Z" transform="translate(-2459.172 -1236.136)" fill="#93b3f4"/>
          <path id="Path_18404" data-name="Path 18404" d="M2587.7,1492.54s9.52-.931,11.1-.5a47.033,47.033,0,0,1,7.092,2.937,28.733,28.733,0,0,1,2.937,2.527,6.235,6.235,0,0,1-1.935.07c-.716-.161-2.866-.3-3.438-.352a17.86,17.86,0,0,0-2.627.377H2586.07Z" transform="translate(-2538.549 -1357.398)" fill="#fda6a4"/>
        </g>
        <g id="Group_12821" data-name="Group 12821" transform="translate(88.438 89.091)">
          <path id="Path_18405" data-name="Path 18405" d="M2742.258,1500.821h-46.925a3.741,3.741,0,0,1,3.74-3.741h43.185Z" transform="translate(-2695.333 -1449.713)" fill="#0b0754"/>
          <path id="Path_18406" data-name="Path 18406" d="M2862.976,1370.595l-17.4,51.108h-73.021l17.873-51.108Z" transform="translate(-2743.635 -1370.595)" fill="#3662c1"/>
          <path id="Path_18407" data-name="Path 18407" d="M2864.759,1370.595l-17.241,50.635-.16.473H2775.4l17.873-51.108Z" transform="translate(-2745.418 -1370.595)" fill="#3662c1"/>
          <path id="Path_18408" data-name="Path 18408" d="M2900.449,1431.665a4.718,4.718,0,0,1-4.352,3.536,2.723,2.723,0,0,1-2.72-3.536,4.717,4.717,0,0,1,4.352-3.535A2.722,2.722,0,0,1,2900.449,1431.665Z" transform="translate(-2819.155 -1406.584)" fill="#fa7269"/>
          <path id="Path_18409" data-name="Path 18409" d="M2929.991,1370.595l-17.241,50.635h-33.06L2920,1370.595Z" transform="translate(-2810.652 -1370.595)" fill="#0b0754"/>
        </g>
      </g>
    </g>
  </g>
</svg>
