<svg xmlns="http://www.w3.org/2000/svg" width="187" height="59" viewBox="0 0 187 59">
  <g id="Group_16150" data-name="Group 16150" transform="translate(-867.001 -6411)">
    <g id="Group_16116" data-name="Group 16116" transform="translate(712.001 6394)">
      <path id="Path_24811" data-name="Path 24811" d="M52.4,26.709a2.483,2.483,0,0,0-3.9-1.958l-.007-.008-.02.036c-.191.152-.3.247-.42.358L33.817,37.857c-4.307,3.847-7.4,7.648-13.716,7.9a14.329,14.329,0,0,1-1.125-28.636l.439-.011c-.008.36-.005.721.008,1.086a17.635,17.635,0,0,0,.4,3.047l0,0a2.677,2.677,0,0,0,2.528,1.536,2.549,2.549,0,0,0,2.442-2.645,4.14,4.14,0,0,0-.118-.818l-.007-.034h0A12.376,12.376,0,0,1,39.553,5.41c.267.065.528.139.786.219.182.054.369.1.547.162a12.244,12.244,0,0,1,4,2.347l.011-.005a2.793,2.793,0,0,0,1.484.816,2.546,2.546,0,0,0,3.009-1.976,2.67,2.67,0,0,0-1.126-2.656A17.752,17.752,0,0,0,45.912,2.6,18.555,18.555,0,0,0,40.18.338,17.117,17.117,0,0,0,36.232.011a17.513,17.513,0,0,0-15.907,11.9q-.769-.027-1.552,0a19.539,19.539,0,1,0,1.534,39.048c8.82-.348,11.826-4.882,17.788-10.2l8.342-7.447,3.246-2.9,2.295-2.051.016-.034a2.532,2.532,0,0,0,.408-1.616" transform="translate(155 24)" fill="#3246d3"/>
      <path id="Path_24812" data-name="Path 24812" d="M85.345,36.14A19.543,19.543,0,0,0,65.053,17.38c-8.82.347-11.826,4.879-17.788,10.2L32.193,41.042l-.022.034a2.446,2.446,0,0,0-.582,1.755,2.483,2.483,0,0,0,4.073,1.822l.009.008L51.543,30.484c4.307-3.847,7.4-7.646,13.715-7.9A14.328,14.328,0,1,1,58.815,49.4a2.438,2.438,0,0,0-.42-.2,14.3,14.3,0,0,1-2.459-1.827,2.606,2.606,0,0,0-4.414,2.249s-.029-.236,0,.034a2.082,2.082,0,0,0,.36,1.032,19.326,19.326,0,0,0,14.344,5.777V56.43c.121,0,.239.008.361,0A19.537,19.537,0,0,0,85.345,36.14" transform="translate(144.222 18.074)" fill="#3246d3" opacity="0.88"/>
    </g>
    <text id="Unite" transform="translate(950.001 6449)" fill="#3246d3" font-size="40" font-family="ArialRoundedMTBold, Arial Rounded MT"><tspan x="0" y="0">Unite</tspan></text>
    <g id="Group_15780" data-name="Group 15780" transform="translate(710.001 6385)">
      <path id="Path_24813" data-name="Path 24813" d="M122.177,25.6a5.7,5.7,0,0,0,1.3,4.018,6.109,6.109,0,0,0,7.771,0,5.694,5.694,0,0,0,1.3-4.018V19.544a1.967,1.967,0,0,0-.349-.133,2,2,0,0,0-.6-.083,1.16,1.16,0,0,0-.756.224.839.839,0,0,0-.274.689v5.2a7.274,7.274,0,0,1-.166,1.652,2.973,2.973,0,0,1-.539,1.179,2.3,2.3,0,0,1-.988.714,4.865,4.865,0,0,1-3.022,0,2.294,2.294,0,0,1-.988-.714,2.966,2.966,0,0,1-.54-1.179,7.261,7.261,0,0,1-.166-1.652V19.544a1.974,1.974,0,0,0-.349-.133,2,2,0,0,0-.6-.083,1.159,1.159,0,0,0-.756.224.838.838,0,0,0-.274.689ZM133.6,30.719h1.893v-4.55a2.461,2.461,0,0,1,.54-1.719,2.506,2.506,0,0,1,3.23,0,2.438,2.438,0,0,1,.548,1.719v4.55H141.7V25.688a3.544,3.544,0,0,0-.3-1.486,3.15,3.15,0,0,0-.839-1.113,3.747,3.747,0,0,0-1.287-.7,5.279,5.279,0,0,0-1.627-.241,5.2,5.2,0,0,0-1.619.241,3.755,3.755,0,0,0-1.279.7,3.235,3.235,0,0,0-.847,1.113,3.459,3.459,0,0,0-.307,1.486Zm9.282,0h1.893V22.566q-.083-.033-.332-.108a1.9,1.9,0,0,0-.548-.075,1.188,1.188,0,0,0-.747.207.8.8,0,0,0-.266.673Zm.133-11.74a1.162,1.162,0,1,0,.814-.332,1.106,1.106,0,0,0-.814.332m3.016,11.74h1.893V24.127h1.92a3.209,3.209,0,0,0,.133-.34,1.593,1.593,0,0,0,.083-.523.888.888,0,0,0-.224-.656,1.072,1.072,0,0,0-.772-.224h-1.139v-.5a2.146,2.146,0,0,1,.415-1.411,1.723,1.723,0,0,1,1.395-.5,3.467,3.467,0,0,1,.971.133,2.056,2.056,0,0,1,.722.349,1.282,1.282,0,0,0,.34-.332.821.821,0,0,0,.158-.5.946.946,0,0,0-.565-.822,4.138,4.138,0,0,0-1.926-.324,4.662,4.662,0,0,0-1.37.191,2.86,2.86,0,0,0-1.079.6,2.662,2.662,0,0,0-.706,1.054,4.3,4.3,0,0,0-.249,1.544Zm4.312-3.338a3.594,3.594,0,0,0,.274,1.445,2.934,2.934,0,0,0,.756,1.054,3.3,3.3,0,0,0,1.162.648,4.7,4.7,0,0,0,1.478.224,4.037,4.037,0,0,0,1.553-.291,2.26,2.26,0,0,0,1.038-.772,4.608,4.608,0,0,1-.191,1.436,2.26,2.26,0,0,1-.548.922,1.969,1.969,0,0,1-.872.49,4.407,4.407,0,0,1-1.162.141,8.372,8.372,0,0,1-.938-.05q-.44-.05-.789-.124a5.769,5.769,0,0,1-.6-.158c-.166-.056-.288-.1-.365-.133q-.116.348-.233.706t-.249.706q.116.05.4.141t.722.191q.44.1,1,.174a9.525,9.525,0,0,0,1.245.075,6.377,6.377,0,0,0,1.81-.241,3.385,3.385,0,0,0,2.291-2.125,5.607,5.607,0,0,0,.316-2V22.566q-.083-.033-.34-.108a1.989,1.989,0,0,0-.556-.075,1.127,1.127,0,0,0-.731.216.805.805,0,0,0-.266.664v3.554a2.373,2.373,0,0,1-.581,1.735,2.137,2.137,0,0,1-1.594.59,2.072,2.072,0,0,1-1.619-.581A2.245,2.245,0,0,1,152.237,27V22.566q-.083-.033-.34-.108a1.987,1.987,0,0,0-.556-.075,1.127,1.127,0,0,0-.731.216.805.805,0,0,0-.266.664Zm15.941,1.395-.307.15a4.693,4.693,0,0,1-.5.2,4.475,4.475,0,0,1-1.453.233,3.2,3.2,0,0,1-1.968-.523,2.063,2.063,0,0,1-.822-1.37q.332.017.623.025t.623.008a12.018,12.018,0,0,0,2.358-.191,4.555,4.555,0,0,0,1.478-.531,1.9,1.9,0,0,0,.764-.813,2.513,2.513,0,0,0,.216-1.054,2.445,2.445,0,0,0-.922-1.935,3.543,3.543,0,0,0-1.121-.6,4.772,4.772,0,0,0-1.528-.224,4.874,4.874,0,0,0-1.8.324,4.267,4.267,0,0,0-1.428.913,4.16,4.16,0,0,0-.946,1.411,4.706,4.706,0,0,0-.341,1.818,4.625,4.625,0,0,0,.349,1.851,3.946,3.946,0,0,0,.955,1.362,4.026,4.026,0,0,0,1.411.839,5.21,5.21,0,0,0,1.735.282,6.929,6.929,0,0,0,1.22-.1,7.978,7.978,0,0,0,.98-.232,4.229,4.229,0,0,0,.706-.282q.282-.15.415-.233Zm-4.94-3.553a2.618,2.618,0,0,1,.49-.822,2.344,2.344,0,0,1,.78-.573,2.539,2.539,0,0,1,1.079-.216,2.332,2.332,0,0,1,1.254.316,1.042,1.042,0,0,1,.506.946,1.209,1.209,0,0,1-.1.482.931.931,0,0,1-.415.415,3,3,0,0,1-.88.3,7.571,7.571,0,0,1-1.478.116h-.7q-.349,0-.731-.017a2.971,2.971,0,0,1,.191-.946m13.5-1.794a3.371,3.371,0,0,0-1.146-.9A3.67,3.67,0,0,0,172,22.151a4.316,4.316,0,0,0-1.685.324,4.027,4.027,0,0,0-1.345.913,4.257,4.257,0,0,0-.9,1.395,4.7,4.7,0,0,0-.324,1.768,4.512,4.512,0,0,0,.341,1.76,4.154,4.154,0,0,0,.938,1.395,4.346,4.346,0,0,0,1.419.913,4.768,4.768,0,0,0,1.8.332,5.121,5.121,0,0,0,1.777-.3,3.85,3.85,0,0,0,1.411-.9,4.172,4.172,0,0,0,.938-1.494,5.936,5.936,0,0,0,.341-2.109V18.664c-.056-.022-.166-.058-.332-.108a1.9,1.9,0,0,0-.548-.075,1.121,1.121,0,0,0-.739.216.818.818,0,0,0-.257.664Zm-.191,4.218a2.521,2.521,0,0,1-.523.847,2.368,2.368,0,0,1-.805.548,2.65,2.65,0,0,1-1.038.2,2.535,2.535,0,0,1-1.046-.208,2.507,2.507,0,0,1-.805-.565,2.445,2.445,0,0,1-.523-.847,3.032,3.032,0,0,1-.183-1.071,3.1,3.1,0,0,1,.183-1.079,2.436,2.436,0,0,1,.523-.855,2.485,2.485,0,0,1,1.851-.772,2.558,2.558,0,0,1,1.038.207,2.357,2.357,0,0,1,.805.573,2.715,2.715,0,0,1,.523.864,2.942,2.942,0,0,1,.191,1.063,3.037,3.037,0,0,1-.191,1.1" transform="translate(165.904 50.52)" fill="#2c3652"/>
      <text id="by" transform="translate(266 80)" fill="#2c3652" font-size="14" font-family="Poppins-Regular, Poppins"><tspan x="0" y="0">by</tspan></text>
    </g>
  </g>
</svg>
