<svg xmlns="http://www.w3.org/2000/svg" width="2387.396" height="1630.542" viewBox="0 0 2387.396 1630.542">
  <g id="Unite-cloud-only-white" transform="translate(-0.18 -0.475)" opacity="0.1">
    <path id="Path_24816" data-name="Path 24816" d="M1678.671,852.691c-2.108-44.27-37.946-78-82.217-75.892-14.757,0-29.514,6.324-42.162,14.757h0v2.108a80.25,80.25,0,0,0-12.649,10.541l-457.461,406.867c-137.028,122.271-236.109,244.542-438.488,252.974-255.082,8.432-468-187.622-478.542-440.6-8.432-252.974,187.622-465.894,440.6-476.434H622.5v33.73a716.56,716.56,0,0,0,12.649,96.973h0c12.649,29.514,46.378,50.595,80.108,48.487,44.27-2.108,80.108-40.054,78-84.325,0-8.432-2.108-16.865-4.216-25.3v-2.108h0c-2.108-12.649-4.216-27.406-4.216-42.162C776.4,353.067,947.154,169.661,1164.29,161.229c33.73-2.108,67.46,2.108,99.081,8.432l25.3,6.324a145.332,145.332,0,0,0,21.081,8.433c48.487,16.865,90.649,42.162,128.6,75.892h0c10.541,12.649,29.514,23.189,48.487,25.3,44.271,8.432,86.433-18.973,96.973-63.243,6.324-33.73-10.541-65.352-35.838-84.325-23.189-21.081-48.487-37.946-75.892-54.811-67.46-42.162-137.028-63.243-183.406-71.676A496.582,496.582,0,0,0,1162.182,1.012C921.857,9.444,723.694,165.445,652.018,380.473H601.423C255.692,393.121-12.039,684.042.61,1029.773c14.757,345.731,305.677,613.462,649.3,600.813,282.488-10.541,379.461-156,569.191-326.758l267.731-238.217,103.3-92.757,73.784-65.352v-2.108c10.541-14.757,14.757-33.73,14.757-52.7Z" transform="translate(0 0)" fill="#09b29b"/>
    <path id="Path_24817" data-name="Path 24817" d="M1752.023,619.023c-12.649-345.731-303.569-613.462-649.3-600.813-282.488,10.541-379.461,156-569.191,326.758L50.773,775.024v2.108Q31.8,799.267,31.8,834.051c2.108,44.271,37.946,78,82.217,75.892,18.973,0,33.73-8.433,48.487-18.973h0L670.559,437.725c137.028-122.271,236.109-244.541,438.488-252.974,252.974-10.541,465.894,187.622,476.434,440.6s-187.622,465.894-440.6,476.434c-88.541,4.216-170.757-18.973-242.433-59.027L889.8,1036.43c-27.406-16.865-54.811-35.838-78-59.027q-15.811-18.973-44.27-25.3c-44.27-8.432-86.433,18.973-96.973,63.244-2.108,10.541-4.216,23.189-2.108,33.73v2.108c2.108,21.081,10.541,33.73,10.541,33.73,84.325,84.325,191.839,145.46,316.217,172.866,48.487,10.541,94.865,12.649,143.352,12.649v-2.108H1149.1c347.839-14.756,617.678-305.677,602.921-649.3Z" transform="translate(634.975 347.506)" fill="#09b29b"/>
  </g>
</svg>
