<?xml version="1.0" encoding="utf-8"?>
<!-- Generator: Adobe Illustrator 26.2.0, SVG Export Plug-In . SVG Version: 6.00 Build 0)  -->
<svg version="1.1" id="Layer_1" xmlns="http://www.w3.org/2000/svg" xmlns:xlink="http://www.w3.org/1999/xlink" x="0px" y="0px"
	 viewBox="0 0 34 23" style="enable-background:new 0 0 34 23;" xml:space="preserve">
<style type="text/css">
	.st0{fill:#2C3652;}
</style>
<g id="_309042_group_users_people_icon" transform="translate(-1 -4.929)">
	<g id="Group_15938" transform="translate(18.751 4.929)">
		<g id="Group_15936" transform="translate(0.102 13.617)">
			<path id="Path_23174" class="st0" d="M5.8,0.2c-1.9,0-3.7,0.4-5.4,1.4c1.3,1.2,2.3,2.5,3.2,4l0.1,0.3v3.3h12v-3
				C13.8,2.5,10,0.2,5.8,0.2z"/>
		</g>
		<g id="Group_15937" transform="translate(0 0)">
			<ellipse id="Ellipse_1772" class="st0" cx="6.3" cy="5.7" rx="6" ry="5.5"/>
		</g>
	</g>
	<g id="Group_15939" transform="translate(1 5.044)">
		<path id="Path_23175" class="st0" d="M4.9,5.4c0-2.9,2.4-5.2,5.3-5.3c2.9,0,5.2,2.4,5.2,5.3c0,2.9-2.4,5.2-5.2,5.2
			C7.3,10.7,5,8.3,4.9,5.4z M10.2,13.7c-4.2-0.1-8,2.2-9.8,6v3h19.5v-3C18.2,15.9,14.3,13.6,10.2,13.7z"/>
	</g>
</g>
</svg>
