<?xml version="1.0" encoding="utf-8"?>
<!-- Generator: Adobe Illustrator 26.0.2, SVG Export Plug-In . SVG Version: 6.00 Build 0)  -->
<svg version="1.1" id="Layer_1" xmlns="http://www.w3.org/2000/svg" xmlns:xlink="http://www.w3.org/1999/xlink" x="0px" y="0px"
	 viewBox="0 0 21.5 17" style="enable-background:new 0 0 21.5 17;" xml:space="preserve">
<style type="text/css">
	.st0{fill:#8B91A9;}
</style>
<g id="download_2_" transform="translate(-2 195)">
	<path id="Path_16665" class="st0" d="M4.47-194.79c-0.52,0-1.03,0.19-1.43,0.52l9.02,9.04c0.4,0.34,0.98,0.34,1.38,0l9.02-9.04
		c-0.4-0.34-0.9-0.52-1.43-0.52H4.47z M2.25-192.93c-0.03,0.13-0.04,0.27-0.04,0.4v12.05c0,0.49,0.16,0.96,0.46,1.34l6.23-7.13
		L2.25-192.93z M23.26-192.93l-6.68,6.69l6.5,6.7c0.14-0.29,0.21-0.61,0.21-0.94v-12.05C23.29-192.66,23.28-192.79,23.26-192.93
		L23.26-192.93z M9.96-185.19l-6.03,6.91c0.18,0.05,0.36,0.07,0.54,0.07h16.57c0.35,0,0.69-0.09,1-0.24l-6.51-6.71
		c-0.36,0.36-0.74,0.74-1.1,1.1c-0.96,0.81-2.37,0.81-3.34,0C10.71-184.43,10.33-184.82,9.96-185.19L9.96-185.19z"/>
</g>
</svg>
