<svg xmlns="http://www.w3.org/2000/svg" width="581.478" height="581.458" viewBox="0 0 581.478 581.458">
  <g id="Group_17623" data-name="Group 17623" transform="translate(0.474 0.476)" opacity="0.05">
    <path id="Path_15725" data-name="Path 15725" d="M2915.18-20602.93c28.09-109.1,25.876-111.375,79.307-149.156,53.432-37.859,133.589-91.336,213.739-66.8,80.15,24.508,129.129,35.617,160.3,86.859,31.17,51.188,82.382,104.617,57.891,178.07-24.5,73.469-51.214,80.172-100.187,91.25-48.985,11.2-182.569,22.313-236.009,8.938C3036.785-20467.117,2887.087-20493.8,2915.18-20602.93Z" transform="translate(-2880.351 20876.48)" fill="#aab1e1" opacity="0.53"/>
    <g id="Group_6703" data-name="Group 6703">
      <path id="Union_119" data-name="Union 119" d="M304.493,0c36.571.053,66,25.459,74.5,54.22-49.666-19.88-99-19.977-148.8.042C238.3,25.763,268.35-.058,304.493,0ZM0,54.043C5.18,29.672,32.18,5.568,60.939,1.049,106.6-6.122,140.561,26.1,148.221,54.241,98.518,34.36,49.306,34.248,0,54.043Z" transform="translate(101.228 195.353)" fill="#3246d3" stroke="rgba(160,37,37,0)" stroke-miterlimit="10" stroke-width="1"/>
      <path id="Path_15724" data-name="Path 15724" d="M811.595,114.676s-.285-12.406-1.947-28.273c-.216-2.8-.417-5.639-.587-8.518-.129.094-.249.164-.375.253-2.026-15.756-5.429-33.238-11.115-45.044h0c-.347-1.089-.708-2.172-1.111-3.24C791.751,17.348,787.022,4.761,781.04-7.16a287.4,287.4,0,0,0-76.7-95.463c-32.983-26.713-69.985-45.619-111.235-55.591-15.728-3.8-31.836-7.149-47.922-8.068-19.015-1.088-38.261-.143-57.277,1.463a245.652,245.652,0,0,0-42.929,7.632,280.23,280.23,0,0,0-63.958,26.022A289.4,289.4,0,0,0,288.251-49.8a291.678,291.678,0,0,0-43.481,85.441c-7.756,24.293-11.707,49.192-13.288,74.457-1.315,20.982.874,41.843,4.291,62.631A281.549,281.549,0,0,0,253.185,233.5h0l.074.171q2.492,6.106,5.231,12.137a8.331,8.331,0,0,0,1.005,1.592c5.988,12.717,14.905,30.368,20.67,35.888h0c4.373,6.659,8.8,13.274,13.634,19.581,22.343,29.163,49.964,52.436,81.574,71.069a279.931,279.931,0,0,0,75.932,30.817c13.61,3.333,27.622,5.2,41.548,7.006,10.136,1.313,20.467,2.337,30.638,1.875a367.729,367.729,0,0,0,44.994-4.528A313.358,313.358,0,0,0,613.8,398.313a284.641,284.641,0,0,0,91.309-50.371c29-23.638,52.237-52,71.142-85.51a29.2,29.2,0,0,0-2.842.956c-15.969,8-31.535,16.972-48,23.765a462.87,462.87,0,0,1-54.531,18.508c-20.444,5.584-41.262,10.066-62.151,13.672-15.486,2.673-31.347,3.178-47.041,4.649-4.851.455-9.155,1.222-12.677,5.644-9.924,12.462-28.309,16.213-42.837,9.4-14.66-6.878-21.989-19.733-21.193-37.174.608-13.316,11.237-26.951,25.906-31.451,14.408-4.419,27.333-.577,37.442,10.571,3.653,4.028,6.8,4.994,12.279,4.68a425.3,425.3,0,0,0,70.609-9.624c14.343-3.275,28.776-6.4,42.8-10.764,24.606-7.662,48.557-17.149,71.159-29.7,17.31-9.61,33.8-20.434,47.3-35.153,6.092-6.641,12.746-13.392,13.921-22.757,2.234-17.772,4.557-35.619,5.127-53.49.1-3.128.087-6.259,0-9.405Zm-52.834,18.98c-2.269,15.563-11.184,27.925-23.2,38.282-15.977,13.776-34.55,23.175-54.4,29.286a596.645,596.645,0,0,1-64.157,15.945,396.145,396.145,0,0,1-81.1,6.9c-23.484-.421-47.067.167-70.416-1.862-21.763-1.893-43.412-5.99-64.856-10.367A313.658,313.658,0,0,1,356.372,199.2c-22.464-8.165-43.4-19.107-59.247-38-12.582-15-15.262-32.37-13.19-50.919,1.376-12.307,2.856-24.677,5.5-36.753a232.256,232.256,0,0,1,43.091-92.372A238.091,238.091,0,0,1,407.574-83.4a234.6,234.6,0,0,1,51.019-20.512,232.145,232.145,0,0,1,65.486-8.639,238.042,238.042,0,0,1,86.52,17.5c38.541,15.582,70.555,39.719,96.579,71.921A223.053,223.053,0,0,1,745.8,46.716c1.578,4.723,3.1,9.481,4.633,14.322.928,3.135,2.127,7.526,3.34,12.933l-.009,0c.009.017.014.036.022.053.249,1.109.5,2.27.744,3.46a12.057,12.057,0,0,0,.813,4.08c.734,3.9,1.426,8.146,2.017,12.67-.144.292-.287.589-.428.9.2.031.387.062.552.09A201.648,201.648,0,0,1,758.761,133.656Z" transform="translate(-231.095 166.749)" fill="#3246d3" stroke="rgba(160,37,37,0)" stroke-width="1"/>
    </g>
  </g>
</svg>
