<?xml version="1.0" encoding="utf-8"?>
<!-- Generator: Adobe Illustrator 26.0.2, SVG Export Plug-In . SVG Version: 6.00 Build 0)  -->
<svg version="1.1" id="Layer_1" xmlns="http://www.w3.org/2000/svg" xmlns:xlink="http://www.w3.org/1999/xlink" x="0px" y="0px"
	 viewBox="0 0 22 27" style="enable-background:new 0 0 22 27;" xml:space="preserve">
<style type="text/css">
	.st0{fill:#8B91A9;}
</style>
<g id="download_7_" transform="translate(-12.9 -2.437)">
	<path id="Path_18142" class="st0" d="M31.71,12.01c-0.73,0.98-1.62,2.09-2.4,3.04c-0.68,0.84-1.91,0.97-2.75,0.29
		c-0.11-0.09-0.2-0.18-0.29-0.29c-0.06-0.05-0.11-0.12-0.14-0.2h-0.06l-0.45-0.2c-0.07-0.03-0.16-0.02-0.22,0.03l-0.56,0.39
		c-0.06,0.06-0.11,0.14-0.08,0.2l0.08,0.67c0,0.08-0.03,0.2-0.11,0.22l-0.45,0.2c-0.11,0.05-0.16,0.19-0.1,0.3
		c0.01,0.02,0.03,0.05,0.05,0.07l0.31,0.31c0.05,0.06,0.13,0.08,0.2,0.06l0.56-0.14h0.14l0.25,0.11c0.15,0.09,0.29,0.19,0.42,0.31
		c0.1,0.08,0.25,0.06,0.33-0.04c0,0,0.01-0.01,0.01-0.01c0.03-0.06,0.1-0.09,0.17-0.08l0.45-0.06c0.04,0,0.09-0.02,0.11-0.06
		l0.06-0.03c0.09-0.08,0.24-0.08,0.32,0.02c0.02,0.02,0.03,0.04,0.04,0.07l0.22,0.61c0,0.03,0.03,0.03,0.03,0.06l0.25,0.33
		c0.08,0.09,0.06,0.23-0.03,0.31l-0.61,0.59c-0.09,0.08-0.22,0.08-0.31,0l-0.59-0.56c-0.03-0.03-0.03-0.03-0.06-0.03l-0.84-0.36
		c-0.03,0-0.06,0-0.06-0.03l-1.12-0.11h-0.08l-1.28,0.36c-0.08,0.03-0.14,0.08-0.14,0.14l-0.45,1.4c-0.03,0.06,0,0.11,0,0.17
		l0.64,1.37c0.03,0.08,0.11,0.11,0.17,0.14l1.23,0.11c0.03,0,0.06,0.01,0.08,0.03l0.48,0.28c0.06,0.04,0.1,0.1,0.11,0.17l0.11,1.26
		c0,0.03,0.01,0.06,0.03,0.08l0.59,1.12c0.03,0.03,0.03,0.06,0.06,0.08l0.7,0.53c0.08,0.07,0.21,0.06,0.28-0.02
		c0.01-0.01,0.02-0.02,0.02-0.04l0.25-0.36c0.02-0.02,0.02-0.03,0.03-0.06l0.53-1.26v-0.06L28,21.67c0-0.03,0.01-0.06,0.03-0.08
		l0.36-0.73c0.04-0.09,0.13-0.14,0.22-0.14l1.2,0.17c0.07,0,0.14-0.02,0.2-0.06l0.22-0.25c0.08-0.07,0.09-0.19,0.03-0.28l-0.56-0.75
		c-0.08-0.1-0.06-0.24,0.04-0.32c0.03-0.02,0.06-0.04,0.1-0.04l0.22-0.06c0.03,0,0.39-0.03,0.48-0.03h0.03l0.56,0.08
		c0.11,0.03,0.2,0.13,0.2,0.25l-0.14,1.54v0.11l0.46,1.29c-1.37,3.04-4.4,5-7.74,5c-1.58-0.01-3.12-0.44-4.47-1.26l0.59-2.71
		c0.02-0.1,0.01-0.21-0.03-0.31l-0.89-1.93c-0.07-0.16-0.22-0.27-0.39-0.31l-1.95-0.28c-0.28-0.05-0.47-0.31-0.42-0.59
		c0.02-0.09,0.05-0.18,0.11-0.25l0.14-0.17c0.11-0.13,0.28-0.2,0.45-0.17l0.92,0.14h0.2l1.26-0.28c0.03,0,0.08-0.03,0.11-0.03
		l0.78-0.36c0.15-0.08,0.25-0.23,0.28-0.39l0.31-2.32c0.02-0.22-0.1-0.44-0.31-0.53l-0.39-0.25c-0.23-0.08-0.36-0.32-0.31-0.56
		c0.04-0.23,0.22-0.4,0.45-0.42l0.59-0.06c0.27-0.02,0.48-0.26,0.48-0.53l-0.03-0.73l-0.08-1.4c0-0.21-0.14-0.39-0.33-0.45l-0.5-0.2
		c0.74-0.34,1.52-0.56,2.32-0.67c-0.09-0.14-0.18-0.29-0.25-0.45c-0.2-0.42-0.36-0.86-0.48-1.3c-5.64,1.03-9.38,6.43-8.35,12.07
		s6.43,9.38,12.07,8.35c4.93-0.9,8.51-5.18,8.52-10.19C34.29,16.33,33.37,13.9,31.71,12.01z"/>
	<path id="Path_18143" class="st0" d="M27.32,14.21c0.22,0.25,0.61,0.28,0.86,0.06c0.02-0.02,0.04-0.04,0.06-0.06
		c1.32-1.55,2.54-3.19,3.66-4.89c0.68-1.29,0.68-2.84,0-4.13c-1.14-2.27-3.9-3.18-6.17-2.04c-2.24,1.16-3.15,3.9-2.04,6.17
		C24.8,11.03,26.01,12.66,27.32,14.21z M27.8,5.08c1.2,0,2.18,0.98,2.18,2.18S29,9.44,27.8,9.44c-1.2,0-2.18-0.98-2.18-2.18
		C25.62,6.06,26.59,5.08,27.8,5.08z"/>
</g>
</svg>
