<?xml version="1.0" encoding="utf-8"?>
<!-- Generator: Adobe Illustrator 26.2.1, SVG Export Plug-In . SVG Version: 6.00 Build 0)  -->
<svg version="1.1" id="Layer_1" xmlns="http://www.w3.org/2000/svg" xmlns:xlink="http://www.w3.org/1999/xlink" x="0px" y="0px"
	 viewBox="0 0 23 15.2" style="enable-background:new 0 0 23 15.2;" xml:space="preserve">
<style type="text/css">
	.st0{fill:#8B91A9;}
</style>
<g id="Group_6723" transform="translate(0 -0.001)">
	<path id="Path_15742" class="st0" d="M22.7,9c-0.8-1-1.6-2.1-2.4-3.1c-0.9-1-1.9-1.9-3-2.8c0.6-0.5,1.1-1.1,1.7-1.6
		c0.4-0.4,0.6-0.8,0.2-1.2c-0.5-0.5-0.8-0.1-1.2,0.2c-2.3,2.1-4.5,4.2-6.8,6.2C8.8,9,6.2,11.4,3.7,13.7c-0.4,0.4-0.8,0.7-0.3,1.2
		c0.5,0.5,0.9,0.2,1.4-0.2c0.9-0.9,1.9-1.7,2.8-2.5c3.1,1.8,5.6,1.7,7.7-0.1c2.1-2,2.6-5.1,1.2-7.6c0.3,0.2,0.4,0.3,0.6,0.4
		c1.8,1.4,3.3,3.1,4.6,5c0.3,0.4,0.6,0.8,1.1,0.4C23.2,9.9,23.1,9.4,22.7,9z M14.3,10.8c-1.6,1.5-4,1.6-5.7,0.3l6.2-5.8
		C16.1,7,15.8,9.3,14.3,10.8z"/>
	<path id="Path_15743" class="st0" d="M6.4,4.3C5.3,6,5.1,8.1,5.9,9.9c0.3-0.2,0.5-0.4,0.8-0.6C6.9,9,7,8.7,7,8.4
		c-0.4-2.4,1.1-4.7,3.5-5.1c0.7-0.1,1.3-0.1,2,0.1c0.2,0.1,0.4,0.1,0.6,0c0.6-0.5,1.1-1,1.7-1.5c-1.4-0.6-3-0.9-4.5-0.7
		C6.1,1.8,2.9,4.4,0.1,7.4C0,7.7,0,8.1,0.1,8.4c0.2,0.3,0.5,0.4,0.8,0.2c0.1,0,0.2-0.1,0.2-0.2C1.3,8.2,1.5,8,1.8,7.8
		c1.4-1.1,2.8-2.2,4.1-3.4C6.1,4.4,6.2,4.3,6.4,4.3z"/>
</g>
</svg>
