<?xml version="1.0" encoding="utf-8"?>
<!-- Generator: Adobe Illustrator 26.0.2, SVG Export Plug-In . SVG Version: 6.00 Build 0)  -->
<svg version="1.1" id="Layer_1" xmlns="http://www.w3.org/2000/svg" xmlns:xlink="http://www.w3.org/1999/xlink" x="0px" y="0px"
	 viewBox="0 0 26 19" style="enable-background:new 0 0 26 19;" xml:space="preserve">
<style type="text/css">
	.st0{fill:#8B91A9;}
</style>
<g id="download_5_" transform="translate(-1 -7)">
	<circle id="Ellipse_1611" class="st0" cx="8.13" cy="11.29" r="4"/>
	<path id="Path_18137" class="st0" d="M9.86,16.02H5.98c-2.68,0-4.85,2.17-4.85,4.85c0,0,0,0,0,0v3.88c0,0.54,0.43,0.97,0.97,0.97
		h11.64c0.54,0,0.97-0.43,0.97-0.97v-3.88C14.71,18.19,12.54,16.02,9.86,16.02L9.86,16.02z"/>
	<path id="Path_18138" class="st0" d="M26.14,15.05h-8.76c-0.4,0-0.73-0.43-0.73-0.97s0.33-0.97,0.73-0.97h8.76
		c0.4,0,0.73,0.43,0.73,0.97S26.54,15.05,26.14,15.05z"/>
	<path id="Path_18139" class="st0" d="M26.14,18.92h-8.76c-0.4,0-0.73-0.43-0.73-0.97s0.33-0.97,0.73-0.97h8.76
		c0.4,0,0.73,0.43,0.73,0.97S26.54,18.92,26.14,18.92z"/>
	<path id="Path_18140" class="st0" d="M21.92,22.8H17.4c-0.54-0.13-0.86-0.68-0.73-1.21c0.09-0.36,0.37-0.64,0.73-0.73h4.52
		c0.54,0.13,0.86,0.68,0.73,1.21C22.56,22.44,22.28,22.71,21.92,22.8z"/>
</g>
</svg>
