<?xml version="1.0" encoding="utf-8"?>
<!-- Generator: Adobe Illustrator 26.0.3, SVG Export Plug-In . SVG Version: 6.00 Build 0)  -->
<svg version="1.1" id="Layer_1" xmlns="http://www.w3.org/2000/svg" xmlns:xlink="http://www.w3.org/1999/xlink" x="0px" y="0px"
	 viewBox="0 0 57 57" style="enable-background:new 0 0 57 57;" xml:space="preserve">
<style type="text/css">
	.st0{fill:#CA3D94;}
</style>
<g>
	<path class="st0" d="M26,35.38c0.1,0.09,0.14,0.23,0.12,0.37l-0.33,1.89c-0.02,0.12,0,0.25,0.06,0.36
		c0.14,0.26,0.47,0.36,0.74,0.22l1.64-0.88c0.13-0.06,0.27-0.06,0.4,0l1.71,0.88c0.11,0.06,0.24,0.08,0.36,0.06
		c0.29-0.06,0.49-0.34,0.43-0.64l-0.3-1.86c-0.02-0.13,0.02-0.27,0.12-0.37l1.37-1.34c0.09-0.09,0.15-0.2,0.17-0.32
		c0.04-0.3-0.17-0.58-0.47-0.62l-1.86-0.27c-0.13-0.04-0.24-0.12-0.3-0.24L29,30.87c-0.05-0.09-0.13-0.17-0.23-0.23
		C28.5,30.5,28.15,30.6,28,30.87l-0.83,1.67c-0.04,0.13-0.16,0.23-0.3,0.24l-1.89,0.27c-0.11,0.02-0.22,0.08-0.3,0.16
		c-0.24,0.23-0.24,0.61-0.01,0.85L26,35.38z"/>
	<path class="st0" d="M53.76,0.24H3.24c-1.66,0-3,1.34-3,3v50.52c0,1.66,1.34,3,3,3h50.52c1.66,0,3-1.34,3-3V3.24
		C56.76,1.58,55.42,0.24,53.76,0.24z M32.81,16.16c0-0.96,0.78-1.74,1.74-1.74c0.96,0,1.74,0.78,1.74,1.74v2.19c0,0,0,0,0,0
		c0,0.96-0.78,1.73-1.74,1.73c-0.01,0-0.03,0-0.04,0c-0.95-0.01-1.71-0.79-1.7-1.74V16.16z M20.75,16.16c0-0.96,0.78-1.74,1.74-1.74
		s1.74,0.78,1.74,1.74v2.19c0,0,0,0,0,0c0,0.96-0.78,1.73-1.74,1.73c-0.02,0-0.05,0-0.07,0c-0.94-0.02-1.68-0.8-1.66-1.74V16.16z
		 M42.95,40.05c0,0,0,0.01,0,0.01c0,1.39-1.14,2.52-2.53,2.52H16.58c-0.01,0-0.01,0-0.02,0c-1.39-0.01-2.52-1.14-2.51-2.53h-0.03
		V26.27h28.93V40.05z M42.98,24.51H14.05v-4.72c0,0,0-0.01,0-0.01c0-1.39,1.14-2.52,2.53-2.52h2.38v1.1c0,1.94,1.58,3.52,3.52,3.52
		s3.52-1.58,3.52-3.52v-1.1h5.06v1.1c0,0,0,0,0,0c0,1.94,1.58,3.52,3.52,3.52c1.94,0,3.52-1.58,3.52-3.52v-1.1h2.38
		c1.39,0.01,2.52,1.13,2.53,2.53V24.51z"/>
</g>
</svg>
