<?xml version="1.0" encoding="utf-8"?>
<!-- Generator: Adobe Illustrator 26.2.0, SVG Export Plug-In . SVG Version: 6.00 Build 0)  -->
<svg version="1.1" id="Layer_1" xmlns="http://www.w3.org/2000/svg" xmlns:xlink="http://www.w3.org/1999/xlink" x="0px" y="0px"
	 viewBox="0 0 28 28" style="enable-background:new 0 0 28 28;" xml:space="preserve">
<style type="text/css">
	.st0{fill:#2C3652;}
</style>
<g id="download_29_" transform="translate(-2 -2)">
	<circle id="Ellipse_1429" class="st0" cx="16" cy="16" r="4"/>
	<path id="Path_15999" class="st0" d="M29,13h-2.4c-0.2-0.8-0.6-1.6-1-2.4l1.7-1.7c0.2-0.2,0.3-0.4,0.3-0.7c0-0.3-0.1-0.5-0.3-0.7
		l-2.8-2.8c-0.4-0.4-1-0.4-1.4,0l-1.7,1.7c-0.7-0.4-1.5-0.8-2.4-1V3c0-0.6-0.4-1-1-1h-4c-0.6,0-1,0.4-1,1v2.4
		c-0.8,0.2-1.6,0.6-2.4,1L8.9,4.7c-0.4-0.4-1-0.4-1.4,0L4.7,7.5C4.5,7.7,4.4,8,4.4,8.2c0,0.3,0.1,0.5,0.3,0.7l1.7,1.7
		c-0.4,0.7-0.8,1.5-1,2.4H3c-0.6,0-1,0.4-1,1v4c0,0.6,0.4,1,1,1h2.4c0.2,0.8,0.6,1.6,1,2.4l-1.7,1.7c-0.2,0.2-0.3,0.4-0.3,0.7
		c0,0.3,0.1,0.5,0.3,0.7l2.8,2.8c0.4,0.4,1,0.4,1.4,0l1.7-1.7c0.7,0.4,1.5,0.8,2.4,1V29c0,0.6,0.4,1,1,1h4c0.6,0,1-0.4,1-1v-2.4
		c0.8-0.2,1.6-0.6,2.4-1l1.7,1.7c0.4,0.4,1,0.4,1.4,0l2.8-2.8c0.2-0.2,0.3-0.4,0.3-0.7c0-0.3-0.1-0.5-0.3-0.7l-1.7-1.7
		c0.4-0.7,0.8-1.5,1-2.4H29c0.6,0,1-0.4,1-1v-4C30,13.4,29.6,13,29,13z M16,24c-4.4,0-8-3.6-8-8s3.6-8,8-8s8,3.6,8,8
		C24,20.4,20.4,24,16,24z"/>
</g>
</svg>
