<?xml version="1.0" encoding="utf-8"?>
<!-- Generator: Adobe Illustrator 26.0.2, SVG Export Plug-In . SVG Version: 6.00 Build 0)  -->
<svg version="1.1" id="Layer_1" xmlns="http://www.w3.org/2000/svg" xmlns:xlink="http://www.w3.org/1999/xlink" x="0px" y="0px"
	 viewBox="0 0 19 24" style="enable-background:new 0 0 19 24;" xml:space="preserve">
<style type="text/css">
	.st0{fill:#8B91A9;}
</style>
<g id="download_8_" transform="translate(-12.2 -2.5)">
	<g id="Group_12701" transform="translate(14.165 11.281)">
		<path id="Path_18144" class="st0" d="M2.33,0.18H1.66c-0.86,0-1.56,0.69-1.57,1.55c0,0,0,0.01,0,0.01v0.67
			c0,0.86,0.69,1.56,1.55,1.57c0,0,0.01,0,0.01,0h0.67c0.86,0,1.56-0.69,1.57-1.55c0,0,0-0.01,0-0.01V1.75
			c0-0.86-0.69-1.56-1.55-1.57C2.34,0.18,2.33,0.18,2.33,0.18z"/>
	</g>
	<g id="Group_12702" transform="translate(19.688 11.281)">
		<path id="Path_18145" class="st0" d="M2.33,0.18H1.66c-0.86,0-1.56,0.69-1.57,1.55c0,0,0,0.01,0,0.01v0.67
			c0,0.86,0.69,1.56,1.55,1.57c0,0,0.01,0,0.01,0h0.67c0.86,0,1.56-0.69,1.57-1.55c0,0,0-0.01,0-0.01V1.75
			C3.91,0.9,3.23,0.2,2.37,0.18C2.36,0.18,2.34,0.18,2.33,0.18z"/>
	</g>
	<g id="Group_12703" transform="translate(25.21 11.281)">
		<path id="Path_18146" class="st0" d="M2.33,0.18H1.66c-0.86,0-1.56,0.69-1.57,1.55c0,0,0,0.01,0,0.01v0.67
			c0,0.86,0.69,1.56,1.55,1.57c0,0,0.01,0,0.01,0h0.67c0.86,0,1.56-0.69,1.57-1.55c0,0,0-0.01,0-0.01V1.75
			C3.91,0.9,3.23,0.2,2.37,0.18C2.36,0.18,2.34,0.18,2.33,0.18z"/>
	</g>
	<g id="Group_12704" transform="translate(14.165 16.804)">
		<path id="Path_18147" class="st0" d="M2.33,0.18H1.66c-0.86,0-1.56,0.69-1.57,1.55c0,0,0,0.01,0,0.01v0.67
			c0,0.86,0.69,1.56,1.55,1.57c0,0,0.01,0,0.01,0h0.67c0.86,0,1.56-0.69,1.57-1.55c0,0,0-0.01,0-0.01V1.75
			c0-0.86-0.69-1.56-1.55-1.57C2.34,0.18,2.33,0.18,2.33,0.18z"/>
	</g>
	<g id="Group_12705" transform="translate(19.688 16.804)">
		<path id="Path_18148" class="st0" d="M2.33,0.18H1.66c-0.86,0-1.56,0.69-1.57,1.55c0,0,0,0.01,0,0.01v0.67
			c0,0.86,0.69,1.56,1.55,1.57c0,0,0.01,0,0.01,0h0.67c0.86,0,1.56-0.69,1.57-1.55c0,0,0-0.01,0-0.01V1.75
			C3.91,0.9,3.23,0.2,2.37,0.18C2.36,0.18,2.34,0.18,2.33,0.18z"/>
	</g>
	<g id="Group_12706" transform="translate(25.21 16.804)">
		<path id="Path_18149" class="st0" d="M2.33,0.18H1.66c-0.86,0-1.56,0.69-1.57,1.55c0,0,0,0.01,0,0.01v0.67
			c0,0.86,0.69,1.56,1.55,1.57c0,0,0.01,0,0.01,0h0.67c0.86,0,1.56-0.69,1.57-1.55c0,0,0-0.01,0-0.01V1.75
			C3.91,0.9,3.23,0.2,2.37,0.18C2.36,0.18,2.34,0.18,2.33,0.18z"/>
	</g>
	<g id="Group_12707" transform="translate(14.165 22.327)">
		<path id="Path_18150" class="st0" d="M2.33,0.18H1.66c-0.86,0-1.56,0.69-1.57,1.55c0,0,0,0.01,0,0.01v0.67
			c0,0.86,0.69,1.56,1.55,1.57c0,0,0.01,0,0.01,0h0.67c0.86,0,1.56-0.69,1.57-1.55c0,0,0-0.01,0-0.01V1.75
			c0-0.86-0.69-1.56-1.55-1.57C2.34,0.18,2.33,0.18,2.33,0.18z"/>
	</g>
	<g id="Group_12708" transform="translate(19.688 22.327)">
		<path id="Path_18151" class="st0" d="M2.33,0.18H1.66c-0.86,0-1.56,0.69-1.57,1.55c0,0,0,0.01,0,0.01v0.67
			c0,0.86,0.69,1.56,1.55,1.57c0,0,0.01,0,0.01,0h0.67c0.86,0,1.56-0.69,1.57-1.55c0,0,0-0.01,0-0.01V1.75
			C3.91,0.9,3.23,0.2,2.37,0.18C2.36,0.18,2.34,0.18,2.33,0.18z"/>
	</g>
	<g id="Group_12709" transform="translate(25.21 22.327)">
		<path id="Path_18152" class="st0" d="M2.33,0.18H1.66c-0.86,0-1.56,0.69-1.57,1.55c0,0,0,0.01,0,0.01v0.67
			c0,0.86,0.69,1.56,1.55,1.57c0,0,0.01,0,0.01,0h0.67c0.86,0,1.56-0.69,1.57-1.55c0,0,0-0.01,0-0.01V1.75
			C3.91,0.9,3.23,0.2,2.37,0.18C2.36,0.18,2.34,0.18,2.33,0.18z"/>
	</g>
	<g id="Group_12710" transform="translate(12.2 2.5)">
		<path id="Path_18153" class="st0" d="M9.49,0.18c-5.2,0-9.4,1.91-9.4,4.3C0.11,5.25,0.24,6,0.49,6.72
			c0.2,0.48,0.68,0.77,1.19,0.72L4.62,7.1c0.61-0.07,1.05-0.61,1-1.22C5.57,5.25,5.55,4.83,5.55,4.71c0-1,1.77-1.07,3.95-1.07
			s3.95,0.07,3.95,1.07c0,0.12-0.02,0.55-0.08,1.17c-0.04,0.61,0.4,1.14,1,1.22l2.93,0.35c0.52,0.06,1.01-0.24,1.19-0.72
			c0.23-0.72,0.37-1.48,0.4-2.24C18.9,2.1,14.69,0.18,9.49,0.18z"/>
	</g>
</g>
</svg>
