<?xml version="1.0" encoding="utf-8"?>
<!-- Generator: Adobe Illustrator 26.0.2, SVG Export Plug-In . SVG Version: 6.00 Build 0)  -->
<svg version="1.1" id="Layer_1" xmlns="http://www.w3.org/2000/svg" xmlns:xlink="http://www.w3.org/1999/xlink" x="0px" y="0px"
	 viewBox="0 0 215 46.89" style="enable-background:new 0 0 215 46.89;" xml:space="preserve">
<style type="text/css">
	.st0{fill:#4555A5;}
	.st1{fill:#2C3652;}
	.st2{fill:#7C85C1;}
</style>
<g>
	<g id="Group_14505" transform="translate(504.71 729) rotate(90)">
		<path id="Subtraction_25" class="st0" d="M-705.88,483.85c-1.51,0-2.95-0.6-4.02-1.66l-3.79-3.79l4.61-4.61l0.72,0.72
			c1.37,1.37,3.59,1.37,4.96,0l9.94-9.95c1.37-1.37,1.37-3.59,0-4.96l-9.94-9.94c-1.37-1.37-3.59-1.37-4.96,0l-9.94,9.94
			c-1.37,1.37-1.37,3.59,0,4.96l1.64,1.64l-4.61,4.61l-4.71-4.71c-2.22-2.22-2.22-5.82,0-8.04c0,0,0,0,0,0l16.1-16.1
			c2.22-2.22,5.82-2.22,8.04,0c0,0,0,0,0,0l16.1,16.1c2.22,2.22,2.22,5.82,0,8.04l-16.1,16.1
			C-702.93,483.26-704.37,483.86-705.88,483.85L-705.88,483.85z"/>
		<path id="Subtraction_27" class="st1" d="M-705.88,460.48c1.51,0,2.95,0.6,4.02,1.66l3.79,3.79l-4.61,4.61l-0.72-0.72
			c-1.37-1.37-3.59-1.37-4.96,0l-9.94,9.95c-1.37,1.37-1.37,3.59,0,4.96l9.94,9.94c1.37,1.37,3.59,1.37,4.96,0l9.94-9.94
			c1.37-1.37,1.37-3.59,0-4.96l-1.64-1.64l4.61-4.61l4.71,4.71c2.22,2.22,2.22,5.82,0,8.04c0,0,0,0,0,0l-16.1,16.1
			c-2.22,2.22-5.82,2.22-8.04,0c0,0,0,0,0,0l-16.1-16.1c-2.22-2.22-2.22-5.82,0-8.04l16.1-16.1
			C-708.84,461.07-707.4,460.47-705.88,460.48L-705.88,460.48z"/>
	</g>
	<path id="Subtraction_28" class="st2" d="M9.02,23.34H0.68c0-0.04,0-0.07,0-0.11s0-0.08,0-0.11c0-0.73,0.14-1.46,0.42-2.14
		c0.28-0.71,0.71-1.34,1.25-1.88L18.45,3c2.22-2.22,5.82-2.22,8.04,0l16.09,16.09c1.07,1.06,1.67,2.51,1.66,4.02
		c0,0.08,0,0.15,0,0.22h-8.33c0.01-0.08,0.01-0.15,0.01-0.22c0-0.93-0.37-1.83-1.03-2.48l-9.94-9.94c-1.37-1.37-3.59-1.37-4.97,0
		l-9.94,9.94c-0.66,0.66-1.03,1.55-1.03,2.48c0,0.05,0,0.09,0,0.14C9.01,23.28,9.01,23.31,9.02,23.34L9.02,23.34z M64.41,23.34
		h-8.33c0.01-0.08,0.01-0.15,0.01-0.22c0-0.93-0.37-1.83-1.03-2.48l-9.94-9.94c-1.37-1.37-3.59-1.37-4.97,0l-1.64,1.64L33.9,7.71
		L38.62,3c2.22-2.22,5.82-2.22,8.04,0l16.09,16.09c1.07,1.07,1.66,2.51,1.66,4.02c0,0.04,0,0.08,0,0.11L64.41,23.34L64.41,23.34z
		 M29.19,23.34h-8.33c0-0.04,0-0.07,0-0.11s0-0.08,0-0.11c0-1.51,0.59-2.96,1.66-4.02l3.79-3.79l4.61,4.62l-0.71,0.72
		c-0.66,0.66-1.03,1.55-1.03,2.48C29.19,23.2,29.19,23.28,29.19,23.34L29.19,23.34z"/>
	<g>
		<g>
			<path class="st1" d="M80.5,7.33h6.3v31.41h-6.3V7.33z"/>
			<path class="st1" d="M110.46,24.97c0-4-2.2-6.17-5.53-6.17c-3.42,0-5.62,2.16-5.62,6.17v13.77h-6.3V13.81h6.3v3.1
				c1.62-2.12,4.32-3.46,7.51-3.46c5.8,0,9.95,3.78,9.95,10.67v14.62h-6.3V24.97z"/>
			<path class="st1" d="M126.85,13.81l6.3,19.12l6.3-19.12h6.71l-9.22,24.93h-7.65l-9.18-24.93H126.85z"/>
			<path class="st1" d="M160.78,39.15c-7.2,0-12.64-5.04-12.64-12.87c0-7.87,5.62-12.87,12.82-12.87c7.2,0,12.82,5,12.82,12.87
				C173.78,34.11,168.02,39.15,160.78,39.15z M160.78,33.66c3.33,0,6.52-2.43,6.52-7.38c0-4.99-3.1-7.38-6.43-7.38
				s-6.34,2.38-6.34,7.38C154.52,31.23,157.4,33.66,160.78,33.66z"/>
			<path class="st1" d="M178.41,5.44h6.3v33.3h-6.3V5.44z"/>
			<path class="st1" d="M195.02,13.81l6.3,19.12l6.3-19.12h6.71l-9.22,24.93h-7.65l-9.18-24.93H195.02z"/>
		</g>
	</g>
</g>
</svg>
