<?xml version="1.0" encoding="utf-8"?>
<!-- Generator: Adobe Illustrator 26.2.0, SVG Export Plug-In . SVG Version: 6.00 Build 0)  -->
<svg version="1.1" id="Layer_1" xmlns="http://www.w3.org/2000/svg" xmlns:xlink="http://www.w3.org/1999/xlink" x="0px" y="0px"
	 viewBox="0 0 37 32" style="enable-background:new 0 0 37 32;" xml:space="preserve">
<style type="text/css">
	.st0{fill:#2C3652;}
</style>
<g id="download_40_" transform="translate(-2.5 -9.149)">
	<path id="Path_16018" class="st0" d="M30.1,30.4c-1-1.2-1.5-2.7-1.5-4.3v-3c0-3.6-2.5-6.6-6-7.4v-1.4c0-0.9-0.8-1.6-1.7-1.6
		c-0.9,0-1.6,0.7-1.6,1.6v1.4c-3.5,0.8-6,3.8-6,7.4v3c0,1.6-0.5,3.1-1.5,4.3l-1.3,1.6c-0.6,0.7-0.5,1.9,0.3,2.5
		c0.3,0.3,0.7,0.4,1.1,0.4h18.2c1,0,1.7-0.8,1.7-1.8c0-0.4-0.1-0.8-0.4-1.1L30.1,30.4z"/>
	<path id="Path_16019" class="st0" d="M28.1,13.8c-0.5,0.5-0.5,1.4,0,1.9c1.8,1.7,2.9,4.1,3.1,6.6c0.1,0.7,0.6,1.2,1.4,1.2h0.1
		c0.7,0,1.3-0.7,1.2-1.4c0,0,0,0,0,0c-0.2-3.1-1.6-6.1-3.9-8.3C29.5,13.3,28.7,13.3,28.1,13.8z"/>
	<path id="Path_16020" class="st0" d="M10.8,22.3c0.2-2.5,1.3-4.8,3.1-6.6c0.5-0.5,0.5-1.4,0-1.9c-0.5-0.5-1.3-0.5-1.9,0
		C9.7,16,8.3,19,8.1,22.1c-0.1,0.7,0.5,1.4,1.2,1.4h0.1C10.1,23.6,10.7,23,10.8,22.3z"/>
	<path id="Path_16021" class="st0" d="M10.3,11.7c0.5-0.5,0.5-1.4,0-1.9C9.8,9.3,9,9.3,8.5,9.7C4.8,13.2,2.6,18,2.6,23.1v0.3
		c0,0.7,0.7,1.3,1.4,1.3c0.7,0,1.2-0.6,1.3-1.3v-0.3C5.3,18.8,7.1,14.6,10.3,11.7z"/>
	<path id="Path_16022" class="st0" d="M33.5,9.7c-0.5-0.5-1.4-0.5-1.9,0c-0.5,0.5-0.5,1.4,0,1.9c0,0,0,0,0,0c3.2,2.9,5,7.1,4.9,11.4
		v0.3c0,0.7,0.7,1.3,1.4,1.3c0.7,0,1.2-0.6,1.3-1.3v-0.3C39.3,18,37.2,13.2,33.5,9.7z"/>
	<path id="Path_16023" class="st0" d="M21,40.9c2.1,0,3.9-1.7,3.9-3.9h-7.7C17.1,39.2,18.9,40.9,21,40.9z"/>
</g>
</svg>
