<svg xmlns="http://www.w3.org/2000/svg" width="367.677" height="318.31" viewBox="0 0 367.677 318.31">
  <g id="_404_Error_Page_not_Found_with_people_connecting_a_plug-amico" data-name="404 Error Page not Found with people connecting a plug-amico" transform="translate(0 -3.75)">
    <g id="freepik--character-2--inject-103" transform="translate(0)">
      <g id="freepik--Character--inject-103">
        <g id="freepik--Bottom--inject-103" transform="translate(32.382 95.865)">
          <path id="Path_18419" data-name="Path 18419" d="M357.814,301.686s-2.256-33.415-1.623-45.732a102.613,102.613,0,0,1,2.126-15.993s2.394-22.72,2.588-42.105c.1-9.315.957-15.937,6.061-27l32.806,7.847c.665,4.917,2.921,37.618,3.457,66.692.463,25.455-.26,47.737-.26,47.737v1.339c0,1.493.325,2.532,1.282,4.917a28.659,28.659,0,0,0,5.08,8.406c.673.73,5.355,4.82,5.972,5.68,2.012,2.345-2.158,3.668-5.25,3.246-3.246-.438-8.325-1.68-9.737-3.66-.957-1.331-1.68-5.964-2.661-7.3-3.319-4.528-4.682-6.491-4.706-7.92-.049-2.613.852-3.643,1.177-5.12-.268-3.083-6.93-28.441-7.043-37.423-.057-4.276.235-10.167.235-10.167l-5.161-29.634c-2,7.4-5.5,25.771-6.686,32.823-1.436,8.617-5.193,30.737-7.417,43.931-.852,5.088-1.25,7.66-1.623,10.021l-.089,1.006c-.073,1.282-1.006,15-1.509,17.852-1.055,6-6.386,5.242-7.238.389-.73-4.122.178-16.91.2-18.476Z" transform="translate(-354.588 -168.992)" fill="#ffa8a7"/>
          <path id="Path_18420" data-name="Path 18420" d="M419.155,332.09c-1.509,0-.519,5.85-.909,9.591-.414,4.017-1.728,6.954-2.11,10.24a13.372,13.372,0,0,0,1.258,8.431c1.047,2.434,6.321,5.68,8.325,2.264a19.351,19.351,0,0,0,2.2-11.117c-.235-3.749,0-6.264-.073-9.21-.073-2.6,1.834-9.226-.122-9.6l-.089,1.006c-.706,1.4-7.83,1.68-8.544-.219Z" transform="translate(-415.93 -199.396)" fill="#37474f"/>
          <path id="Path_18421" data-name="Path 18421" d="M378.736,331.27c-.463,1.874,0,7.019,0,7.019a6.823,6.823,0,0,0,3.708,2.954l1.3-7.157Z" transform="translate(-340.715 -199.242)" fill="#263238"/>
          <path id="Path_18422" data-name="Path 18422" d="M370.35,341.757l6.378-2.094L378.27,334l-7.173,3.627Z" transform="translate(-328.605 -199.756)"/>
          <path id="Path_18423" data-name="Path 18423" d="M364.821,322.788v-1.339c.868.422,2.775,7.408,5.355,12.172,2.353,4.374,7.019,6.808,8.536,8.715,2.029,2.54-1.915,5.826-8.236,4.471-3.14-.673-7.9-2.678-9.185-4.8s-1.72-6.013-2.775-7.571-3.562-3.351-4.057-5.12a9.737,9.737,0,0,1,0-4.869c.495-1.623.933-3.562,1.485-3.384v1.225c.422.86,1.956,1.866,5.145,2.045C362.646,324.41,364.123,324.175,364.821,322.788Z" transform="translate(-316.439 -197.315)" fill="#37474f"/>
          <path id="Path_18424" data-name="Path 18424" d="M415.74,177.843s2.167,24.075,2.864,45.392.073,48.824.073,48.824-2.2,1.574-7.043,1.793-6.491-1.4-6.491-1.4-2.962-9.664-3.424-16.464a69.545,69.545,0,0,1,0-11.06l-4.325-28.449s-5.485,28.011-6.11,31.394-5.875,33.317-5.875,33.317-2.061,1.9-7.352,1.8c-4.682-.089-6.037-1.769-6.037-1.769s-1.128-18.355-.868-26.193c.219-6.913,1.8-12.415,2.118-16.9s.495-30.023.811-39.76,1.128-18.095,9.461-29.812Z" transform="translate(-369.89 -168.56)" fill="#455a64"/>
          <path id="Path_18425" data-name="Path 18425" d="M381.92,222.231l3.6-17.852s6.272-1.623,9.2-5.469c0,0-.811,4.252-7.3,6.97l-3.83,17.754,1.331,18.355Z" transform="translate(-354.449 -174.283)" fill="#37474f"/>
        </g>
        <g id="freepik--Top--inject-103" transform="translate(0 15.466)">
          <path id="Path_18426" data-name="Path 18426" d="M366.534,164.952a15.5,15.5,0,0,1-6.905-.511,13.584,13.584,0,0,0,2.735-1.81,1.891,1.891,0,0,0,.325-2.613c-.3-.325-1.047.43-2.735.909-2.158.609-3.724.738-5.8,1.939a3.806,3.806,0,0,1-2.6.454c-5.063-.949-16.87-6.491-22.282-9.38-1.1-4.5-3.019-11.125-5.38-19.385-2.183-7.611-5.68-10.938-11.263-10.816l.8,16.529s2.662,11.417,5.956,20.74c.576,1.623,2.889,3.514,7.124,5.088,5.485,2.037,12.107,3.96,20.2,6.175a62.716,62.716,0,0,0,10.013,1.988c8.553.73,11.831-1.623,12.983-3.311C372.985,166.291,371.046,164.051,366.534,164.952Z" transform="translate(-242.464 -79.709)" fill="#ffa8a7"/>
          <path id="Path_18427" data-name="Path 18427" d="M387.541,123.556l-7.806.6a18.144,18.144,0,0,1-5.875,17.478l3.481,14.022c-.114,1.736-2.986,7.579-5.769,13.859,5.234,7.011,30.908,9.4,39.281,3.246-1.29-6.605-2.256-11.62-2.515-14.127l.422-9.064c10.5-8.609-2.167-21.73-6.832-25.9l-5.859-.26Z" transform="translate(-331.761 -79.647)" fill="#3246d3"/>
          <path id="Path_18428" data-name="Path 18428" d="M447.245,207.182a4.374,4.374,0,0,0,1.672-3.765,8.073,8.073,0,0,0-.982-3.578c-.544-.633-3.952-5.266-5.461-2.572-1.623,2.937-1.29,4.13-1.29,4.13Z" transform="translate(-424.336 -93.417)" fill="#f28f8f"/>
          <path id="Path_18429" data-name="Path 18429" d="M354.462,265.107a20.968,20.968,0,0,0,10.346-3.132l40.515-23.4c6.256-3.611,11.36-12.431,11.36-19.661V184.921a6.491,6.491,0,0,1,9.737-5.6l14.184,8.212a1.623,1.623,0,1,0,1.623-2.808L428,176.507a9.737,9.737,0,0,0-14.606,8.415v33.991c0,6.086-4.463,13.794-9.737,16.854l-40.515,23.386c-5.185,2.994-10,3.514-13.535,1.477s-5.493-6.491-5.493-12.456v-43.4c0-7.352-4.7-15.823-10.695-19.288l-9.891-5.68a1.623,1.623,0,1,0-1.623,2.808l9.891,5.68c4.917,2.84,9.072,10.378,9.072,16.472v43.4c0,7.189,2.532,12.61,7.116,15.263A12.723,12.723,0,0,0,354.462,265.107Z" transform="translate(-321.037 -89.414)" fill="#37474f"/>
          <g id="freepik--Plug--inject-103" transform="translate(103.428 80.396)">
            <path id="Path_18430" data-name="Path 18430" d="M274.72,188.626v2.653a14.7,14.7,0,0,0,6.662,11.53L305.952,217l24.984-14.427V180.942l-24.229-11.214a16.671,16.671,0,0,0-13.64.617L281.4,177.087A14.761,14.761,0,0,0,274.72,188.626Z" transform="translate(-274.72 -168.556)" fill="#37474f"/>
            <path id="Path_18431" data-name="Path 18431" d="M302.653,169.728a16.671,16.671,0,0,0-13.64.617l-11.668,6.743c-3.676,2.118-3.53,5.282.325,7.068l24.254,11.2,24.992-14.419Z" transform="translate(-270.666 -168.556)" fill="#455a64"/>
            <path id="Path_18432" data-name="Path 18432" d="M278.027,192.359a7.36,7.36,0,0,0-3.327,5.761v17.795l5.68,3.246,24.984-14.427V183.141l-6.329-2.921Z" transform="translate(-249.132 -170.756)" opacity="0.15"/>
            <path id="Path_18433" data-name="Path 18433" d="M297.222,179.18a2.313,2.313,0,0,0-2.337.227L270.314,193.6a7.352,7.352,0,0,0-3.327,5.769v21.162a2.313,2.313,0,0,0,.974,2.142c.568.316,2.572,1.477,3.132,1.809a2.329,2.329,0,0,0,2.345-.227l24.578-14.192a7.36,7.36,0,0,0,3.327-5.761V183.14a2.345,2.345,0,0,0-.966-2.15Z" transform="translate(-238.855 -170.519)" fill="#37474f"/>
            <path id="Path_18434" data-name="Path 18434" d="M270.317,195.818,294.9,181.634c1.834-1.063,3.327-.2,3.327,1.923v21.162a7.36,7.36,0,0,1-3.327,5.761l-24.578,14.192c-1.834,1.063-3.327.2-3.327-1.923V201.587a7.376,7.376,0,0,1,3.327-5.769Z" transform="translate(-235.734 -170.937)" fill="#455a64"/>
            <path id="Path_18435" data-name="Path 18435" d="M292.685,224.977v3.66a3.243,3.243,0,0,1-1.355,3l-2.207,1.274a3.246,3.246,0,0,1-3.327-.292L265.51,220.887V206.444l2.207-1.274L288.044,216.9a10.3,10.3,0,0,1,4.641,8.074Zm-9.194-4.528a3.247,3.247,0,0,0-.13.811,6.9,6.9,0,0,0,3.124,5.412,2.939,2.939,0,0,0,.811.325,3.335,3.335,0,0,0,.114-.811,6.905,6.905,0,0,0-3.124-5.412,3.847,3.847,0,0,0-.8-.325Z" transform="translate(-228.995 -175.46)" fill="#3246d3"/>
            <path id="Path_18436" data-name="Path 18436" d="M265.676,236.367a.811.811,0,0,1-.138.1h0l.081-.049,2.134-1.241a3.185,3.185,0,0,0,1.355-2.994v-3.66a9.445,9.445,0,0,0-1.371-4.6l-2.207,1.274a9.575,9.575,0,0,1,1.363,4.6v3.66a3.724,3.724,0,0,1-.852,2.613A1.988,1.988,0,0,1,265.676,236.367Z" transform="translate(-205.435 -178.996)" opacity="0.2"/>
            <path id="Path_18437" data-name="Path 18437" d="M267.22,206.444l20.286,11.733a9.51,9.51,0,0,1,3.294,3.473l2.207-1.274a9.558,9.558,0,0,0-3.286-3.473L269.395,205.17Z" transform="translate(-230.705 -175.46)" fill="#fff" opacity="0.5"/>
            <path id="Path_18438" data-name="Path 18438" d="M269.93,239.45h0Z" transform="translate(-209.884 -181.924)" fill="#fff" opacity="0.5"/>
            <path id="Path_18439" data-name="Path 18439" d="M270,239.43Z" transform="translate(-209.954 -181.921)" opacity="0.2"/>
            <path id="Path_18440" data-name="Path 18440" d="M274.367,224.779a3.468,3.468,0,0,1,.114-.868h0c-1.339-.365-2.321.471-2.321,2.142a6.913,6.913,0,0,0,3.116,5.412c1.444.811,2.678.4,3.019-.949a2.654,2.654,0,0,1-.811-.325,6.921,6.921,0,0,1-3.116-5.412Z" transform="translate(-220.001 -178.978)" opacity="0.2"/>
            <path id="Path_18441" data-name="Path 18441" d="M269.579,211.637V215.3a3.229,3.229,0,0,1-1.355,2.994l-2.207,1.282a3.246,3.246,0,0,1-3.311-.308L242.42,207.531V193.112l2.207-1.282,20.286,11.733A10.321,10.321,0,0,1,269.579,211.637Zm-9.194-4.552a3.515,3.515,0,0,0-.114.868,6.905,6.905,0,0,0,3.124,5.412,3.732,3.732,0,0,0,.811.325,3.093,3.093,0,0,0,.114-.852,6.913,6.913,0,0,0-3.116-5.412,3.172,3.172,0,0,0-.82-.341Z" transform="translate(-187.153 -172.945)" fill="#3246d3"/>
            <path id="Path_18442" data-name="Path 18442" d="M242.42,223.185h.1l2.207-1.29a3.209,3.209,0,0,0,1.355-3v-3.66a8.016,8.016,0,0,0-.365-2.3,10.938,10.938,0,0,0-1-2.288h0l-2.207,1.266h0a10.294,10.294,0,0,1,.56,1.12,8.836,8.836,0,0,1,.811,3.473v3.66a3.741,3.741,0,0,1-.811,2.613,2.273,2.273,0,0,1-.649.414Z" transform="translate(-163.654 -176.492)" opacity="0.2"/>
            <path id="Path_18443" data-name="Path 18443" d="M244.14,193.112l20.286,11.733a9.445,9.445,0,0,1,3.294,3.473l2.207-1.266a9.551,9.551,0,0,0-3.246-3.489L246.4,191.83Z" transform="translate(-188.898 -172.945)" fill="#fff" opacity="0.5"/>
            <path id="Path_18444" data-name="Path 18444" d="M246.93,226.12h.016Z" transform="translate(-168.221 -179.411)" fill="#fff" opacity="0.5"/>
            <path id="Path_18445" data-name="Path 18445" d="M251.265,211.47a3.416,3.416,0,0,1,.105-.86h0c-1.331-.373-2.321.471-2.321,2.142a6.913,6.913,0,0,0,3.116,5.412c1.452.811,2.678.4,3.019-.957a2.532,2.532,0,0,1-.811-.325A6.9,6.9,0,0,1,251.265,211.47Z" transform="translate(-178.139 -176.47)" opacity="0.2"/>
          </g>
          <path id="Path_18446" data-name="Path 18446" d="M245.727,196.026a1.209,1.209,0,0,0,1.177-.917l3.246-12.723a1.219,1.219,0,1,0-2.361-.609l-3.246,12.731a1.2,1.2,0,0,0,.876,1.477,1.275,1.275,0,0,0,.308.041Z" transform="translate(-66.025 -90.481)" fill="#e0e0e0"/>
          <path id="Path_18447" data-name="Path 18447" d="M223.514,203.3a1.217,1.217,0,0,0,.755-.26l12.082-9.551a1.217,1.217,0,1,0-1.509-1.907l-12.082,9.542a1.225,1.225,0,0,0-.2,1.712,1.2,1.2,0,0,0,.957.463Z" transform="translate(-34.675 -92.446)" fill="#e0e0e0"/>
          <path id="Path_18448" data-name="Path 18448" d="M232.011,219.629a1.218,1.218,0,0,0,.089-2.434l-14.127-1.1a1.209,1.209,0,0,0-1.306,1.12,1.225,1.225,0,0,0,1.12,1.306l14.127,1.1Z" transform="translate(-26.521 -97.125)" fill="#e0e0e0"/>
          <path id="Path_18449" data-name="Path 18449" d="M411.562,180.347a79.975,79.975,0,0,1,1.331-8.926,120.186,120.186,0,0,1,7.352-20.132c1.355-2.588,4.414-6.362,6.581-9.551,3.067-4.5,5.226-7.027,7.554-10.086,5.128-6.711,7.3-7.1,13.291-7.3.811,2.134,2.661,10.881-3.335,17.949L431.483,155.85c-.73,1.177-8.585,14.606-9.891,19.564a3.668,3.668,0,0,0,.308,2.621,31.646,31.646,0,0,1,2.248,7.108c.381,1.72,1.4,3.083,1.055,3.351a2.3,2.3,0,0,1-2.848-.227,12.212,12.212,0,0,1-2.215-3.343,1.745,1.745,0,0,0-1.858,1.777,19.871,19.871,0,0,0,.73,4.114c.065.341.146.73.3,1.672a10.89,10.89,0,0,1,.227,1.931c-1.623.3-3.319-.69-6.045-3.246C411.035,188.786,410.873,185.654,411.562,180.347Z" transform="translate(-399.697 -79.825)" fill="#ffa8a7"/>
          <path id="Path_18450" data-name="Path 18450" d="M383.115,109.443c-.049-1.623-5.323-5.42-7.993-9.461-2.434-3.749-5.932-14.054,2.264-17.348,0,0-1.769-4.942,1.444-7.855s7.538-1.112,8.22.105a7.3,7.3,0,0,1,6.865-5.388,6.386,6.386,0,0,1,6.719,5.007,6.159,6.159,0,0,1,7.473,2.093c3.01,4.146-.982,7.944-.982,7.944a3.449,3.449,0,0,1,1.5,3.213c-.235,1.753-1.915,2.183-2.11,3.059a.86.86,0,0,0,1.469.763,1.769,1.769,0,0,1-2.077,1.4c-1.891-.105-3.578-2.678-3.578-2.678Z" transform="translate(-328.731 -69.478)" fill="#263238"/>
          <path id="Path_18451" data-name="Path 18451" d="M401,85.05c2.434,1.055,4.731,4.763,4.7,15.133,0,8.788-2.726,11.011-4.057,11.668s-4.017.316-6.605-.081v5.055s4.682,5.81.487,8.7c-10.808-1.891-11.636-8.983-11.636-8.983l-.195-11.019s-1.485,1.558-4.057-.73c-2.158-1.891-2.937-5.128-1.315-6.913s3.7-1.923,5.583.065c0,0,3.449.227,8.634-3.027A19.687,19.687,0,0,0,401,85.05Z" transform="translate(-329.409 -72.414)" fill="#ffa8a7"/>
          <path id="Path_18452" data-name="Path 18452" d="M387.694,110.187a1.266,1.266,0,0,0,1.2,1.347,1.306,1.306,0,1,0-1.2-1.347Z" transform="translate(-322.33 -76.916)" fill="#b16668"/>
          <path id="Path_18453" data-name="Path 18453" d="M379.8,99.727a1.168,1.168,0,1,0,1.217-1.177,1.193,1.193,0,0,0-1.217,1.177Z" transform="translate(-307.759 -74.96)" fill="#263238"/>
          <path id="Path_18454" data-name="Path 18454" d="M390.672,100.379a1.266,1.266,0,0,0,1.2,1.347,1.29,1.29,0,0,0,1.3-1.266,1.25,1.25,0,1,0-2.5-.081Z" transform="translate(-327.613 -75.076)" fill="#263238"/>
          <path id="Path_18455" data-name="Path 18455" d="M378.813,94.27l2.475,1.452a1.379,1.379,0,0,1-1.947.527,1.485,1.485,0,0,1-.527-1.98Z" transform="translate(-305.96 -74.153)" fill="#263238"/>
          <path id="Path_18456" data-name="Path 18456" d="M401.478,99.18v4.869a2.288,2.288,0,0,0,2.345-2.369,2.515,2.515,0,0,0-2.345-2.5Z" transform="translate(-347.037 -75.078)" fill="#263238"/>
          <path id="Path_18457" data-name="Path 18457" d="M381.45,98.57l.495,7.011,3.7-.868Z" transform="translate(-312.606 -74.963)" fill="#f28f8f"/>
          <path id="Path_18458" data-name="Path 18458" d="M399.87,117.033c-2.718-.316-8.333-1.874-9.25-4.163a5.964,5.964,0,0,0,2.012,2.9c1.7,1.461,7.246,2.97,7.246,2.97Z" transform="translate(-334.28 -77.66)" fill="#f28f8f"/>
        </g>
        <g id="freepik--question-marks--inject-103" transform="translate(7.478 27.579) rotate(-74)">
          <path id="Path_18459" data-name="Path 18459" d="M428.306,51.036a11.182,11.182,0,0,1,2.881,1.623,8.722,8.722,0,0,1,2.15,2.264,7.043,7.043,0,0,1,1.055,2.791,6.208,6.208,0,0,1-.381,3.14,6.41,6.41,0,0,1-1.29,2.158,7.709,7.709,0,0,1-1.728,1.363,12.017,12.017,0,0,1-1.947.893l-1.915.69a9.689,9.689,0,0,0-1.623.763,2.9,2.9,0,0,0-1.177,1.087,1.428,1.428,0,0,1-.536.519.811.811,0,0,1-.7.041l-2.532-.949a.958.958,0,0,1-.544-.511.812.812,0,0,1,0-.722,6.256,6.256,0,0,1,1.412-2.077,8.852,8.852,0,0,1,1.826-1.323,12.657,12.657,0,0,1,2-.86c.682-.227,1.315-.446,1.907-.673a8.439,8.439,0,0,0,1.534-.747,2.264,2.264,0,0,0,.909-1.12,2.669,2.669,0,0,0-.276-2.483,4.869,4.869,0,0,0-2.524-1.874,4.65,4.65,0,0,0-5.218,1.258,2.1,2.1,0,0,1-.56.422.933.933,0,0,1-.682-.049l-2.694-1.014a.754.754,0,0,1-.438-.4.69.69,0,0,1,0-.609,5.412,5.412,0,0,1,1.623-2.11,8.691,8.691,0,0,1,2.653-1.509,10.549,10.549,0,0,1,3.3-.6,9.315,9.315,0,0,1,3.513.617ZM422.528,70.43a.893.893,0,0,1,.527.5.917.917,0,0,1,0,.73l-1.1,2.929a.893.893,0,0,1-.5.527.917.917,0,0,1-.73,0l-2.864-1.079a.893.893,0,0,1-.527-.5.917.917,0,0,1,0-.73l1.1-2.929a.933.933,0,0,1,.5-.536.949.949,0,0,1,.73,0Z" transform="translate(-417.143 -50.418)" fill="#3246d3"/>
          <path id="Path_18460" data-name="Path 18460" d="M431.316,90.272a.893.893,0,0,1,0,1.274l-2.029,2.142a.876.876,0,0,1-.633.276A.9.9,0,0,1,428,93.72l-2.069-1.988a.922.922,0,0,1-.032-1.282l2.037-2.134a.909.909,0,0,1,1.274,0ZM443.487,75.56a10.825,10.825,0,0,1,1.923,2.434,8.472,8.472,0,0,1,1.031,2.759,6.694,6.694,0,0,1-.138,2.8,6.491,6.491,0,0,1-3.4,3.984,7.116,7.116,0,0,1-2,.552,12.058,12.058,0,0,1-2.021.057l-1.915-.105a9.843,9.843,0,0,0-1.712.057,2.759,2.759,0,0,0-1.4.568,1.266,1.266,0,0,1-.657.252.763.763,0,0,1-.625-.219l-1.842-1.753a.933.933,0,0,1-.292-.641.747.747,0,0,1,.26-.641,5.9,5.9,0,0,1,1.98-1.3,8.3,8.3,0,0,1,2.069-.479,12.4,12.4,0,0,1,2.053,0q1.014.089,1.9.122a7.732,7.732,0,0,0,1.623-.089,2.118,2.118,0,0,0,1.209-.633,2.54,2.54,0,0,0,.665-2.256,4.561,4.561,0,0,0-1.5-2.556,4.4,4.4,0,0,0-5-.811,1.867,1.867,0,0,1-.633.154.812.812,0,0,1-.576-.292l-1.964-1.874a.746.746,0,0,1-.243-.495.714.714,0,0,1,.211-.544,5.234,5.234,0,0,1,2.175-1.241,8.277,8.277,0,0,1,2.856-.333,9.876,9.876,0,0,1,3.092.7,8.6,8.6,0,0,1,2.832,1.826Z" transform="translate(-418.749 -54.68)" fill="#3246d3"/>
          <g id="Group_14501" data-name="Group 14501" transform="translate(6.91 18.342)" opacity="0.6">
            <path id="Path_18461" data-name="Path 18461" d="M431.316,90.272a.893.893,0,0,1,0,1.274l-2.029,2.142a.876.876,0,0,1-.633.276A.9.9,0,0,1,428,93.72l-2.069-1.988a.922.922,0,0,1-.032-1.282l2.037-2.134a.909.909,0,0,1,1.274,0ZM443.487,75.56a10.825,10.825,0,0,1,1.923,2.434,8.472,8.472,0,0,1,1.031,2.759,6.694,6.694,0,0,1-.138,2.8,6.491,6.491,0,0,1-3.4,3.984,7.116,7.116,0,0,1-2,.552,12.058,12.058,0,0,1-2.021.057l-1.915-.105a9.843,9.843,0,0,0-1.712.057,2.759,2.759,0,0,0-1.4.568,1.266,1.266,0,0,1-.657.252.763.763,0,0,1-.625-.219l-1.842-1.753a.933.933,0,0,1-.292-.641.747.747,0,0,1,.26-.641,5.9,5.9,0,0,1,1.98-1.3,8.3,8.3,0,0,1,2.069-.479,12.4,12.4,0,0,1,2.053,0q1.014.089,1.9.122a7.732,7.732,0,0,0,1.623-.089,2.118,2.118,0,0,0,1.209-.633,2.54,2.54,0,0,0,.665-2.256,4.561,4.561,0,0,0-1.5-2.556,4.4,4.4,0,0,0-5-.811,1.867,1.867,0,0,1-.633.154.812.812,0,0,1-.576-.292l-1.964-1.874a.746.746,0,0,1-.243-.495.714.714,0,0,1,.211-.544,5.234,5.234,0,0,1,2.175-1.241,8.277,8.277,0,0,1,2.856-.333,9.876,9.876,0,0,1,3.092.7,8.6,8.6,0,0,1,2.832,1.826Z" transform="translate(-425.659 -73.022)" fill="#fff"/>
          </g>
        </g>
      </g>
    </g>
    <g id="freepik--character-1--inject-103" transform="translate(109.538 3.75)">
      <g id="freepik--character--inject-103-2" data-name="freepik--character--inject-103">
        <g id="freepik--bottom--inject-103-2" data-name="freepik--bottom--inject-103" transform="translate(150.553 115.184)">
          <path id="Path_18462" data-name="Path 18462" d="M88.454,341.19a10.9,10.9,0,0,1-9.21.495l-2.434-17.04,11.36-2.9Z" transform="translate(-28.31 -220.514)" fill="#ffa8a7"/>
          <path id="Path_18463" data-name="Path 18463" d="M74.371,362.357a4.722,4.722,0,0,0,.235,2.913c.349.479,2.3,2.1,5.907,2.167,3.432.057,6.491-.568,8.406-1.956s2.832-2.84,2.921-4.8-.235-3.822.609-5.372,1.858-2.848,2.118-3.611a9.737,9.737,0,0,0,0-4.2Z" transform="translate(-32.557 -225.371)" fill="#263238"/>
          <path id="Path_18464" data-name="Path 18464" d="M82.83,344.491a9.38,9.38,0,0,1-.308,2.191,20.1,20.1,0,0,1-1.858,4.4,18.477,18.477,0,0,1-1.323,2.085c-.966,1.29-2.2,2.369-3.246,3.611a6.987,6.987,0,0,0-1.891,4.317c0,2.694,2.962,3.449,5.226,3.724a16.5,16.5,0,0,0,7.3-.755,6.7,6.7,0,0,0,4.617-5.615c.089-.755,0-1.509.049-2.264a10.492,10.492,0,0,1,1.834-4.812,13.794,13.794,0,0,0,1.461-2.645c.617-1.7-.049-3.538-.584-5.169-.463-1.4-.811-3.1-1.331-2.937v.917c-.146.316-.5.544-.592.917a6.972,6.972,0,0,1-.349,1.128,2.921,2.921,0,0,1-1.12,1.379c-.089-1.014-.179-2.029-.26-3.035a1.063,1.063,0,0,0-1.16-1.209,19.14,19.14,0,0,0-5.769-.17,1.1,1.1,0,0,0-.755.381,1.169,1.169,0,0,0-.089.69,26.609,26.609,0,0,1,.146,2.872Z" transform="translate(-32.683 -224.033)" fill="#3246d3"/>
          <path id="Path_18465" data-name="Path 18465" d="M82.83,344.491a9.38,9.38,0,0,1-.308,2.191,20.1,20.1,0,0,1-1.858,4.4,18.477,18.477,0,0,1-1.323,2.085c-.966,1.29-2.2,2.369-3.246,3.611a6.987,6.987,0,0,0-1.891,4.317c0,2.694,2.962,3.449,5.226,3.724a16.5,16.5,0,0,0,7.3-.755,6.7,6.7,0,0,0,4.617-5.615c.089-.755,0-1.509.049-2.264a10.492,10.492,0,0,1,1.834-4.812,13.794,13.794,0,0,0,1.461-2.645c.617-1.7-.049-3.538-.584-5.169-.463-1.4-.811-3.1-1.331-2.937v.917c-.146.316-.5.544-.592.917a6.972,6.972,0,0,1-.349,1.128,2.921,2.921,0,0,1-1.12,1.379c-.089-1.014-.179-2.029-.26-3.035a1.063,1.063,0,0,0-1.16-1.209,19.14,19.14,0,0,0-5.769-.17,1.1,1.1,0,0,0-.755.381,1.169,1.169,0,0,0-.089.69,26.609,26.609,0,0,1,.146,2.872Z" transform="translate(-32.683 -224.033)" opacity="0.2"/>
          <path id="Path_18466" data-name="Path 18466" d="M80.936,353.732c.957-.811,3.2-.933,4.43-.868a7.482,7.482,0,0,1,3.546,1.031.811.811,0,0,0,1.014-.138h0a.747.747,0,0,0-.13-1.136,7.668,7.668,0,0,0-4-1.241c-3.067-.049-3.879.5-3.879.5S80.587,352.856,80.936,353.732Z" transform="translate(-33.288 -226.102)" fill="#455a64"/>
          <path id="Path_18467" data-name="Path 18467" d="M83.036,357.287c1.217-.811,3.684-.811,4.917-.771a6.978,6.978,0,0,1,3.449,1.1.811.811,0,0,0,1.022-.138h0a.738.738,0,0,0-.138-1.136A7.749,7.749,0,0,0,88.229,355c-3.027-.057-3.781.609-3.781.609a2.491,2.491,0,0,0-1.412,1.68Z" transform="translate(-37.538 -226.784)" fill="#455a64"/>
          <path id="Path_18468" data-name="Path 18468" d="M84.072,347.738a7.522,7.522,0,0,0-3.773.519c-.511.333-.811,1.185-.463,1.379A7.027,7.027,0,0,1,83.2,349a9.932,9.932,0,0,1,3.3.722,6.181,6.181,0,0,1,.811.373.706.706,0,0,0,.974-.357h0a.682.682,0,0,0-.308-.811,9.681,9.681,0,0,0-3.911-1.185Z" transform="translate(-30.516 -225.406)" fill="#455a64"/>
          <path id="Path_18469" data-name="Path 18469" d="M124.936,333.762c-1.98,4.958-5.08,3.432-9.8.576l-.714-16.927,12.017-1.112Z" transform="translate(-96.811 -219.488)" fill="#ffa8a7"/>
          <path id="Path_18470" data-name="Path 18470" d="M113.366,350.874a3.246,3.246,0,0,0,.26,2.378c.373.682,4.13,2.548,9.039,1.947a20.464,20.464,0,0,0,10-4.106c1.809-1.347,3.749-1.68,6.183-1.956s4.26-1.12,4.739-2.288a5.347,5.347,0,0,0-.252-3.1Z" transform="translate(-113.17 -224.664)" fill="#263238"/>
          <path id="Path_18471" data-name="Path 18471" d="M132.466,332.99a9.7,9.7,0,0,1-1.306-.373,1.063,1.063,0,0,0-.738,0c-.308.138-.406.511-.479.811a11.247,11.247,0,0,1-.422,2.167,5.307,5.307,0,0,1-1.3,1.526,22.582,22.582,0,0,1-3.806,2.751c-1.566.957-3.108,1.712-4.723,2.548s-3.879,1.436-5.161,2.434c-1.858,1.412-1.931,4.7.341,5.867,1.956,1.014,7.019,1.956,12.172.187,2.816-.966,5.818-4.187,9.551-4.682,2.378-.308,5.542-.682,6.978-2.572.519-.811.065-3.165-.357-5.915-.381-2.434-.73-6.329-1.517-6.07l-.057.747-.957,1.144a8.172,8.172,0,0,1-.665.633q-.384.45-.811.86a2.434,2.434,0,0,1-1.371.576,1.266,1.266,0,0,1-.69-.154c-.406-.227-.463-.763-.811-1.1a3.96,3.96,0,0,0-1.331-.9,7.8,7.8,0,0,0-2.158-.438,2.963,2.963,0,0,1-.381-.049Z" transform="translate(-113.154 -222.383)" fill="#3246d3"/>
          <path id="Path_18472" data-name="Path 18472" d="M132.466,332.99a9.7,9.7,0,0,1-1.306-.373,1.063,1.063,0,0,0-.738,0c-.308.138-.406.511-.479.811a11.247,11.247,0,0,1-.422,2.167,5.307,5.307,0,0,1-1.3,1.526,22.582,22.582,0,0,1-3.806,2.751c-1.566.957-3.108,1.712-4.723,2.548s-3.879,1.436-5.161,2.434c-1.858,1.412-1.931,4.7.341,5.867,1.956,1.014,7.019,1.956,12.172.187,2.816-.966,5.818-4.187,9.551-4.682,2.378-.308,5.542-.682,6.978-2.572.519-.811.065-3.165-.357-5.915-.381-2.434-.73-6.329-1.517-6.07l-.057.747-.957,1.144a8.172,8.172,0,0,1-.665.633q-.384.45-.811.86a2.434,2.434,0,0,1-1.371.576,1.266,1.266,0,0,1-.69-.154c-.406-.227-.463-.763-.811-1.1a3.96,3.96,0,0,0-1.331-.9,7.8,7.8,0,0,0-2.158-.438,2.963,2.963,0,0,1-.381-.049Z" transform="translate(-113.154 -222.383)" opacity="0.2"/>
          <path id="Path_18473" data-name="Path 18473" d="M126.587,339.691a2.24,2.24,0,0,1,1.7-1.274c1.071-.26,3.027.438,4.268,1.355a.893.893,0,0,1-.049,1.477h0a.909.909,0,0,1-1.022-.057A6.751,6.751,0,0,0,126.587,339.691Z" transform="translate(-113.173 -223.648)" fill="#455a64"/>
          <path id="Path_18474" data-name="Path 18474" d="M129.689,342.295a2.556,2.556,0,0,1,2.029-1.185,7.919,7.919,0,0,1,4.674,1.469.868.868,0,0,1,0,1.428h0a.868.868,0,0,1-.99-.065A6.832,6.832,0,0,0,129.689,342.295Z" transform="translate(-119.529 -224.166)" fill="#455a64"/>
          <path id="Path_18475" data-name="Path 18475" d="M134.308,344.657a2.848,2.848,0,0,1,2.11-1.087,7.676,7.676,0,0,1,4.487,1.493.868.868,0,0,1-.049,1.428h0a.812.812,0,0,1-.982-.057A6.492,6.492,0,0,0,134.308,344.657Z" transform="translate(-127.767 -224.63)" fill="#455a64"/>
          <path id="Path_18476" data-name="Path 18476" d="M121.456,271.983c-.365-8.171-2.1-12.423-2.345-14.687,0,0-.665-44.953-1.761-58.594L77.1,196.99c-.592,14.606-1.128,53.847-.811,59.04.3,4.974,2.321,48.118,2.321,48.118,5.68,1.777,11.741-.811,11.741-.811s3.376-24.546,3.927-29.958a69.158,69.158,0,0,0-.373-14.606l2.572-34.948s3.108,27.1,4.641,37.326c1.753,11.693,9.315,47.94,9.315,47.94a18.538,18.538,0,0,0,10.727-.99S121.992,283.822,121.456,271.983Z" transform="translate(-60.996 -196.99)" fill="#455a64"/>
          <path id="Path_18477" data-name="Path 18477" d="M119.771,227.283l-.763-4.82c-2.345-.349-8.285-4.057-11.8-7.3a27.994,27.994,0,0,0,9.867,9.1l.122,37.959Z" transform="translate(-84.294 -200.416)" fill="#37474f"/>
        </g>
        <g id="freepik--top--inject-103-2" data-name="freepik--top--inject-103" transform="translate(117.474 15.262)">
          <path id="Path_18478" data-name="Path 18478" d="M168.961,159.958c2.735-6.24,7.441-16.748,7.441-16.748l1.193-17.04a45.96,45.96,0,0,0-5.2.463c-2.532.4-6.548,2.816-8.382,7.376-1.371,3.384-8.5,24.027-8.5,24.027l-12.415-6.54c-3.181-2.02-4.309-5.372-6.337-7.3s-4.057-2.223-6.3-3.773-3.132-2.791-3.7-1.241,1.947,3.927,2.434,4.52,2.929,1.858-.187,2.02-9.421-2.872-10.93-3.392-1.379,1.274-.592,2.386.868,4.374,2.183,6.2a9,9,0,0,0,5.144,3.944c2.783,1.071,8.553,1.347,11.522,3.059s10.159,8.212,14.955,11.547c6.435,4.479,10.054,4.771,12.577,1.2S168,162.157,168.961,159.958Z" transform="translate(-116.91 -83.714)" fill="#ffa8a7"/>
          <path id="Path_18479" data-name="Path 18479" d="M137.357,125.694c-4.219-.325-9.194-.065-11.944,2.434-2.2,2-3.027,3.246-5.477,10.175-1.623,4.65-5.1,15.36-5.1,15.36a22.168,22.168,0,0,1,12.172,7.457l7.911-17.779Z" transform="translate(-74.993 -83.603)" fill="#e0e0e0"/>
          <path id="Path_18480" data-name="Path 18480" d="M137.65,165.128a10.622,10.622,0,0,1,5.25,4.057s-.3-3.246-4.869-5.185Z" transform="translate(-99.044 -90.847)" fill="#f28f8f"/>
          <path id="Path_18481" data-name="Path 18481" d="M101.533,124.776a19.937,19.937,0,0,1,5.932.649c3.708.982,10.354,2.848,10.354,2.848,2.11,1.1,2.929,4.747,3.408,6.849,1.525,6.727-2.434,21.909-3.043,27.824s.706,24.035.706,24.035c-4.536,5.258-29.114,8.747-41.083,0,0,0-.519-41.6.657-47.574,1.785-9.039,4.439-13.332,13.794-13.876Z" transform="translate(-29.066 -83.448)" fill="#f5f5f5"/>
          <path id="Path_18482" data-name="Path 18482" d="M105.357,97.085l2.67,1.469a1.623,1.623,0,0,0-.625-2.126,1.485,1.485,0,0,0-2.045.657Z" transform="translate(-38.14 -78.072)" fill="#263238"/>
          <path id="Path_18483" data-name="Path 18483" d="M120.464,98.017l2.434-1.874a1.477,1.477,0,0,0-2.118-.325A1.623,1.623,0,0,0,120.464,98.017Z" transform="translate(-64.858 -77.932)" fill="#263238"/>
          <path id="Path_18484" data-name="Path 18484" d="M92.894,86.81s2.872.4,3.927,2.588c.909,1.883.584,6.427-.641,11.36a45.805,45.805,0,0,1-3.083,9.3,3.814,3.814,0,0,1-2.191,1.761l.154-5.891.211-4.057s-2.621-3.587-2.913-6.491c-.373-3.781.422-5.331.422-5.331Z" transform="translate(-13.409 -76.292)" fill="#263238"/>
          <path id="Path_18485" data-name="Path 18485" d="M120.994,91.253A10.979,10.979,0,0,1,110,102.191,10.977,10.977,0,0,1,110.1,80.25,10.971,10.971,0,0,1,120.994,91.253Z" transform="translate(-46.141 -75.055)" fill="#263238"/>
          <path id="Path_18486" data-name="Path 18486" d="M109.583,101.08c.99.86,1.793-1.355,2.621-2.223s3.546-2.037,4.869.811-1.185,6.978-3.246,7.774a2.962,2.962,0,0,1-3.5-1.1v12.983c-3.124,5.631-8.634,5.453-11.579,5.136s-3.587-3.376-1.436-5.842v-4.057a22.956,22.956,0,0,1-4.95.235c-2.694-.422-4.057-2.434-4.869-5.38-1.3-4.7-1.826-12.585,0-21.7,3.019-2.337,13.486-1.947,19.823,2.069C106.824,97.956,108.641,100.228,109.583,101.08Z" transform="translate(-31.931 -76.192)" fill="#ffa8a7"/>
          <path id="Path_18487" data-name="Path 18487" d="M95.4,80.86a19.791,19.791,0,0,1-.544-5.169c0-.682.17-1.509.811-1.769s1.274.211,1.826.584c2.337,1.574,5.242,2.02,8.058,2.175,4.869.268,12.309-.049,14.784,5.282.69,1.477.811,3.035-.552,4.057a9.332,9.332,0,0,1-4.057,1.509c-2.434.43-4.869.966-7.368,1.3s-5.469.657-7.944-.105c-2.085-.641-4.2-1.193-5.753-2.848a7.936,7.936,0,0,1-2.126-5.307c0-.276.057-.625.333-.7a.633.633,0,0,1,.4.081Z" transform="translate(-40.366 -73.848)" fill="#263238"/>
          <path id="Path_18488" data-name="Path 18488" d="M97.49,120.037s6.021-1.193,8.114-2.3a6.954,6.954,0,0,0,2.921-2.872,9.453,9.453,0,0,1-1.623,3.392c-1.55,1.964-9.4,3.384-9.4,3.384Z" transform="translate(-32.083 -81.581)" fill="#f28f8f"/>
          <path id="Path_18489" data-name="Path 18489" d="M106.261,101.866a1.355,1.355,0,1,0,1.355-1.4A1.379,1.379,0,0,0,106.261,101.866Z" transform="translate(-39.644 -78.868)" fill="#263238"/>
          <path id="Path_18490" data-name="Path 18490" d="M108.86,113.435a1.275,1.275,0,1,0,1.282-1.315,1.3,1.3,0,0,0-1.282,1.315Z" transform="translate(-44.191 -81.065)" fill="#b16668"/>
          <path id="Path_18491" data-name="Path 18491" d="M103.755,96.751l2.791,1.761a1.728,1.728,0,0,0-.536-2.337,1.623,1.623,0,0,0-2.256.576Z" transform="translate(-35.435 -78.013)" fill="#263238"/>
          <path id="Path_18492" data-name="Path 18492" d="M122.444,94.82l-2.937,1.315a1.542,1.542,0,0,0,2.077.811,1.7,1.7,0,0,0,.86-2.126Z" transform="translate(-63.975 -77.802)" fill="#263238"/>
          <path id="Path_18493" data-name="Path 18493" d="M118.331,101.375a1.306,1.306,0,1,0,1.315-1.355,1.339,1.339,0,0,0-1.315,1.355Z" transform="translate(-61.411 -78.783)" fill="#263238"/>
          <path id="Path_18494" data-name="Path 18494" d="M118.133,98.87l-.487,9.023-4.276-1.136Z" transform="translate(-54.576 -78.566)" fill="#f28f8f"/>
          <path id="Path_18495" data-name="Path 18495" d="M71.265,143.032c-1.4.755-7.124,4.779-10.232,5.128-1.315.146-1.672-.065-1.623-.406.065-.471.9-1.177,1.1-1.558.349-.665,2.434-3.424,1.623-4.869s-1.517-.065-3.449,1.826-3.911,2.548-5.607,4.747-2.264,5.68-5.071,8.2L36.828,163.74s-5.209-24.173-7.5-27.021c-2.434-2.994-12.877,3.53-10.687,13.048s7.181,26.039,10.654,29.277c2.24,2.1,6.954.122,12.837-5.112,4.65-4.138,11.019-10.346,13.713-12.545s8.293-3.384,10.865-4.869a8.969,8.969,0,0,0,4.439-4.723c1-2.02.552-5.258,1.144-6.491S72.693,142.278,71.265,143.032Z" transform="translate(68.056 -85.565)" fill="#ffa8a7"/>
          <path id="Path_18496" data-name="Path 18496" d="M66.286,129.09c-3.587,2.24-3.765,5.5-3.944,9.234a38.6,38.6,0,0,0,2.045,12.853c1.517,4.7,3.927,13.275,3.927,13.275s9.364.219,14.184-3.944c0,0-2.2-9.25-3.749-16.229S75.317,129.877,66.286,129.09Z" transform="translate(22.466 -84.265)" fill="#e0e0e0"/>
          <path id="Path_18497" data-name="Path 18497" d="M66.91,169.922c-2.556,1.42-4.057,4.471-4.52,5.68a8.926,8.926,0,0,1,4.252-6.922Z" transform="translate(38.015 -91.73)" fill="#f28f8f"/>
        </g>
        <g id="freepik--Outlet--inject-103" transform="translate(0 232.679)">
          <path id="Path_18498" data-name="Path 18498" d="M244.737,386.34,182.11,422.5v13.324l62.627-36.158Z" transform="translate(-119.483 -350.191)" fill="#3246d3"/>
          <path id="Path_18499" data-name="Path 18499" d="M244.737,386.34,182.11,422.5v13.324l62.627-36.158Z" transform="translate(-119.483 -350.191)" opacity="0.35"/>
          <path id="Path_18500" data-name="Path 18500" d="M259.29,386.34,321.917,422.5v13.324L259.29,399.664Z" transform="translate(-259.29 -350.191)" fill="#3246d3"/>
          <path id="Path_18501" data-name="Path 18501" d="M259.29,386.34,321.917,422.5v13.324L259.29,399.664Z" transform="translate(-259.29 -350.191)" opacity="0.2"/>
          <path id="Path_18502" data-name="Path 18502" d="M182.11,377.939l62.626-36.149,62.627,36.149L244.736,414.1Z" transform="translate(-182.11 -341.79)" fill="#3246d3"/>
          <path id="Path_18503" data-name="Path 18503" d="M182.11,377.939l62.626-36.149,62.627,36.149L244.736,414.1Z" transform="translate(-182.11 -341.79)" opacity="0.15"/>
          <path id="Path_18504" data-name="Path 18504" d="M182.11,422.5v-3.806l56.038-32.352h6.589Z" transform="translate(-119.483 -350.191)" opacity="0.1"/>
          <path id="Path_18505" data-name="Path 18505" d="M321.917,341.79V345.6l-56.038,32.344H259.29Z" transform="translate(-259.29 -341.79)" opacity="0.1"/>
          <path id="Path_18506" data-name="Path 18506" d="M259.29,386.34h6.589l56.038,32.352V422.5Z" transform="translate(-259.29 -350.191)" fill="#3246d3"/>
          <path id="Path_18507" data-name="Path 18507" d="M182.11,341.79V345.6l56.038,32.344h6.589Z" transform="translate(-119.483 -341.79)" fill="#3246d3"/>
          <path id="Path_18508" data-name="Path 18508" d="M252.4,366.8l-26.907,15.531c-2.012,1.168-2.012,3.051,0,4.211l20.067,11.62a8.025,8.025,0,0,0,7.3,0l26.907-15.531c2.012-1.168,2.012-3.051,0-4.211L259.691,366.8A8.025,8.025,0,0,0,252.4,366.8Z" transform="translate(-189.997 -346.34)" fill="#37474f"/>
          <path id="Path_18509" data-name="Path 18509" d="M246.061,399.324l-19.4-11.206,26.242-15.15a8.114,8.114,0,0,1,7.3,0l19.4,11.222-26.242,15.133A8.025,8.025,0,0,1,246.061,399.324Z" transform="translate(-190.502 -347.505)" fill="#455a64"/>
          <path id="Path_18510" data-name="Path 18510" d="M254.113,384.753l-11.774-6.792a1.574,1.574,0,0,0-1.412,0l-1.444.811c-.389.219-.389.584,0,.811l11.774,6.792a1.558,1.558,0,0,0,1.4,0l1.444-.811a.43.43,0,0,0,.008-.811Z" transform="translate(-175.461 -348.579)" fill="#263238"/>
          <path id="Path_18511" data-name="Path 18511" d="M275.783,397.283l-11.774-6.792a1.558,1.558,0,0,0-1.4,0l-1.452.811c-.389.219-.389.584,0,.811l11.774,6.792a1.558,1.558,0,0,0,1.4,0l1.444-.811a.43.43,0,0,0,.008-.811Z" transform="translate(-214.714 -350.942)" fill="#263238"/>
          <path id="Path_18512" data-name="Path 18512" d="M215.114,417.232a7.822,7.822,0,0,1,3.554-6.143,2.475,2.475,0,0,1,2.507-.243l1.534.893a2.483,2.483,0,0,1,1.039,2.288,7.863,7.863,0,0,1-3.546,6.151,2.491,2.491,0,0,1-2.515.243l-1.526-.917A2.5,2.5,0,0,1,215.114,417.232Z" transform="translate(-125.28 -354.768)" fill="#3246d3"/>
          <path id="Path_18513" data-name="Path 18513" d="M218.674,412.218a7.822,7.822,0,0,0-3.554,6.143c0,2.264,1.623,3.181,3.554,2.053a7.863,7.863,0,0,0,3.546-6.151C222.22,412.007,220.63,411.09,218.674,412.218Z" transform="translate(-123.752 -354.979)" opacity="0.1"/>
        </g>
        <g id="freepik--Cable--inject-103" transform="translate(93.223 75.513)">
          <path id="Path_18514" data-name="Path 18514" d="M140.042,388.423a23.166,23.166,0,0,0,11.36-2.751l41.545-23.986c3.335-1.931,5.177-4.593,5.177-7.5s-1.842-5.558-5.177-7.49l-48.134-27.792c-5.274-3.043-9.737-10.76-9.737-16.853V149.723a1.623,1.623,0,1,0-3.246,0V302.053c0,7.352,4.982,15.993,11.36,19.669l48.134,27.792c2.288,1.323,3.554,2.978,3.554,4.674s-1.266,3.359-3.554,4.682L149.78,382.856c-5.364,3.1-14.095,3.1-19.474,0L99.674,365.183a1.623,1.623,0,1,0-1.623,2.808l30.632,17.681A23.126,23.126,0,0,0,140.042,388.423Z" transform="translate(-97.18 -148.1)" fill="#37474f"/>
        </g>
        <g id="freepik--exclamation-marks--inject-103" transform="translate(202.72)">
          <path id="Path_18515" data-name="Path 18515" d="M81.1,73.922a.859.859,0,0,0-.682-1.006l-3.944-.763a.811.811,0,0,0-.649.13.884.884,0,0,0-.365.552L74.856,76a.89.89,0,0,0,.682,1.014l3.952.755a.859.859,0,0,0,1.006-.682ZM84.4,56.833a.86.86,0,0,0-.682-1.014l-3.952-.763a.875.875,0,0,0-1.006.682L76.171,69.264a.875.875,0,0,0,.682,1.006l3.952.763a.875.875,0,0,0,1.006-.682Z" transform="translate(-74.839 -55.039)" fill="#3246d3"/>
          <path id="Path_18516" data-name="Path 18516" d="M62.867,90.654a.86.86,0,0,0-.065-1.217l-2.994-2.686a.883.883,0,0,0-1.217.065l-2.15,2.434a.86.86,0,0,0,.065,1.217l2.954,2.653a.883.883,0,0,0,1.217-.065ZM74.478,77.671a.868.868,0,0,0,.219-.625.811.811,0,0,0-.284-.592l-2.994-2.686a.863.863,0,0,0-1.217.065L61.017,84.106a.883.883,0,0,0,.065,1.217l3,2.686a.884.884,0,0,0,1.217-.065Z" transform="translate(-50.013 -58.529)" fill="#3246d3"/>
          <g id="Group_14502" data-name="Group 14502" transform="translate(6.206 15.017)" opacity="0.6">
            <path id="Path_18517" data-name="Path 18517" d="M62.867,90.654a.86.86,0,0,0-.065-1.217l-2.994-2.686a.883.883,0,0,0-1.217.065l-2.15,2.434a.86.86,0,0,0,.065,1.217l2.954,2.653a.883.883,0,0,0,1.217-.065ZM74.478,77.671a.868.868,0,0,0,.219-.625.811.811,0,0,0-.284-.592l-2.994-2.686a.863.863,0,0,0-1.217.065L61.017,84.106a.883.883,0,0,0,.065,1.217l3,2.686a.884.884,0,0,0,1.217-.065Z" transform="translate(-56.218 -73.547)" fill="#fff"/>
          </g>
        </g>
      </g>
    </g>
  </g>
</svg>
