<?xml version="1.0" encoding="utf-8"?>
<!-- Generator: Adobe Illustrator 26.2.0, SVG Export Plug-In . SVG Version: 6.00 Build 0)  -->
<svg version="1.1" id="Layer_1" xmlns="http://www.w3.org/2000/svg" xmlns:xlink="http://www.w3.org/1999/xlink" x="0px" y="0px"
	 viewBox="0 0 33 35" style="enable-background:new 0 0 33 35;" xml:space="preserve">
<style type="text/css">
	.st0{fill:#2C3652;}
</style>
<path id="download_36_" class="st0" d="M20.4,30.4v1c0,0.8-0.6,1.5-1.4,1.6l-0.2,0.9c-0.1,0.5-0.6,0.8-1.1,0.8h-2.5
	c-0.5,0-1-0.3-1.1-0.8L13.9,33c-0.8-0.1-1.4-0.8-1.4-1.6v-1c0-0.5,0.4-1,1-1c0,0,0,0,0,0h5.9C20,29.4,20.4,29.8,20.4,30.4z M25,16.8
	c0,2.2-0.9,4.3-2.4,5.9c-1.1,1.2-1.9,2.6-2.1,4.2c-0.1,0.7-0.7,1.2-1.4,1.2h-5.3c-0.7,0-1.3-0.5-1.4-1.2c-0.2-1.6-1-3.1-2.1-4.2
	c-1.5-1.6-2.3-3.6-2.4-5.8c-0.1-4.7,3.7-8.6,8.4-8.6C21,8.2,24.9,12,25,16.7C25,16.7,25,16.8,25,16.8z M17.4,11.7
	c0-0.5-0.4-0.9-0.9-0.9c0,0,0,0,0,0c-3.4,0-6.1,2.7-6.1,6.1c0,0.5,0.5,0.9,1,0.9c0.5,0,0.9-0.4,0.9-0.9c0-2.3,1.9-4.2,4.2-4.2
	C17,12.7,17.4,12.2,17.4,11.7L17.4,11.7z M16.5,5.6c0.5,0,0.9-0.4,0.9-0.9c0,0,0,0,0,0V1.3c0-0.5-0.4-1-0.9-1c-0.5,0-1,0.4-1,0.9
	c0,0,0,0,0,0.1v3.4C15.5,5.1,16,5.6,16.5,5.6C16.5,5.6,16.5,5.6,16.5,5.6z M5.2,16.8c0-0.5-0.4-0.9-0.9-0.9c0,0,0,0,0,0H0.9
	c-0.5,0-0.9,0.5-0.9,1c0,0.5,0.4,0.9,0.9,0.9h3.4C4.8,17.8,5.2,17.3,5.2,16.8z M32,15.9h-3.4c-0.5,0-0.9,0.5-0.9,1
	c0,0.5,0.4,0.9,0.9,0.9H32c0.5,0,0.9-0.4,0.9-0.9c0,0,0,0,0,0C33,16.3,32.6,15.9,32,15.9C32.1,15.9,32.1,15.9,32,15.9L32,15.9z
	 M7.2,24.8l-2.4,2.4c-0.4,0.4-0.4,1-0.1,1.3c0.4,0.4,1,0.4,1.3,0.1c0,0,0,0,0,0l2.4-2.4c0.4-0.4,0.4-1,0-1.3c0,0,0,0,0,0
	C8.1,24.4,7.5,24.4,7.2,24.8L7.2,24.8z M25.1,9.1c0.2,0,0.5-0.1,0.7-0.3l2.4-2.4c0.4-0.4,0.4-1,0.1-1.4c-0.4-0.4-1-0.4-1.4-0.1
	c0,0,0,0-0.1,0.1l-2.4,2.4c-0.4,0.4-0.4,1,0,1.3c0,0,0,0,0,0C24.6,9,24.9,9.1,25.1,9.1z M7.2,8.9c0.4,0.4,1,0.3,1.3-0.1
	c0.3-0.4,0.3-0.9,0-1.3L6.1,5.1c-0.4-0.4-1-0.3-1.4,0.1c-0.3,0.4-0.3,0.9,0,1.3L7.2,8.9z M25.8,24.8c-0.4-0.4-1-0.4-1.4,0
	s-0.4,1,0,1.4c0,0,0,0,0,0l2.4,2.4c0.4,0.4,1,0.3,1.3-0.1c0.3-0.4,0.3-0.9,0-1.3L25.8,24.8z"/>
</svg>
