<?xml version="1.0" encoding="utf-8"?>
<!-- Generator: Adobe Illustrator 26.0.3, SVG Export Plug-In . SVG Version: 6.00 Build 0)  -->
<svg version="1.1" id="Layer_1" xmlns="http://www.w3.org/2000/svg" xmlns:xlink="http://www.w3.org/1999/xlink" x="0px" y="0px"
	 viewBox="0 0 119 47" style="enable-background:new 0 0 119 47;" xml:space="preserve">
<style type="text/css">
	.st0{fill:#BCBCBC;}
</style>
<path id="download" class="st0" d="M68.33,41.39l3.16,3.16c0.55,0.53,0.56,1.4,0.03,1.95c-0.53,0.55-1.4,0.56-1.95,0.03
	c-0.01-0.01-0.02-0.02-0.03-0.03l-5.51-5.51c-0.54-0.54-0.54-1.41,0-1.95c0,0,0,0,0,0l5.51-5.51c0.53-0.55,1.4-0.56,1.95-0.03
	c0.55,0.53,0.56,1.4,0.03,1.95c-0.01,0.01-0.02,0.02-0.03,0.03l-3.16,3.16h32.73c8.37,0,15.15-6.78,15.15-15.15
	s-6.78-15.15-15.15-15.15l0,0H62.25c-0.76,0-1.38-0.61-1.38-1.38s0.61-1.38,1.38-1.38c0,0,0,0,0,0h38.81c9.89,0,17.9,8.01,17.9,17.9
	c0,9.89-8.01,17.9-17.9,17.9l0,0L68.33,41.39L68.33,41.39z M50.67,5.59l-3.16-3.16c-0.53-0.55-0.52-1.42,0.03-1.95
	c0.54-0.52,1.39-0.52,1.92,0l5.51,5.51c0.54,0.54,0.54,1.41,0,1.95c0,0,0,0,0,0l-5.51,5.51c-0.53,0.55-1.4,0.56-1.95,0.03
	c-0.55-0.53-0.56-1.4-0.03-1.95c0.01-0.01,0.02-0.02,0.03-0.03l3.16-3.16H17.94c-8.37,0-15.15,6.78-15.15,15.15
	c0,8.37,6.78,15.15,15.15,15.15h38.81c0.76,0,1.38,0.61,1.38,1.38s-0.61,1.38-1.38,1.38c0,0,0,0,0,0H17.94
	c-9.89,0-17.9-8.01-17.9-17.9c0-9.89,8.01-17.9,17.9-17.9L50.67,5.59L50.67,5.59z"/>
</svg>
