<?xml version="1.0" encoding="utf-8"?>
<!-- Generator: Adobe Illustrator 26.0.3, SVG Export Plug-In . SVG Version: 6.00 Build 0)  -->
<svg version="1.1" id="Layer_1" xmlns="http://www.w3.org/2000/svg" xmlns:xlink="http://www.w3.org/1999/xlink" x="0px" y="0px"
	 viewBox="0 0 23.5 23.5" style="enable-background:new 0 0 23.5 23.5;" xml:space="preserve">
<style type="text/css">
	.st0{fill:#2B3652;}
	.st1{clip-path:url(#SVGID_00000019662220789426167010000001982228668809234316_);}
</style>
<g>
	<path class="st0" d="M11.75,5.55c-1.92,0-3.48,1.56-3.48,3.48v1.35H7.84c-0.53,0-0.97,0.43-0.97,0.97v5.12
		c0,0.53,0.43,0.97,0.97,0.97h7.82c0.53,0,0.97-0.43,0.97-0.97v-5.12c0-0.53-0.43-0.97-0.97-0.97h-0.43V9.02
		C15.23,7.11,13.67,5.55,11.75,5.55L11.75,5.55z M10.21,9.02c0-0.85,0.69-1.54,1.54-1.54s1.54,0.69,1.54,1.54v1.35h-3.09L10.21,9.02
		z M14.69,15.49H8.81v-3.19h5.89L14.69,15.49L14.69,15.49z"/>
	<g>
		<defs>
			<rect id="SVGID_1_" x="0.25" y="0.25" width="23" height="23"/>
		</defs>
		<clipPath id="SVGID_00000168094323601325826210000008666611883633408165_">
			<use xlink:href="#SVGID_1_"  style="overflow:visible;"/>
		</clipPath>
		<g style="clip-path:url(#SVGID_00000168094323601325826210000008666611883633408165_);">
			<path class="st0" d="M22.28,10.78c-0.53,0-0.97,0.43-0.97,0.97c0,5.28-4.29,9.57-9.57,9.57c-5.28,0-9.57-4.29-9.57-9.57
				s4.29-9.57,9.57-9.57c2.02,0,3.96,0.63,5.57,1.79h-1.27c-0.53,0-0.97,0.43-0.97,0.97c0,0.53,0.43,0.97,0.97,0.97h3.72
				c0.53,0,0.97-0.43,0.97-0.97l0-3.72c0-0.53-0.43-0.97-0.97-0.97c-0.53,0-0.97,0.43-0.97,0.97v1.45c-2-1.55-4.47-2.41-7.04-2.41
				c-3.07,0-5.96,1.2-8.13,3.37c-2.17,2.17-3.37,5.06-3.37,8.13s1.2,5.96,3.37,8.13c2.17,2.17,5.06,3.37,8.13,3.37
				c3.07,0,5.96-1.2,8.13-3.37c2.17-2.17,3.37-5.06,3.37-8.13C23.25,11.22,22.82,10.78,22.28,10.78L22.28,10.78z"/>
		</g>
	</g>
</g>
</svg>
