<?xml version="1.0" encoding="utf-8"?>
<!-- Generator: Adobe Illustrator 26.2.0, SVG Export Plug-In . SVG Version: 6.00 Build 0)  -->
<svg version="1.1" id="Layer_1" xmlns="http://www.w3.org/2000/svg" xmlns:xlink="http://www.w3.org/1999/xlink" x="0px" y="0px"
	 viewBox="0 0 28 34" style="enable-background:new 0 0 28 34;" xml:space="preserve">
<style type="text/css">
	.st0{fill:#2C3652;}
</style>
<path id="download_31_" class="st0" d="M28,5.1l-4.1-4.7c-1.5,1.1-3.2,1.8-5.1,1.9C17,2.3,15.4,1.6,14,0.5c-1.4,1.1-3,1.8-4.8,1.9
	C7.4,2.3,5.6,1.6,4.1,0.5L0,5.1C1.3,6,2.1,7.4,2.1,9c0,2.7-1.9,3.3-1.9,9C0.2,28.6,14,33.5,14,33.5S27.8,28.6,27.8,18
	c0-5.7-1.9-6.3-1.9-9C25.9,7.4,26.7,6,28,5.1z M12.1,22.8L12.1,22.8L12.1,22.8l-5.5-5.5l2.2-2.2l3.3,3.3l7.1-7.1l2.2,2.2L12.1,22.8z
	"/>
</svg>
