<svg xmlns="http://www.w3.org/2000/svg" xmlns:xlink="http://www.w3.org/1999/xlink" width="1463.052" height="999.234" viewBox="0 0 1463.052 999.234">
  <defs>
    <linearGradient id="linear-gradient" x1="0.5" x2="0.5" y2="1" gradientUnits="objectBoundingBox">
      <stop offset="0" stop-color="#d805ae" stop-opacity="0.161"/>
      <stop offset="1" stop-color="#20daff" stop-opacity="0.129"/>
    </linearGradient>
  </defs>
  <g id="Unite-cloud-only-white" transform="translate(-0.18 -0.475)" opacity="0.75">
    <path id="Path_24816" data-name="Path 24816" d="M1028.8,522.733c-1.292-27.13-23.254-47.8-50.384-46.508-9.043,0-18.086,3.876-25.838,9.043h0v1.292a49.172,49.172,0,0,0-7.751,6.46L664.481,742.356c-83.974,74.93-144.693,149.861-268.716,155.028-156.32,5.168-286.8-114.979-293.262-270.008-5.168-155.028,114.979-285.51,270.008-291.97h9.043v20.67a439.126,439.126,0,0,0,7.751,59.428h0c7.751,18.087,28.422,31.006,49.092,29.714,27.13-1.292,49.092-24.546,47.8-51.676,0-5.168-1.292-10.335-2.584-15.5v-1.292h0a159.038,159.038,0,0,1-2.584-25.838c-5.168-134.358,99.476-246.754,232.543-251.921,20.67-1.292,41.341,1.292,60.719,5.168l15.5,3.876a89.059,89.059,0,0,0,12.919,5.168,231.372,231.372,0,0,1,78.806,46.508h0c6.46,7.751,18.086,14.211,29.714,15.5,27.13,5.168,52.968-11.627,59.427-38.757,3.876-20.67-6.46-40.049-21.962-51.676-14.211-12.919-29.714-23.254-46.508-33.589C860.851,25.35,818.218,12.431,789.8,7.263A304.318,304.318,0,0,0,712.282.8C565,5.971,443.566,101.572,399.641,233.346H368.636C156.764,241.1-7.308,419.38.443,631.252,9.487,843.125,187.769,1007.2,398.349,999.445c173.115-6.46,232.543-95.6,348.814-200.245L911.235,653.215l63.3-56.844,45.216-40.049V555.03c6.46-9.043,9.044-20.67,9.044-32.3Z" transform="translate(0 0)" fill="url(#linear-gradient)"/>
    <path id="Path_24817" data-name="Path 24817" d="M1085.993,386.236C1078.242,174.364,899.959,10.292,688.087,18.043c-173.115,6.46-232.542,95.6-348.814,200.245L43.427,481.837v1.292Q31.8,496.693,31.8,518.01c1.292,27.13,23.254,47.8,50.384,46.509,11.627,0,20.67-5.168,29.714-11.627h0L423.247,275.132C507.22,200.2,567.94,125.271,691.962,120.1c155.028-6.46,285.51,114.979,291.97,270.008s-114.979,285.51-270.008,291.97c-54.26,2.584-104.644-11.627-148.569-36.173l-7.752-3.876c-16.795-10.335-33.589-21.962-47.8-36.173q-9.689-11.627-27.13-15.5c-27.13-5.168-52.968,11.627-59.428,38.757-1.292,6.46-2.584,14.211-1.292,20.67v1.292c1.292,12.919,6.46,20.67,6.46,20.67A391.474,391.474,0,0,0,622.2,777.682c29.714,6.46,58.136,7.751,87.849,7.751v-1.292h6.459c213.164-9.043,378.528-187.326,369.484-397.906Z" transform="translate(376.885 206.26)" fill="url(#linear-gradient)"/>
  </g>
</svg>
